<?xml version="1.0" encoding="UTF-8"?>
<svg width="71px" height="86px" viewBox="0 0 71 86" version="1.1" xmlns="http://www.w3.org/2000/svg" xmlns:xlink="http://www.w3.org/1999/xlink">
    <!-- Generator: sketchtool 41.2 (35397) - http://www.bohemiancoding.com/sketch -->
    <title>1FF3C050-FD9B-4031-A436-7177F85750A7</title>
    <desc>Created with sketchtool.</desc>
    <defs></defs>
    <g id="Test" stroke="none" stroke-width="1" fill="none" fill-rule="evenodd">
        <g id="Quote-&amp;-Policy-Summary" transform="translate(-422.000000, -1873.000000)" fill="#FF2E5D">
            <g id="Group-19" transform="translate(264.000000, 1196.000000)">
                <g id="Group-12" transform="translate(0.000000, 677.000000)">
                    <g id="Benefit-Request-Icon" transform="translate(158.000000, 0.000000)">
                        <path d="M38.2890133,46.3686943 C38.0266405,46.080813 37.7205388,45.8352028 37.3779964,45.6457113 C38.2015557,45.3097282 40.2713862,41.6131859 40.5847761,41.1496604 C41.5905388,39.6759994 42.676471,38.2905248 43.806132,36.9094231 C44.4401998,36.1339655 45.2127422,35.3147791 45.956132,34.4547791 C44.9212167,35.7374909 43.9737591,37.0916265 43.1210472,38.5230164 C41.5322337,41.1605926 40.1110472,43.8907282 38.2890133,46.3686943 Z M36.496132,50.3254231 C36.6200303,49.8108808 35.9276574,49.458135 35.5705388,49.2518808 C35.3810472,49.1425587 35.1915557,49.0346943 35.0020642,48.9246435 C34.8708777,48.3372197 34.8417252,47.7191859 34.725115,47.1281181 C35.0239286,46.8825079 35.4029116,46.7352875 35.8839286,46.7462197 C36.4669794,46.760796 37.0281659,47.0953214 37.356132,47.5748808 C37.3196913,47.6113214 37.2978269,47.6492197 37.2613862,47.6856604 C36.9844371,48.0187282 37.3196913,48.4720503 37.6403693,48.4137452 C37.6549455,48.996796 37.1010472,49.9843384 36.496132,50.3254231 Z M22.3935896,37.4334401 C22.8381659,37.4130333 23.1442676,37.4778977 23.8147761,37.9283045 C25.0391828,38.7474909 26.0886744,39.7896943 27.1891828,40.7517282 C29.2735896,42.5650164 31.2632506,44.4329655 33.646471,45.8563384 C33.6974879,45.889135 33.7485049,45.8927791 33.7922337,45.8803892 C33.4059625,46.1828469 33.0779964,46.5683892 32.8156235,47.007135 C28.3188438,44.9168977 24.5508777,42.0213214 22.3935896,37.4334401 Z M46.6703693,33.5976943 C47.4647761,32.6057791 48.1571489,31.5643045 48.5069794,30.4769147 C48.5871489,30.2181859 48.2591828,30.0614909 48.0769794,30.2262028 C47.13681,31.0803723 46.4808777,32.2318977 45.686471,33.2223553 C44.7244371,34.4241689 43.7040981,35.5793384 42.7129116,36.7571011 C41.7144371,37.9414231 40.8617252,39.1643723 40.0673184,40.4857113 C39.3385049,41.694813 38.6096913,42.9068299 37.8663015,44.1115587 C37.6476574,44.4737791 37.3998608,44.8236096 37.2249455,45.2142536 C37.2103693,45.2550672 37.2030811,45.2813045 37.195793,45.3097282 C37.1666405,45.3483553 37.1374879,45.3869825 37.1156235,45.4270672 C37.1010472,45.4533045 37.0937591,45.478813 37.0937591,45.5035926 C36.8532506,45.4001011 36.6127422,45.3177452 36.3503693,45.267457 C35.3883354,45.0772367 34.5574879,45.3111859 33.8942676,45.7987621 C33.9452845,45.717135 33.9379964,45.5968808 33.8359625,45.5225418 C29.9003693,42.6692367 27.2256235,38.4610672 22.9620642,36.0137113 C22.7871489,35.9145926 22.5320642,35.8941859 22.3644371,36.0137113 C22.0801998,36.1135587 21.7959625,36.2134062 21.5117252,36.3132536 C21.1691828,36.3256435 20.7901998,36.6885926 20.9505388,37.0602875 C23.0859625,42.2137282 27.1891828,46.0655079 32.3346066,48.0354909 C32.2835896,48.1972875 32.2325727,48.3619994 32.1888438,48.5288977 C32.1013862,48.8743553 32.2398608,49.2773892 32.5678269,49.4508469 C32.94681,49.6549147 33.7630811,50.2314062 34.5647761,50.5907113 C34.6813862,50.8173723 34.8198608,51.0221689 34.9656235,51.1883384 C36.4596913,52.878457 38.806471,50.3735248 39.0542676,48.8583214 C39.1563015,48.219152 39.0469794,47.6084062 38.7773184,47.0749147 C42.4578269,41.9732197 44.4766405,35.5764231 49.0317252,31.1853214 C49.0535896,31.1685587 49.0244371,31.1437791 49.0098608,31.159813 C48.1790133,31.9367282 47.406471,32.7500842 46.6703693,33.5976943 L46.6703693,33.5976943 Z" id="Fill-1053"></path>
                        <path d="M34.1056235,29.8559655 C34.5574879,28.8815418 34.5501998,28.1257621 34.5939286,27.0522197 C34.6085049,26.5201859 34.6595218,25.988152 34.7105388,25.4561181 C34.776132,24.7433384 34.725115,24.2273384 34.6959625,23.5313214 C34.6886744,23.3542197 34.4263015,23.2492706 34.3388438,23.4343892 C34.0837591,23.9773553 33.9307083,24.0014062 33.7849455,24.5443723 C33.6100303,25.1820842 33.4569794,25.8241689 33.3112167,26.4698977 C33.0415557,27.7168977 32.8593523,28.6760164 33.37681,29.8559655 C33.5007083,30.1336435 33.9744371,30.1241689 34.1056235,29.8559655" id="Fill-1054"></path>
                        <path d="M37.1593523,63.0519655 C37.0573184,62.8406096 36.7730811,62.8012536 36.5835896,62.9018299 C35.366471,63.5512028 35.2498608,65.6173892 35.1624032,66.8476265 C35.045793,68.5078638 35.4247761,69.9326943 36.5471489,71.1541859 C36.7803693,71.4099994 37.2540981,71.1454401 37.1374879,70.8101859 C36.6127422,69.2920672 36.5690133,67.6945079 36.8969794,66.1319316 C37.1010472,65.1458469 37.6185049,64.0059825 37.1593523,63.0519655" id="Fill-1055"></path>
                        <path d="M18.1300303,47.3372875 C18.1883354,47.1426943 18.0935896,46.9313384 17.9186744,46.8278469 C17.1898608,46.3767113 16.3225727,46.7032197 15.535454,46.8635587 C14.2891828,47.1149994 12.9700303,46.854813 11.7747761,46.534135 C10.8783354,46.295813 10.5503693,47.5938299 11.395793,47.9013892 C12.9481659,48.4654909 17.3866405,49.6782367 18.1300303,47.3372875" id="Fill-1056"></path>
                        <path d="M59.8473184,44.4599316 C58.9435896,44.1982875 57.9815557,44.4890842 57.0705388,44.6472367 C55.8752845,44.8513045 54.6873184,45.048813 53.5066405,45.3170164 C53.0839286,45.4124909 53.1713862,46.1172536 53.6086744,46.0764401 C54.6873184,45.975135 55.7659625,45.9263045 56.8518947,45.889135 C57.8649455,45.854152 59.0966405,45.9292197 59.9639286,45.3432536 C60.306471,45.1122197 60.2700303,44.5809147 59.8473184,44.4599316" id="Fill-1057"></path>
                        <path d="M43.8935896,32.066457 C44.3818947,31.2093723 44.9139286,30.3770672 45.4896913,29.5753723 C45.9634201,28.9194401 46.8963015,28.239457 47.1003693,27.4559825 C47.1732506,27.1761181 46.9108777,26.8933384 46.6266405,26.9793384 C45.84681,27.2147452 45.3585049,28.2569486 44.9503693,28.9106943 C44.3746066,29.8341011 43.8935896,30.8150842 43.4490133,31.8062706 C43.3178269,32.1036265 43.7259625,32.3616265 43.8935896,32.066457" id="Fill-1058"></path>
                        <path d="M55.6785049,35.2710503 C55.8825727,35.1296604 55.9044371,34.7302706 55.5983354,34.6821689 C53.1130811,34.2915248 50.9630811,36.8146774 49.4179964,38.4494062 C48.966132,38.9333384 49.665793,39.6286265 50.1540981,39.1782197 C51.0432506,38.3510164 51.9615557,37.566813 52.9746066,36.8875587 C53.856471,36.2964909 54.8112167,35.8847113 55.6785049,35.2710503" id="Fill-1059"></path>
                        <path d="M54.986132,54.5452536 C54.1407083,54.102135 53.0912167,53.9170164 52.1656235,53.7836435 C51.7501998,53.7253384 51.6044371,54.250813 51.9907083,54.4045926 C52.9381659,54.7792028 53.7398608,55.3243553 54.6144371,55.8199486 C55.3359625,56.2302706 55.9044371,56.9335757 56.7717252,56.7907282 C57.0195218,56.7506435 57.0924032,56.4809825 57.0632506,56.2761859 C56.9393523,55.3651689 55.7149455,54.9322536 54.986132,54.5452536" id="Fill-1060"></path>
                        <path d="M46.5173184,62.1285587 C46.2185049,61.7503045 45.5771489,61.0783384 45.1835896,61.7262536 C45.1763015,61.7371859 45.1835896,61.7481181 45.1981659,61.7524909 C45.365793,61.8217282 45.5844371,63.1233892 45.6573184,63.358796 C45.9488438,64.3492536 46.225793,65.3462706 46.5391828,66.3330842 C46.9181659,67.5662367 48.7183354,66.8468977 48.1863015,65.6407113 C47.6688438,64.4782536 47.3117252,63.1357791 46.5173184,62.1285587" id="Fill-1061"></path>
                        <path d="M28.326132,62.4302875 C28.0346066,62.6715248 27.4807083,62.983457 27.2693523,63.2553045 C26.9413862,63.6648977 26.6352845,64.0854231 26.336471,64.5125079 C25.8481659,65.2056096 24.7986744,66.1836774 24.9152845,67.0837621 C24.9517252,67.3687282 25.155793,67.5392706 25.4473184,67.486796 C26.3729116,67.3242706 26.7518947,66.0597791 27.1090133,65.3120164 C27.3203693,64.8696265 27.5390133,64.4286943 27.7649455,63.9935926 C28.0200303,63.5096604 28.1439286,62.9980333 28.4791828,62.5476265 C28.5447761,62.4536096 28.3990133,62.3668808 28.326132,62.4302875" id="Fill-1062"></path>
                        <path d="M20.7537591,56.3228299 C18.8588438,56.1486435 16.8400303,56.6384062 15.0908777,57.3861689 C14.45681,57.6609316 14.9159625,58.7366604 15.5646066,58.5056265 C17.2991828,57.8883214 19.1722337,57.307457 20.7829116,56.4423553 C20.8485049,56.4095587 20.8120642,56.3279316 20.7537591,56.3228299" id="Fill-1063"></path>
                        <path d="M16.4829116,37.2468638 C16.9712167,37.4975757 17.4522337,37.6054401 17.9915557,37.6498977 C18.5017252,37.6936265 18.7786744,37.4757113 19.2596913,37.4093892 C19.3835896,37.3918977 19.3763015,37.1841859 19.2596913,37.1608638 C18.9463015,37.1003723 18.8588438,36.9174401 18.5891828,36.8146774 C18.166471,36.6506943 17.7874879,36.4152875 17.3793523,36.2097621 C16.4318947,35.7251011 15.965454,34.9445418 15.4115557,34.0859994 C14.9524032,33.3870672 13.6842676,33.8250842 14.0049455,34.677796 C14.4276574,35.8242197 15.4188438,36.6922367 16.4829116,37.2468638" id="Fill-1064"></path>
                        <path d="M25.1412167,32.0504231 C25.2796913,32.2457452 25.6295218,32.137152 25.5566405,31.8762367 C25.2140981,30.7677113 24.886132,29.6934401 24.4707083,28.6082367 C24.0917252,27.6097621 24.0479964,26.3328808 23.3410472,25.5282706 C23.115115,25.272457 22.7434201,25.4386265 22.6413862,25.7119316 C22.2624032,26.7381011 22.9256235,27.966152 23.3046066,28.9289147 C23.7637591,30.1008469 24.405115,31.0373723 25.1412167,32.0504231" id="Fill-1065"></path>
                        <path d="M64.285793,49.1396435 C64.1327422,49.1476604 63.9724032,49.2307452 63.9286744,49.4078469 C63.5496913,50.9354401 63.1342676,52.4229486 62.6532506,53.8776604 C62.2378269,53.6014401 61.8296913,53.3193892 61.3778269,53.1080333 C61.0790133,52.9702875 60.8239286,53.3813384 61.115454,53.5526096 C61.5891828,53.8339316 62.0046066,54.1954231 62.4273184,54.543796 C61.9463015,55.9299994 61.385115,57.2899655 60.7218947,58.625152 C60.7218947,58.5989147 60.7146066,58.5726774 60.7073184,58.5486265 C60.5542676,58.1973384 60.2627422,58.069796 59.9201998,57.9327791 C59.6140981,57.8125248 59.286132,57.7010164 58.9581659,57.722152 C58.74681,57.7345418 58.6739286,58.0668808 58.9071489,58.101135 C59.1622337,58.1412197 59.395454,58.2789655 59.6140981,58.4203553 C59.7452845,58.5056265 59.8691828,58.6032875 59.985793,58.7067791 C60.1242676,58.8277621 60.2481659,58.8649316 60.415793,58.9276096 C60.4813862,58.9516604 60.5324032,58.9465587 60.5834201,58.926152 C60.3501998,59.3780164 60.1096913,59.8284231 59.8473184,60.274457 C59.0966405,61.584135 58.2439286,62.8318638 57.3110472,64.0183723 C56.9685049,63.4396943 56.5749455,62.8843384 56.2324032,62.3049316 C57.9888438,59.6214401 59.3663015,56.6668299 60.3866405,53.6262197 C62.8208777,46.3650503 62.8718947,38.7868469 58.8196913,32.1014401 C58.1929116,31.0752706 57.4932506,30.1168808 56.7352845,29.2124231 C56.7717252,29.2065926 56.8081659,29.2029486 56.8446066,29.1861859 C57.3256235,28.9573384 57.8066405,28.7197452 58.2585049,28.431135 C58.5718947,28.2350842 58.9873184,28.0018638 59.1622337,27.6666096 C60.0149455,28.8042875 60.7729116,30.0046435 61.436132,31.2545587 C60.7947761,31.6510333 60.1898608,32.0868638 59.6724032,32.6553384 C59.6140981,32.7165587 59.7015557,32.7996435 59.7671489,32.7457113 C60.3283354,32.2588638 60.955115,31.9075757 61.6110472,31.5978299 C62.5074879,33.3491689 63.2071489,35.1923384 63.7246066,37.0959994 C63.3674879,37.1360842 63.0176574,37.2060503 62.6386744,37.2978808 C62.1212167,37.4232367 61.7932506,37.5216265 61.4871489,37.9683892 C61.4142676,38.0777113 61.5163015,38.2008808 61.6256235,38.2110842 C62.0847761,38.2497113 62.405454,38.1651689 62.8573184,38.0704231 C63.2508777,37.9866096 63.5715557,37.9137282 63.8922337,37.773796 C64.2129116,39.0572367 64.446132,40.3632706 64.5918947,41.6838808 C64.5408777,41.5847621 64.446132,41.5104231 64.3003693,41.514796 C63.4476574,41.5410333 62.5730811,41.6394231 62.1430811,42.4870333 C61.975454,42.8186435 62.456471,43.1043384 62.6459625,42.7800164 C63.0030811,42.1670842 63.6735896,42.2064401 64.3003693,42.2246604 C64.4752845,42.2297621 64.5846066,42.1255418 64.6283354,41.995813 C64.7595218,43.3003892 64.825115,44.6166265 64.7959625,45.9372367 C64.7740981,47.0289994 64.5044371,48.0799486 64.285793,49.1396435 Z M54.7383354,66.9387282 C54.7383354,66.830135 54.7310472,66.7215418 54.7310472,66.6136774 C54.7237591,66.2419825 54.5634201,65.8877791 54.4978269,65.5211859 C54.4686744,65.3980164 54.2718947,65.3980164 54.2427422,65.5211859 C54.2135896,65.688813 54.1771489,65.8564401 54.1479964,66.0233384 C54.1188438,66.1669147 54.01681,66.2835248 54.0095218,66.4373045 C54.0022337,66.8483553 53.9949455,67.260135 53.9876574,67.6719147 L53.9876574,67.6770164 C53.4774879,68.1696943 52.9527422,68.6521689 52.4134201,69.1149655 C51.6481659,69.7716265 50.8537591,70.3867452 50.0301998,70.958135 C50.205115,70.6833723 50.1103693,70.3597791 50.0812167,70.0223384 C50.0593523,69.7322706 50.0374879,69.4429316 50.0156235,69.152135 C52.2312167,67.4292197 54.126132,65.3542875 55.7295218,63.0534231 C56.006471,63.6802028 56.3052845,64.2989655 56.5676574,64.9308469 C55.9846066,65.6239486 55.3724032,66.2922706 54.7383354,66.9387282 Z M34.3752845,75.9563384 C34.8635896,75.4403384 35.3373184,74.9192367 35.8037591,74.3806435 C36.5325727,74.3442028 37.2686744,74.2793384 37.9901998,74.1794909 C37.9829116,74.3529486 37.9683354,74.5249486 37.9173184,74.6925757 C37.8517252,74.9046604 37.6330811,75.019813 37.4508777,75.1123723 C37.1447761,75.2676096 37.2395218,75.6422197 37.465454,75.782152 C36.445115,75.9016774 35.4101998,75.9607113 34.3752845,75.9563384 Z M28.7707083,75.3404909 C28.9456235,75.1779655 29.1205388,75.0190842 29.2735896,74.8383384 C29.4047761,74.6779994 29.2007083,74.4826774 29.0403693,74.6094909 C28.7779964,74.8186604 28.4281659,74.9994062 28.1147761,75.2136774 C26.1907083,74.8303214 24.3322337,74.366796 22.5612167,73.7458469 C22.4810472,73.6299655 22.3425727,73.5906096 22.2113862,73.6190333 C18.2685049,72.1810842 14.8139286,69.9312367 12.2703693,66.0124062 C9.98918283,62.5046265 8.75019978,58.4261859 7.89019978,54.3652367 C7.68613198,53.3813384 7.48935232,52.3850503 7.30714893,51.3843892 C7.57680995,51.3909486 7.83918283,51.3668977 8.10884385,51.3289994 C8.16714893,51.3202536 8.21816588,51.3085926 8.27647097,51.2940164 C8.41494554,52.4732367 8.64816588,53.6400672 8.99070826,54.7813892 C8.91053876,54.8659316 8.83036927,54.9526604 8.73562351,55.0306435 C8.67003029,55.0918638 8.63358961,55.1173723 8.59714893,55.134135 C8.59714893,55.0415757 8.6117252,54.9468299 8.62630148,54.8586435 C8.64087775,54.7449486 8.46596249,54.7362028 8.43680995,54.833135 C8.37121673,55.0095079 8.36392859,55.1924401 8.30562351,55.3651689 C8.24731842,55.5378977 8.40036927,55.744152 8.58257266,55.7324909 C8.815793,55.7186435 9.0198608,55.583813 9.19477605,55.4278469 C9.37697944,55.9664401 9.58104724,56.5013892 9.80697944,57.0275926 C10.15681,57.8292875 10.535793,58.7235418 10.9512167,59.6192536 C10.6742676,59.8488299 10.3827422,60.0514401 10.0474879,60.1760672 C10.0183354,60.1862706 10.0110472,60.2292706 10.0474879,60.2380164 C10.4337591,60.3364062 10.8127422,60.2518638 11.1698608,60.0689316 C11.4395218,60.626474 11.7310472,61.1803723 12.0444371,61.7058469 C12.1683354,62.1190842 12.3140981,62.5199316 12.4817252,62.9098469 C12.2047761,63.2698808 11.8695218,63.5461011 11.4395218,63.777135 C11.1042676,63.9527791 11.395793,64.4410842 11.7310472,64.2778299 C12.1318947,64.0795926 12.4744371,63.8296096 12.7586744,63.5300672 C13.3927422,64.8244401 14.245454,65.9890842 15.2512167,67.0305587 C15.265793,67.2258808 15.2512167,67.4241181 15.1856235,67.6252706 C15.1346066,67.8111181 15.2293523,67.9080503 15.1127422,68.0946265 C14.9888438,68.2884909 14.7993523,68.4342536 14.6098608,68.5559655 C14.5369794,68.6026096 14.5952845,68.7002706 14.6681659,68.667474 C14.8795218,68.5771011 15.0617252,68.464135 15.2366405,68.3169147 C15.2949455,68.2658977 15.3459625,68.2039486 15.3969794,68.1419994 C15.4844371,68.022474 15.6447761,67.9765587 15.7176574,67.8482875 C15.7613862,67.7695757 15.7905388,67.6806604 15.8196913,67.5895587 C16.4756235,68.2097791 17.1898608,68.7826265 17.9478269,69.3110164 C17.8020642,69.8095248 17.736471,70.3473892 17.525115,70.8065418 C17.4303693,71.0302875 17.7510472,71.227796 17.8603693,71.0018638 C18.0207083,70.6702536 18.1373184,70.3306265 18.2393523,69.977152 C18.2685049,69.8474231 18.3122337,69.7198808 18.3559625,69.5923384 C20.7173184,71.1709486 23.4212167,72.3275757 26.0012167,73.1190672 C29.0986744,74.0708977 32.2544371,74.5103723 35.366471,74.4046943 C34.7907083,74.9039316 34.2440981,75.4228469 33.6901998,75.9446774 C32.5240981,75.9096943 31.3579964,75.7959994 30.1918947,75.5963045 C29.7181659,75.5154062 29.2444371,75.4294062 28.7707083,75.3404909 Z M20.3966405,76.3367791 C19.565793,76.8199825 18.5235896,76.8367452 17.5688438,76.6997282 C17.9915557,75.5700672 18.3559625,74.429474 18.5818947,73.2305757 C18.5891828,73.1992367 18.5818947,73.1693553 18.5673184,73.1445757 C19.5512167,73.6685926 20.5788438,74.116813 21.6429116,74.5081859 C21.3659625,75.2114909 21.1691828,75.8885587 20.3966405,76.3367791 Z M15.695793,84.4674231 C15.4917252,84.2677282 15.265793,84.0898977 15.0325727,83.9281011 C15.0252845,83.7502706 15.0034201,83.5702536 14.9888438,83.393152 C15.1418947,82.8152028 15.5646066,81.9872706 15.6666405,81.7044909 C16.0310472,80.6856096 16.4246066,79.6783892 16.8181659,78.6711689 C16.9639286,78.2965587 17.1096913,77.924135 17.2481659,77.5517113 C18.2612167,77.8330333 19.3179964,77.9336096 20.316471,77.6610333 C18.596471,79.8081181 17.0586744,82.0710842 15.695793,84.4674231 Z M17.3647761,72.4507452 C17.7146066,72.6672028 18.0717252,72.873457 18.4288438,73.0687791 C18.3996913,73.073152 18.3705388,73.0921011 18.3486744,73.131457 C17.9624032,73.8777621 17.6052845,74.636457 17.2481659,75.3980672 C17.1971489,74.4090672 17.1898608,73.409135 17.3647761,72.4507452 Z M6.60019978,43.5336096 C7.21240317,43.664796 7.90477605,43.8455418 8.54613198,43.8346096 C8.49511503,44.1487282 8.43680995,44.4628469 8.39308114,44.7776943 C8.29104724,45.4445587 8.22545402,46.1128808 8.17443707,46.7826604 C8.10884385,46.8198299 8.04325063,46.854813 7.97036927,46.8810503 C7.58409809,47.0158808 7.2998608,46.6740672 7.11036927,46.3891011 C7.03748792,46.2819655 6.87714893,46.3227791 6.8698608,46.4539655 C6.83342012,47.1135418 7.095793,47.7446943 7.83918283,47.7585418 C7.94121673,47.7607282 8.03596249,47.7476096 8.13070826,47.7279316 C8.10155571,48.5609655 8.10884385,49.3932706 8.17443707,50.2212028 C8.07240317,50.2612875 7.97765741,50.3042875 7.88291164,50.3545757 C7.65697944,50.4806604 7.4237591,50.5848808 7.18325063,50.6592197 C6.85528453,48.770135 6.60019978,46.8606435 6.4398608,44.951152 C6.48358961,44.4796096 6.53460656,44.0066096 6.60019978,43.5336096 Z M6.33053876,43.4804062 C6.38155571,43.4898808 6.42528453,43.4978977 6.46901334,43.5073723 C6.4398608,43.8193045 6.41070826,44.1334231 6.38884385,44.4475418 C6.36697944,44.1246774 6.35240317,43.8032706 6.33053876,43.4804062 Z M7.64969131,38.301457 C8.04325063,38.7402028 8.53155571,39.0025757 9.11460656,39.1344909 C9.27494554,39.1709316 9.4498608,39.1869655 9.63206419,39.1855079 C9.25308114,40.4303214 8.94697944,41.694813 8.69918283,42.9673214 C8.02867436,42.9199486 7.29257266,43.1130842 6.63664046,43.2530164 C6.8698608,41.5927791 7.20511503,39.9339994 7.64969131,38.301457 Z M9.20206419,33.7157621 C9.5518947,34.1654401 9.93087775,34.5203723 10.4847761,34.7237113 C10.7325727,34.8140842 11.0022337,34.8490672 11.2646066,34.8621859 C10.7835896,35.9189655 10.3535896,37.0056265 9.9818947,38.1112367 C9.79240317,38.1360164 9.61019978,38.1658977 9.42799639,38.1819316 C8.85223368,38.2344062 8.37850487,38.1651689 7.89019978,37.8269994 C7.86104724,37.8036774 7.8318947,37.7898299 7.79545402,37.7839994 C8.19630148,36.4014401 8.66274215,35.0407452 9.20206419,33.7157621 Z M33.9817252,16.1659316 C39.885115,16.0289147 45.8030811,17.5047621 50.8901998,20.4542706 C50.416471,20.7312197 49.9937591,21.0635587 49.5418947,21.3922536 C49.0390133,21.754474 48.5288438,22.1196096 48.0988438,22.563457 C47.0347761,22.0503723 45.9342676,21.602152 44.8118947,21.2231689 C44.8701998,21.1131181 44.9285049,21.0016096 44.9795218,20.8922875 C45.2856235,20.2866435 45.4459625,19.6248808 45.4240981,18.9470842 C45.41681,18.6511859 45.0086744,18.6643045 44.9722337,18.9470842 C44.9066405,19.6059316 44.615115,20.1678469 44.2434201,20.7035248 C44.1705388,20.8011859 44.0976574,20.8879147 44.0247761,20.9702706 C42.3776574,20.464474 40.6722337,20.1058977 38.9522337,19.8916265 C39.0979964,18.8253723 39.0105388,17.657813 39.1490133,16.672457 C39.1635896,16.5915587 39.0542676,16.5565757 39.025115,16.6382028 C38.7190133,17.5958638 38.3691828,18.7175079 38.2015557,19.8041689 C36.7803693,19.6635079 35.3518947,19.6263384 33.9307083,19.690474 C33.916132,18.6788808 33.9088438,17.6672875 33.9015557,16.6549655 C33.9015557,16.4472536 33.5808777,16.4472536 33.5808777,16.6549655 C33.5735896,17.6731181 33.5590133,18.6919994 33.5517252,19.7108808 C32.145115,19.7910503 30.745793,19.9725248 29.3683354,20.2574909 C29.455793,19.2014401 29.3610472,18.0929147 29.346471,17.0375926 C29.346471,16.7876096 28.9674879,16.7876096 28.9601998,17.0375926 C28.9529116,18.1213384 28.8508777,19.260474 28.9529116,20.3405757 C27.5827422,20.6459486 26.2417252,21.0540842 24.9371489,21.5664401 C25.0100303,20.5839994 24.565454,19.6525757 24.0334201,18.8173553 C23.8803693,18.5797621 23.4576574,18.7291689 23.5596913,19.0155926 C23.8803693,19.9448299 23.9678269,20.925813 24.2301998,21.8645248 C23.326471,22.2522536 22.4446066,22.688813 21.5918947,23.1800333 C21.4971489,23.1122536 21.3805388,23.0714401 21.2493523,23.0073045 C21.0452845,22.9089147 20.8849455,22.7740842 20.7318947,22.6101011 C20.4039286,22.2522536 20.3529116,21.699813 20.3456235,21.2399316 C20.3310472,20.7829655 19.6313862,20.7815079 19.6313862,21.2399316 C19.6313862,21.8543214 19.726132,22.4679825 20.0832506,22.9832536 C20.2363015,23.2033553 20.5059625,23.4773892 20.8047761,23.6574062 C20.5715557,23.8024401 20.3383354,23.9423723 20.1124032,24.0946943 C19.1940981,24.7127282 18.3413862,25.3927113 17.5396913,26.1200672 C17.3574879,26.0129316 17.1534201,25.937135 16.9712167,25.839474 C16.4610472,25.5800164 16.0091828,25.257152 15.586471,24.8781689 C15.3386744,24.6558808 14.9888438,25.0006096 15.2220642,25.2425757 C15.6156235,25.6528977 16.0456235,26.0071011 16.5193523,26.3204909 C16.6724032,26.4247113 16.8327422,26.5384062 17.0003693,26.6309655 C14.8430811,28.7131859 13.1085049,31.1700164 11.7601998,33.8447621 C11.7091828,33.8433045 11.6508777,33.8418469 11.5998608,33.8513214 C11.3083354,33.9008808 11.01681,33.9176435 10.7179964,33.8680842 C10.2369794,33.7871859 9.79969131,33.5437621 9.40613198,33.270457 C9.39884385,33.266813 9.39884385,33.266813 9.39155571,33.2646265 C9.97460656,31.9039316 10.6305388,30.5847791 11.3593523,29.3246604 C11.4249455,29.5841181 11.5707083,29.8180672 11.7529116,30.0345248 C12.1027422,30.4375587 12.576471,30.7895757 13.1085049,30.827474 C13.5020642,30.8551689 13.6259625,30.3654062 13.4073184,30.1125079 C13.1376574,29.8049486 12.7878269,29.7306096 12.4379964,29.5535079 C12.1173184,29.3909825 11.8913862,29.1759825 11.8330811,28.8115757 C11.8185049,28.7452536 11.7893523,28.7015248 11.7529116,28.6709147 C12.2047761,27.9311689 12.6785049,27.2111011 13.1813862,26.5201859 C18.0863015,19.8223892 25.7898608,16.3568808 33.9817252,16.1659316 Z M38.5586744,74.988474 C38.6679964,74.6976774 38.6607083,74.3835587 38.6534201,74.077457 C40.2495218,73.8179994 41.8237591,73.4040333 43.3688438,72.8333723 C43.2813862,73.1460333 43.1429116,73.4033045 42.8149455,73.6102875 C42.4213862,73.8551689 42.7639286,74.4302028 43.1720642,74.2254062 C43.5146066,74.0548638 43.7988438,73.8362197 43.915454,73.4616096 C43.9956235,73.194135 43.966471,72.9018808 43.9300303,72.6212875 C44.7463015,72.2976943 45.5479964,71.9289147 46.3424032,71.5142197 C46.3278269,71.560135 46.3132506,71.6096943 46.3132506,71.6679994 C46.3132506,71.9070503 46.3205388,72.1497452 46.2622337,72.3829655 C46.2039286,72.5841181 46.0071489,72.6970842 45.8395218,72.7925587 C45.5698608,72.9419655 45.5917252,73.2378638 45.7374879,73.4186096 C43.2595218,74.5745079 40.6212167,75.3601689 37.9173184,75.7253045 C38.1942676,75.5416435 38.4493523,75.3135248 38.5586744,74.988474 Z M49.6293523,71.0630842 C49.665793,71.1046265 49.7240981,71.1257621 49.775115,71.1264909 C48.8713862,71.7416096 47.9385049,72.3035248 46.976471,72.8093214 C46.9910472,72.7765248 47.0129116,72.7473723 47.0274879,72.7131181 C47.1586744,72.385152 47.1513862,72.0156435 47.1513862,71.6679994 C47.1513862,71.4267621 46.976471,71.2992197 46.7942676,71.2737113 C47.7563015,70.7482367 48.6600303,70.1593553 49.5273184,69.5209147 C49.5127422,69.687813 49.4981659,69.8554401 49.4908777,70.0223384 C49.4617252,70.4042367 49.3378269,70.7693723 49.6293523,71.0630842 Z M55.2339286,61.5068808 C51.706471,66.9977621 46.3205388,70.8182028 40.0527422,72.5425757 C34.9874879,73.9382536 29.07681,72.8705418 24.2593523,71.063813 C23.6763015,70.8444401 23.1005388,70.5995587 22.5393523,70.3349994 L22.5393523,70.2278638 C22.5393523,69.945813 22.1676574,69.906457 22.0583354,70.1032367 C19.2742676,68.7192197 16.8035896,66.7944231 14.8649455,64.4046435 C14.9888438,64.3784062 15.105454,64.3259316 15.2220642,64.2326435 C15.4844371,64.0285757 15.1418947,63.5869147 14.8722337,63.777135 C14.3037591,64.1823553 13.006471,61.7080333 11.9715557,59.4443384 C12.1829116,59.227152 12.365115,58.9939316 12.5108777,58.7760164 C12.6201998,58.6178638 12.4088438,58.4050503 12.2485049,58.5121859 C12.0735896,58.6324401 11.8986744,58.7723723 11.7383354,58.9188638 C11.1115557,57.5209994 10.6305388,56.3024231 10.535793,56.0422367 C10.3463015,55.5495587 10.1932506,55.0546943 10.0547761,54.5591011 C10.1349455,54.4796604 10.2078269,54.3987621 10.2807083,54.3222367 C10.5649455,54.0438299 10.15681,53.6138299 9.86528453,53.8390333 C9.61748792,52.823796 9.45714893,51.8027282 9.36240317,50.7787452 C9.36969131,50.7780164 9.36969131,50.7758299 9.36969131,50.7751011 C9.7778269,50.5586435 9.63206419,50.0805418 9.30409809,49.9325926 C9.25308114,48.9691011 9.26036927,48.0026943 9.32596249,47.0355587 C9.39884385,46.9706943 9.4717252,46.9058299 9.53731842,46.8438808 C9.80697944,46.596813 9.64664046,46.2491689 9.39155571,46.1245418 C9.56647097,44.3309316 9.89443707,42.5373214 10.3390133,40.7546435 C10.4993523,40.1052706 10.6888438,39.4631859 10.8929116,38.8298469 C10.9585049,38.7846604 11.01681,38.7358299 11.0678269,38.6818977 C11.1917252,38.5587282 11.1917252,38.3451859 11.0969794,38.2088977 C13.6769794,30.7706265 19.1576574,24.6624401 26.7883354,22.1079486 C30.4396913,20.8879147 34.3169794,20.5533892 38.0995218,20.9848469 L38.0995218,21.2399316 C38.10681,21.4542028 38.4056235,21.559152 38.5222337,21.3528977 C38.5732506,21.2566943 38.6169794,21.1568469 38.6607083,21.0540842 C40.2932506,21.273457 41.8966405,21.6327621 43.4635896,22.1261689 C43.5146066,22.2201859 43.6166405,22.2799486 43.7405388,22.2522536 C43.7624032,22.2478808 43.7769794,22.2398638 43.7915557,22.2354909 C53.1203693,25.3088977 60.7073184,33.1341689 60.89681,43.7099825 C61.006132,49.856796 58.5135896,56.3957113 55.2339286,61.5068808 Z M58.7176574,27.1068808 C58.3459625,27.2344231 58.0471489,27.6236096 57.7410472,27.8422536 C57.3401998,28.1213892 56.9101998,28.3480503 56.4874879,28.5739825 C56.4073184,28.6155248 56.3635896,28.6709147 56.3344371,28.7306774 C54.1698608,26.2672875 51.5242676,24.2878299 48.6090133,22.8112536 C49.4981659,22.110135 50.7735896,21.7012706 51.4003693,20.7596435 C52.6466405,21.5154231 53.8418947,22.3601181 54.9642676,23.294457 C53.9074879,23.2558299 53.0693523,23.9744401 52.5956235,24.9138808 C52.4279964,25.2447621 52.9163015,25.5362875 53.0912167,25.206135 C53.5430811,24.365813 54.2718947,23.9321689 55.1974879,23.7492367 C55.2703693,23.7346604 55.3140981,23.6807282 55.3359625,23.6165926 C55.5618947,23.8075418 55.7878269,23.9948469 55.9991828,24.193813 C56.9976574,25.0997282 57.8940981,26.0792536 58.7176574,27.1068808 Z M56.4583354,77.990457 C56.3052845,78.1172706 56.1449455,78.2572028 55.9991828,78.4015079 C55.7659625,78.1733892 55.5327422,77.9496435 55.3359625,77.7266265 C54.5779964,76.8411181 53.9220642,75.8397282 53.3244371,74.8346943 C53.4993523,74.7428638 53.6742676,74.6371859 53.8491828,74.503813 C54.2718947,74.1736604 54.6144371,73.7910333 54.8986744,73.3734231 C55.2485049,74.9323553 55.8096913,76.5240842 56.4583354,77.990457 Z M64.4607083,37.4348977 C64.5627422,37.3109994 64.5263015,37.1105757 64.3659625,37.0697621 C63.8412167,35.0881181 63.0905388,33.1706096 62.1430811,31.3522197 C62.3544371,31.2319655 62.1722337,30.882135 61.9390133,30.9644909 C61.5527422,30.2473384 61.1373184,29.5418469 60.6927422,28.8574909 C56.8300303,22.9081859 50.6496913,18.8384909 43.9008777,16.8903723 C36.7439286,14.8241859 28.6905388,15.1434062 21.9563015,18.4259825 C15.6739286,21.4862706 11.2500303,27.238796 8.69918283,33.6210164 C7.43104724,36.7891689 6.79697944,39.9995926 6.49087775,43.2843553 C6.43257266,43.2952875 6.38155571,43.3054909 6.32325063,43.3156943 C6.28680995,42.5774062 6.25765741,41.8398469 6.25036927,41.1059316 C6.25036927,41.0818808 6.21392859,41.0818808 6.21392859,41.1059316 C6.21392859,41.8464062 6.22121673,42.5883384 6.235793,43.332457 C6.22850487,43.3331859 6.22121673,43.3346435 6.21392859,43.3353723 C6.15562351,43.3455757 6.15562351,43.4490672 6.21392859,43.4599994 C6.22121673,43.4607282 6.22850487,43.4621859 6.235793,43.4636435 C6.25036927,44.2762706 6.27223368,45.0896265 6.30138622,45.9022536 C6.25765741,46.8438808 6.22850487,47.7913384 6.21392859,48.7460842 C6.21392859,48.7694062 6.25036927,48.7694062 6.25036927,48.7460842 C6.25036927,47.9742706 6.27952181,47.1951689 6.32325063,46.413152 C6.63664046,53.5824909 7.78816588,60.6949825 11.7383354,66.9037452 C13.2105388,69.2162706 15.0398608,70.9501181 17.1024032,72.2823892 C16.6286744,73.7866604 16.5995218,75.4607452 16.5120642,77.0167621 L16.5120642,77.0247791 C16.1476574,77.8483384 15.7832506,78.6733553 15.4115557,79.4947282 C15.0107083,80.3809655 13.9101998,82.0849316 13.7279964,83.3960672 C13.436471,83.4937282 13.2396913,83.877813 13.4291828,84.1533045 C13.9174879,84.8646265 14.7774879,84.987796 15.3095218,85.6969316 C15.535454,85.9921011 16.0601998,86.1079825 16.2569794,85.6969316 C17.5979964,82.8654909 19.2378269,80.1790842 20.8339286,77.4795587 C20.965115,77.4241689 21.0963015,77.3636774 21.2201998,77.2929825 C22.0801998,76.814152 22.7215557,75.8674231 22.7944371,74.9068469 C24.2812167,75.3878638 25.8263015,75.7690333 27.3932506,76.0940842 C27.3859625,76.1436435 27.3713862,76.1975757 27.3713862,76.2529655 C27.3495218,76.5022197 27.6556235,76.5605248 27.8086744,76.4344401 C27.8888438,76.3695757 27.9617252,76.2974231 28.0273184,76.2208977 C28.6540981,76.3440672 29.2881659,76.4592197 29.9222337,76.5685418 C37.7788438,77.9190333 45.6646066,75.6436774 51.9105388,70.7424062 C52.8142676,70.0347282 53.6888438,69.269474 54.5415557,68.4568469 C54.5124032,68.5545079 54.4978269,68.6638299 54.5124032,68.7826265 C54.7383354,70.3298977 54.4176574,72.0360503 53.4337591,73.2830503 C52.2093523,74.8295926 50.4674879,74.0847452 49.2722337,72.9463384 C48.9369794,72.6271181 48.4705388,73.1052197 48.7693523,73.4463045 C49.775115,74.5949147 51.1890133,75.4075418 52.5883354,75.1028977 C52.945454,76.2179825 53.5066405,77.169813 54.1990133,78.1325757 C54.7383354,78.8971011 55.4307083,80.085796 56.3490133,80.4443723 C56.4291828,80.5828469 56.5312167,80.7162197 56.6405388,80.859796 C56.6624032,80.8867621 56.6988438,80.8576096 56.6915557,80.828457 C56.6624032,80.7096604 56.6696913,80.6105418 56.6915557,80.5187113 C56.9612167,80.4975757 57.1652845,80.2395757 57.0996913,79.9524231 C57.0559625,79.761474 56.9685049,79.5829147 56.866471,79.4109147 C56.9029116,79.2862875 56.9539286,79.1674909 57.0122337,79.0516096 C57.4203693,79.417474 58.2512167,78.9845587 58.0471489,78.373813 C57.9888438,78.2047282 57.9305388,78.0385587 57.8649455,77.8731181 C57.8940981,77.7193384 57.8285049,77.5677452 57.7118947,77.4664401 C57.0049455,75.7457113 56.0210472,74.1445079 55.5400303,72.3202875 C55.525454,72.2772875 55.5035896,72.2466774 55.4890133,72.213152 C55.9117252,71.0346604 55.9627422,69.7045757 55.7586744,68.440813 C55.685793,68.010813 55.3213862,67.905135 55.0007083,68.014457 C55.7149455,67.3118808 56.4073184,66.5743214 57.0705388,65.8068808 C57.4786744,66.0342706 58.1127422,65.7412875 57.9013862,65.2026943 C57.8722337,65.1145079 57.8285049,65.0285079 57.7920642,64.9432367 C60.1825727,61.9966435 62.1576574,58.6506604 63.3966405,55.1166435 C63.47681,55.1166435 63.5642676,55.1013384 63.6517252,55.0532367 C63.7173184,55.0182536 63.7756235,54.9337113 63.7683354,54.8586435 C63.746471,54.7179825 63.6881659,54.6057452 63.6007083,54.508813 C63.9505388,53.4476604 64.2274879,52.370474 64.4315557,51.2830842 C64.5190133,51.2415418 64.5846066,51.1621011 64.5918947,51.0382028 C64.6939286,48.950152 65.3790133,47.0253553 65.3863015,44.9110672 C65.3935896,42.9199486 65.1676574,40.932474 64.8032506,38.9770672 C64.7085049,38.4588808 64.5918947,37.9450672 64.4607083,37.4348977 L64.4607083,37.4348977 Z" id="Fill-1066"></path>
                        <path d="M9.63206419,12.1487113 C8.29833537,13.0546265 7.00104724,14.0501859 5.805793,15.1470503 C4.98223368,13.5779147 4.945793,11.6319825 6.32325063,10.3259486 C6.86257266,9.8172367 7.64240317,9.55559263 8.37121673,9.71957568 C9.32596249,9.93311805 9.85799639,10.9046265 10.1786744,11.7835757 C9.98918283,11.9060164 9.81426758,12.028457 9.63206419,12.1487113 Z M24.6966405,15.5930842 C25.0829116,15.5253045 25.1266405,15.1310164 24.9517252,14.8737452 C24.4488438,11.6523892 22.9547761,8.70652483 19.3908777,8.39896551 C16.5193523,8.15189772 13.545793,9.64159263 11.0605388,11.2129147 C10.6378269,10.1823723 9.9818947,9.19774517 8.91053876,8.81074517 C7.86833537,8.43686382 6.86257266,8.75244009 6.02443707,9.41857568 C5.14257266,10.1226096 4.68342012,11.262474 4.59596249,12.3637113 C4.50121673,13.5130503 4.95308114,14.4692536 5.63816588,15.2971859 C3.5537591,17.2460333 1.79003029,19.5199316 0.718674357,22.204152 C-1.16166463,26.8933384 0.820708255,31.4046943 4.65426758,34.3119316 C4.74901334,34.3797113 4.85104724,34.236135 4.77087775,34.1603384 C1.27257266,30.6401689 -0.272512084,26.3212197 1.89206419,21.6480672 C3.57562351,18.0156604 6.88443707,15.2089994 10.105793,12.9555079 C10.2952845,12.8206774 10.4920642,12.6873045 10.6888438,12.5546604 C10.9803693,12.6180672 11.3156235,12.4416943 11.3374879,12.1261181 C13.4218947,10.7858299 15.7395218,9.63284687 18.1810472,9.31945704 C21.8105388,8.85155873 23.48681,11.6101181 24.0844371,14.7381859 C14.7993523,16.6826604 9.13647097,25.3766774 5.38308114,33.4162197 C5.33206419,33.5269994 5.49240317,33.6246604 5.55070826,33.5138808 C9.69036927,25.8846604 15.5281659,17.2183384 24.6966405,15.5930842 L24.6966405,15.5930842 Z" id="Fill-1068"></path>
                        <path d="M68.1266405,31.128474 C67.6893523,32.3237282 67.2301998,33.4730672 66.8512167,34.6559316 C66.3920642,33.0365079 65.5393523,31.3740842 64.9781659,30.1205248 C63.6371489,27.1127113 61.8515557,24.314796 59.8108777,21.7326096 C56.4073184,17.4267791 51.0724032,12.8797113 45.1981659,13.4379825 C45.1690133,13.4408977 45.1398608,13.4525587 45.1179964,13.4649486 C45.8540981,11.0635079 47.246132,9.2903045 49.2066405,8.34357568 C49.2139286,8.36398246 49.2212167,8.38366043 49.2285049,8.40479602 C49.4544371,9.11393161 50.5840981,8.80491466 50.3435896,8.09650788 C50.3217252,8.03674517 50.2998608,7.97989772 50.2852845,7.920135 C51.1088438,7.66942314 52.0198608,7.54188077 53.0110472,7.55645704 C56.5530811,7.60893161 60.1315557,9.34788077 62.8281659,11.5547282 C66.8730811,14.8562536 68.476471,19.4973384 68.9939286,24.5487452 C69.2271489,26.8153553 68.9137591,28.9996096 68.1266405,31.128474 Z M70.0142676,22.841135 C69.5696913,19.8216604 68.6586744,17.098813 67.1573184,14.7134062 C67.9225727,14.3985587 68.6222337,14.1806435 69.2781659,13.604152 C69.7446066,13.1901859 69.1979964,11.844796 69.0595218,11.3645079 C68.6732506,10.0329655 67.8059625,8.61760958 66.4212167,8.15335534 C65.736132,7.92450788 65.0874879,7.91721975 64.3805388,8.01706721 C63.3893523,8.15772822 63.1196913,8.39021975 62.9593523,9.35881297 C62.9156235,9.61899941 62.9812167,9.98340619 63.2800303,10.0672197 C63.7173184,10.1903892 63.8849455,9.68677907 64.2930811,9.80921975 C64.3295218,9.81869433 64.3440981,9.77860958 64.3222337,9.75674517 C64.1618947,9.55559263 63.8630811,9.53081297 63.6298608,9.46594856 C63.5278269,9.43825365 63.7683354,8.95286382 63.965115,8.89966043 C64.5408777,8.74660958 65.1385049,8.74660958 65.7142676,8.87998246 C67.4269794,9.27645704 68.046471,11.4067791 68.3015557,12.9853892 C67.7695218,13.3767621 67.1500303,13.5502197 66.5378269,13.7972875 C65.5101998,12.368813 64.2420642,11.0693384 62.7115557,9.91854178 C59.60681,7.58925365 55.5108777,6.05145704 51.5971489,6.38015195 C50.9630811,6.43335534 50.3727422,6.55506721 49.8115557,6.72779602 C48.536132,3.87303331 46.5027422,1.83089772 43.2886744,0.948304495 C39.8340981,-0.00206838631 35.9276574,0.0759146645 32.3637591,0.00667737641 C27.036132,-0.096814149 18.3705388,0.929355343 19.8937591,8.27579602 C19.9156235,8.3822028 20.0978269,8.35960958 20.0832506,8.25101636 C19.3107083,1.26898246 27.6556235,0.765372292 32.6844371,0.924982461 C35.7308777,1.02045704 38.8793523,1.14435534 41.8747761,1.68805026 C45.256471,2.30244009 47.4501998,4.19298246 48.7474879,7.13447399 C46.2840981,8.29547399 44.6296913,10.6349655 43.8498608,13.435796 C43.6385049,14.198135 44.8191828,14.5209994 45.0305388,13.7623045 C45.0378269,13.7258638 45.0524032,13.6930672 45.0596913,13.658813 C45.0815557,13.7083723 45.1252845,13.7506435 45.1981659,13.7601181 C50.9193523,14.5173553 55.365115,18.3013553 58.8852845,22.657474 C60.7874879,25.0078977 62.3398608,27.6447452 63.6371489,30.3697791 C64.2493523,31.6656096 64.7595218,33.0066265 65.1895218,34.3709655 C65.5174879,35.3956774 65.5830811,36.6346604 66.1224032,37.5609825 C66.3410472,37.9443384 67.0407083,37.9137282 67.1208777,37.4312536 C67.1791828,37.1040164 67.1937591,36.7607452 67.1718947,36.4065418 C67.725793,34.3972028 68.6732506,32.5773553 69.4603693,30.632152 C70.466132,28.1235757 70.4078269,25.4765248 70.0142676,22.841135 L70.0142676,22.841135 Z" id="Fill-1069"></path>
                    </g>
                </g>
            </g>
        </g>
    </g>
</svg>