<?xml version="1.0" encoding="UTF-8"?>
<svg width="71px" height="34px" viewBox="0 0 71 34" version="1.1" xmlns="http://www.w3.org/2000/svg" xmlns:xlink="http://www.w3.org/1999/xlink">
    <!-- Generator: sketchtool 41.2 (35397) - http://www.bohemiancoding.com/sketch -->
    <title>40A0A6D6-E7A8-45EE-8BE8-F37465C9F318</title>
    <desc>Created with sketchtool.</desc>
    <defs></defs>
    <g id="Test" stroke="none" stroke-width="1" fill="none" fill-rule="evenodd">
        <g id="Quote-&amp;-Policy-Summary" transform="translate(-422.000000, -1550.000000)" fill="#FF2E5D">
            <g id="Group-19" transform="translate(264.000000, 1196.000000)">
                <g id="Group-15" transform="translate(0.000000, 354.000000)">
                    <g id="Cashback-Icon" transform="translate(158.000000, 0.000000)">
                        <path d="M70.4460269,9.57619835 C70.0991976,6.8814876 69.5368325,3.68942149 70.2344356,1.02280992 C70.2840229,0.834545455 70.1848483,0.685619835 70.0456658,0.609752066 C69.9391658,0.272561983 69.6579833,0 69.1981737,0 C57.7806976,0.0112396694 46.3643483,0.182644628 34.9485626,0.359669421 C29.1614991,0.449586777 23.3747174,0.550743802 17.5873722,0.665950413 C14.7808999,0.72214876 11.9733007,0.750247934 9.16654676,0.82892562 C6.37641581,0.904793388 3.35553485,0.665950413 0.635276917,1.36842975 C0.403399933,1.42743802 0.403399933,1.77586777 0.635276917,1.83487603 C3.17127295,2.48677686 5.96422136,2.27041322 8.563892,2.30975207 C11.3712095,2.35190083 14.1793722,2.33785124 16.9872531,2.33504132 C22.7762888,2.32380165 28.5627888,2.25636364 34.3509793,2.17487603 C45.8991856,2.00909091 57.4479555,1.84892562 68.9972888,1.85173554 C68.166138,3.82710744 68.134019,5.88958678 68.3039118,8.0953719 C68.5149396,10.8322314 68.8490904,13.5100826 68.7609039,16.2581818 C68.6236936,20.5180165 68.2763007,24.7919008 68.2763007,29.0573554 C68.2272769,29.5856198 68.111761,30.0942149 67.9739872,30.6028099 C67.7973325,30.6533884 67.6274396,30.7264463 67.4713523,30.8332231 C67.4048603,30.8781818 67.3366777,30.9343802 67.2727214,30.9990083 C67.2358126,30.9933884 67.2022849,30.9849587 67.1634039,30.9849587 C55.5374356,30.9259504 43.9537293,29.7233058 32.3286063,29.6024793 C27.0855944,29.546281 21.9225983,30.2178512 16.7390349,30.9371901 C14.0706182,31.3052893 11.3923404,31.6087603 8.69884835,31.7127273 C6.53644755,31.7998347 4.37376501,31.6340496 2.21559041,31.6705785 C2.39788009,26.9161983 1.92285628,22.0578512 1.64336422,17.3175207 C1.34809438,12.3186777 1.40557057,7.25801653 0.913641996,2.27884298 C0.891947552,2.0568595 0.535538822,1.96694215 0.493276917,2.22264463 C-0.295330226,6.97140496 0.0689673932,11.9533884 0.188709457,16.7471074 C0.316340409,21.8330579 0.298872155,26.9583471 0.550189615,32.0386777 C0.588788822,32.8198347 1.43487216,33.0249587 1.90228882,32.6596694 C5.98168962,34.3961983 11.2131499,33.6319008 15.4418761,33.1991736 C20.8818285,32.6428099 26.2485269,31.7520661 31.7335587,31.7829752 C43.5564674,31.8532231 55.3371142,33.1092562 67.1634039,33.0923967 C67.3927452,33.0923967 67.580388,33.0277686 67.7322491,32.9294215 C68.0072333,32.9547107 68.2858801,32.9490909 68.5202928,32.946281 C68.9186817,32.946281 69.2984753,32.6709091 69.3979317,32.2803306 C69.4063841,32.2494215 69.4148364,32.2157025 69.4230071,32.1819835 C69.7642015,32.0808264 69.9997412,31.7352066 70.046511,31.3614876 C70.0625706,31.2322314 70.0684872,31.1029752 70.0775031,30.9709091 C70.1000428,30.8894215 70.1138483,30.805124 70.1200468,30.7264463 C70.478146,26.1771901 70.8880864,21.6166942 70.952888,17.0477686 C70.9889515,14.5272727 70.7683444,12.0770248 70.4460269,9.57619835" id="Fill-87"></path>
                        <path d="M38.1210229,5.59735537 C46.2178404,8.15157025 47.4916142,19.006281 41.8845864,24.6036364 C38.6986023,27.7844628 33.9261063,28.0401653 29.7714793,27.0229752 C25.4224476,25.9580165 22.2542134,22.7771901 21.4923722,18.3628099 C20.8674595,14.7380165 22.0389595,10.7844628 24.3430785,7.92677686 C27.980138,4.90892562 33.8390468,4.24578512 38.1210229,5.59735537 Z M32.4987809,3.45619835 C30.1008404,3.23702479 27.5820309,3.93669421 25.657142,5.31636364 C23.6871737,6.37008264 21.9975428,7.85652893 20.8525269,9.75884298 C18.6929436,13.3499174 19.0158245,17.9750413 20.9812849,21.6504132 C21.7834158,23.5667769 23.0771936,25.2695868 24.8155666,26.5761983 C28.5374317,29.377686 34.3859158,30.0099174 38.736638,28.5178512 C46.3888603,25.8905785 48.8428682,16.3761983 45.1562214,9.65487603 C42.699396,5.17586777 37.5583761,3.19487603 32.4987809,3.45619835 L32.4987809,3.45619835 Z" id="Fill-88"></path>
                        <path d="M32.6847333,18.4246281 C32.9459118,18.427438 33.2248404,18.4471074 33.5079952,18.4752066 C33.5206737,19.3771901 33.5327888,20.2763636 33.5454674,21.1755372 C33.555892,21.9201653 33.5429317,22.6844628 33.5609634,23.4431405 C33.2293483,23.5190083 32.8904079,23.5723967 32.5494952,23.6004959 C32.3266341,21.8808264 32.256761,20.1499174 32.2671856,18.4133884 C32.4069317,18.4161983 32.5466777,18.4218182 32.6847333,18.4246281 Z M29.8771341,12.0545455 C30.1394396,11.4785124 30.5054277,10.9727273 30.9367809,10.5259504 C30.7629436,12.3186777 30.7051856,14.1310744 30.6663047,15.9322314 C30.5798087,15.8957025 30.4938761,15.8591736 30.4104793,15.811405 C29.1558642,15.1201653 29.3919674,13.1138843 29.8771341,12.0545455 Z M33.4448841,9.4385124 C33.4496737,9.77008264 33.4544634,10.1044628 33.4538999,10.4360331 C33.4499555,12.2259504 33.4468563,14.0158678 33.4716499,15.8057851 C33.4733404,15.9322314 33.4753126,16.0614876 33.4770031,16.1879339 C33.3189436,16.1795041 33.1594753,16.1710744 32.9983166,16.1682645 C32.7740468,16.1654545 32.5466777,16.1682645 32.3187452,16.1682645 C32.4094674,13.8753719 32.6988206,11.5684298 32.5937293,9.29239669 C32.8106737,9.27272727 33.126511,9.34016529 33.4448841,9.4385124 Z M36.7111658,20.8214876 C36.8588007,21.9510744 35.6433483,22.6254545 34.7800785,23.0328926 C34.6282174,23.1031405 34.4690309,23.1677686 34.3061817,23.2267769 C34.3174515,22.5383471 34.3081539,21.8527273 34.3177333,21.1755372 C34.3295666,20.3269421 34.3408364,19.4727273 34.3526698,18.6213223 C35.4971222,18.8966942 36.5412729,19.517686 36.7111658,20.8214876 Z M28.2128603,22.1252893 C28.0824118,21.7684298 27.555265,21.726281 27.4425666,22.1252893 C26.600146,25.1038017 29.2000983,26.1631405 32.1432174,25.9242975 C32.1806896,25.9945455 32.2153444,26.0676033 32.2547888,26.1378512 C32.4683523,26.5171901 33.0197293,26.2530579 32.9329515,25.8540496 C32.9315428,25.8456198 32.9306976,25.84 32.9290071,25.8315702 C33.2076539,25.7894215 33.4865825,25.7332231 33.7635388,25.668595 C33.7826976,25.7753719 33.7990388,25.8793388 33.8215785,25.9833058 C33.8455269,26.0900826 34.017392,26.0900826 34.0416222,25.9833058 C34.0703603,25.8512397 34.0923364,25.7163636 34.1154396,25.5814876 C36.2854476,25.0054545 38.2692214,23.7971901 38.8267968,22.2095868 C39.3001301,20.8608264 38.8594793,19.4839669 38.0303007,18.3768595 C37.0757452,17.1039669 35.8197214,16.5110744 34.3850706,16.2834711 C34.386761,16.1261157 34.3892968,15.9659504 34.3915507,15.8057851 C34.4160626,14.0158678 34.4129634,12.2259504 34.4093007,10.4360331 C34.4087372,10.2196694 34.4107095,10.0033058 34.4132452,9.78975207 C34.4693126,9.8122314 34.5177729,9.83471074 34.5527095,9.84876033 C35.1528285,10.1100826 36.2955904,10.8996694 35.9293206,11.7257851 C35.9067809,11.7763636 35.9701737,11.8128926 36.0028563,11.7679339 C37.1205428,10.2477686 35.7647809,9.08446281 34.4236698,8.26396694 C34.4157809,7.36760331 34.3622491,6.47123967 34.1517849,5.60016529 C34.0990983,5.38099174 33.7641023,5.38099174 33.7111341,5.60016529 C33.5412412,6.30545455 33.4753126,7.02479339 33.4508007,7.74694215 C33.0960825,7.59801653 32.7585507,7.52214876 32.4201737,7.52214876 C32.3877729,7.31421488 32.3514277,7.10628099 32.3094476,6.89834711 C32.225769,6.48809917 31.5718364,6.49371901 31.4844952,6.89834711 C31.4199753,7.19619835 31.3664436,7.4968595 31.3126301,7.79471074 C31.2523364,7.82561983 31.1945785,7.84809917 31.1334396,7.88181818 C30.1515547,8.41570248 29.2899753,9.1968595 28.6005428,10.065124 C27.1351817,11.9140496 26.8976698,14.3867769 28.0316976,16.4492562 C28.6118126,17.5057851 29.5742571,17.9947107 30.6378483,18.225124 C30.6482729,20.0150413 30.7728047,21.8639669 31.2388126,23.594876 C31.1283682,23.5836364 31.0167968,23.5723967 30.9086063,23.5583471 C30.0137809,23.4206612 28.5458841,23.0413223 28.2128603,22.1252893 L28.2128603,22.1252893 Z" id="Fill-89"></path>
                        <path d="M6.31724914,5.99917355 C6.24399517,6.03008264 6.17750311,6.07785124 6.13045152,6.14247934 C6.04761819,6.25487603 5.97267374,6.37008264 5.90054676,6.48528926 C5.89688406,6.43471074 5.89209438,6.38694215 5.88927692,6.33636364 C5.86363803,5.90363636 5.3260666,5.7631405 5.09616184,6.06942149 C5.07446739,5.83338843 5.04826501,5.59735537 5.01868168,5.36132231 C5.40523723,5.70132231 5.84504279,5.89520661 6.31724914,5.99917355 Z M7.77331263,6.11157025 C7.68653485,6.17338843 7.59778485,6.23239669 7.51326104,6.29983471 C7.42563803,6.28297521 7.3354793,6.29421488 7.26138009,6.33636364 C7.15741581,6.29140496 7.05908644,6.23801653 6.97456263,6.16495868 C6.913142,6.11157025 6.84383247,6.09190083 6.77874914,6.10033058 C6.77142374,6.08909091 6.76240787,6.08066116 6.75367374,6.0722314 C7.08416184,6.10876033 7.42648327,6.11719008 7.77331263,6.11157025 Z M6.04367374,7.99421488 C6.04311025,7.98859504 6.04198327,7.98297521 6.04141977,7.97454545 C6.10678485,7.78347107 6.18257454,7.59239669 6.27329676,7.40413223 C6.28315787,7.46033058 6.29330073,7.51371901 6.3023166,7.56710744 C6.20708644,7.70760331 6.12284438,7.84809917 6.04367374,7.99421488 Z M9.11160628,6.27735537 C8.93100708,6.32512397 8.74899914,6.36727273 8.56896342,6.40099174 C8.56980866,6.3785124 8.57178089,6.35884298 8.57262612,6.33636364 C8.57488009,6.24082645 8.53656263,6.15371901 8.47852295,6.08347107 C8.69264993,6.0722314 8.90649517,6.05818182 9.12034041,6.04132231 C9.11893168,6.12 9.11498723,6.19867769 9.11160628,6.27735537 Z M13.9246737,4.34694215 C12.3297095,4.36942149 10.7522134,4.70099174 9.1741539,4.90330579 C7.92151104,5.06628099 6.22455469,5.30231405 4.96317771,4.94545455 C4.96261422,4.93983471 4.96176898,4.93421488 4.96120549,4.93140496 C4.93246739,4.74033058 4.6050785,4.74033058 4.57577692,4.93140496 C4.35066184,6.41785124 4.33854676,7.93239669 4.2788166,9.43289256 C4.2145785,11.0457851 3.83337612,13.0155372 4.39714993,14.5553719 C4.53069755,14.9206612 5.00628485,14.9206612 5.14011422,14.5553719 C5.16575311,14.485124 5.18801104,14.414876 5.20970549,14.3418182 C5.32014993,14.3895868 5.45341581,14.4036364 5.60612216,14.3530579 C10.054892,12.8919008 12.112765,9.01702479 14.476896,5.30512397 C14.7369476,4.89768595 14.3980071,4.3385124 13.9246737,4.34694215 L13.9246737,4.34694215 Z" id="Fill-90"></path>
                        <path d="M10.4707491,29.3973554 C10.4859634,29.3242975 10.4735666,29.2484298 10.4352491,29.1838017 L10.5783761,29.1838017 C10.6730428,29.2343802 10.7663007,29.2877686 10.8584317,29.3439669 C10.726011,29.3664463 10.5964079,29.3861157 10.4707491,29.3973554 Z M6.04226501,29.0039669 C6.15383644,29.0433058 6.27921342,29.0292562 6.37726104,28.9084298 C6.43811819,28.8353719 6.50038406,28.762314 6.56208644,28.6920661 C6.60941977,28.765124 6.65590787,28.8381818 6.70718565,28.9112397 C6.72859835,28.9421488 6.75311025,28.9702479 6.77903089,28.9955372 L6.77564993,28.9955372 C6.66436025,29.001157 5.88223327,29.1219835 6.09495152,29.3636364 C6.12763406,29.4001653 6.185392,29.3523967 6.16200708,29.3130579 C6.13946739,29.2709091 6.58688009,29.3608264 6.63703089,29.3636364 C6.86749914,29.3720661 7.09768565,29.3945455 7.32759041,29.4170248 C6.90102692,29.408595 6.47474517,29.3973554 6.04846342,29.3973554 C6.04592771,29.2652893 6.04423723,29.1332231 6.04226501,29.0039669 Z M10.7603841,27.8743802 C10.763765,27.88 10.7682729,27.8828099 10.7716539,27.8884298 C10.767146,27.8884298 10.7623563,27.8856198 10.7572849,27.8828099 C10.7584118,27.88 10.7592571,27.8771901 10.7603841,27.8743802 Z M9.37053089,25.8568595 C9.36855866,25.84 9.36743168,25.8259504 9.36545946,25.8119008 C9.37222136,25.8119008 9.37926501,25.8119008 9.38630866,25.8090909 C9.39701501,25.8231405 9.40659438,25.8371901 9.41701898,25.8540496 C9.40152295,25.8540496 9.38630866,25.8540496 9.37053089,25.8568595 Z M6.82129279,23.257686 C6.9835785,23.5752066 7.14755469,23.867438 7.3244912,24.1428099 C7.17544755,24.0753719 7.00273723,24.0697521 6.86468168,24.1596694 C6.81847533,24.0135537 6.76240787,23.867438 6.70887612,23.7213223 C6.74127692,23.5639669 6.7779039,23.4094215 6.82129279,23.257686 Z M5.78925708,21.8723967 C5.77826898,21.7403306 5.76699914,21.6082645 5.75488406,21.4733884 C5.848142,21.5127273 5.9399912,21.5492562 6.03155866,21.5857851 C5.91604279,21.6166942 5.81799517,21.7122314 5.78925708,21.8723967 Z M8.57910628,22.948595 C8.55262216,22.9120661 8.52557454,22.8783471 8.49824517,22.8446281 C8.5529039,22.881157 8.60728089,22.917686 8.66109438,22.9542149 C8.63376501,22.951405 8.60643565,22.948595 8.57910628,22.948595 Z M7.71696342,25.3426446 C7.68794358,25.1009917 7.66484041,24.8565289 7.65244358,24.6120661 C7.78514596,24.786281 7.92883644,24.9520661 8.08689596,25.1150413 C7.9353166,25.1347107 7.79162612,25.2161983 7.71696342,25.3426446 Z M8.45091184,28.1441322 L8.05195946,28.1441322 C8.08858644,28.0907438 8.12549517,28.0373554 8.16212216,27.9839669 C8.25763406,28.0373554 8.35342771,28.0935537 8.45091184,28.1441322 Z M9.6534039,26.8543802 C9.72637612,26.86 9.79878485,26.8684298 9.8700666,26.8852893 C10.0520745,26.9302479 10.0196737,27.1747107 9.91458247,27.4557025 C9.82386025,27.2561983 9.73511025,27.0566942 9.6534039,26.8543802 Z M12.1491103,25.0166942 C11.7309991,24.4294215 11.2740071,23.8646281 10.7708087,23.3335537 C9.87711025,22.3922314 8.47993168,21.3581818 7.06162216,21.0575207 C6.95005073,21.0013223 6.82918168,20.9816529 6.71253882,21.0013223 C6.3555666,20.9563636 6.0005666,20.9647934 5.65345549,21.0378512 C5.50328485,20.8692562 5.19026501,20.9282645 5.16152692,21.217686 C4.871892,24.1371901 4.89414993,27.0763636 4.83413803,30.0099174 C4.82709438,30.3499174 5.11841977,30.6112397 5.44693565,30.6196694 C7.21996342,30.667438 8.99749914,30.7404959 10.7696817,30.6365289 C11.5875904,30.5859504 12.874888,30.5803306 13.5093801,29.953719 C13.9142491,29.9818182 14.3585626,29.6614876 14.2044476,29.1641322 C13.9784872,28.4307438 13.692515,27.7282645 13.3594912,27.0510744 C13.0461896,26.3233058 12.6407571,25.6264463 12.1491103,25.0166942 L12.1491103,25.0166942 Z" id="Fill-91"></path>
                        <path d="M19.8959991,6.10033058 C19.8889555,6.08628099 19.8816301,6.0722314 19.8734595,6.05818182 C19.905015,6.04694215 19.9360071,6.03289256 19.9678444,6.02165289 C19.9433325,6.04694215 19.9202293,6.07504132 19.8959991,6.10033058 Z M18.6887174,27.2842975 C18.8352253,27.3601653 18.9803245,27.4416529 19.1290864,27.5147107 C18.9352452,27.4753719 18.7461936,27.4135537 18.5630587,27.334876 C18.6047571,27.3180165 18.6461737,27.301157 18.6887174,27.2842975 Z M17.4780547,26.5958678 C17.5279237,26.6267769 17.5789198,26.654876 17.6293523,26.6857851 C17.6239991,26.6970248 17.6180825,26.7054545 17.613011,26.7166942 C17.5670864,26.6773554 17.5225706,26.6380165 17.4780547,26.5958678 Z M15.9039396,24.4041322 C15.8937968,24.412562 15.8850626,24.4181818 15.8752015,24.4266116 C15.8670309,24.4097521 15.859142,24.3928926 15.8515349,24.378843 C15.8690031,24.3872727 15.8864714,24.3957025 15.9039396,24.4041322 Z M15.2083087,17.2247934 C15.1914039,17.2304132 15.1747809,17.2332231 15.1578761,17.238843 C15.1201222,17.0618182 15.0815229,16.8876033 15.0482769,16.7133884 C15.0460229,16.7021488 15.043769,16.6880992 15.0412333,16.6740496 C15.0998364,16.5026446 15.1584396,16.3340496 15.2170428,16.1626446 C15.2068999,16.5166942 15.204646,16.8707438 15.2083087,17.2247934 Z M25.1147809,3.57421488 C23.9210229,3.60512397 22.8354555,3.9507438 21.8614595,4.51834711 C20.3701777,4.42280992 18.9352452,5.00165289 17.6964079,5.88115702 C17.5031301,5.72942149 17.2230745,5.67603306 17.0131737,5.81933884 C15.3435468,6.96297521 14.423646,8.6292562 13.9770785,10.4697521 C13.7561896,10.981157 13.5733364,11.5094215 13.4257015,12.0489256 C13.3893563,12.1219835 13.3516023,12.1922314 13.3172293,12.2680992 C13.2769396,12.3552066 13.2786301,12.445124 13.3048325,12.5209917 C12.9675825,13.9624793 12.8669991,15.4629752 12.9396896,16.9381818 C13.1028206,20.2510744 13.6009476,24.2158678 15.7827888,26.86 C16.6198563,27.8715702 17.7907928,28.8690909 19.1609237,28.9786777 C20.6927769,29.102314 22.1767333,28.4391736 23.6111023,27.9980165 C24.1709317,27.8266116 24.3681539,26.9752066 23.7829674,26.6829752 C20.6000825,25.0981818 18.5861618,22.4006612 17.7860031,19.2310744 C17.8355904,19.1580165 17.8832055,19.0849587 17.9353285,19.0147107 C18.0919793,18.7927273 17.8691182,18.5201653 17.633015,18.531405 C17.4850983,17.7642975 17.4101539,16.9719008 17.4002928,16.1654545 C17.4972134,15.1679339 17.6183642,14.1704132 17.6837293,13.1757025 C18.0643682,11.3717355 18.8155031,9.65487603 19.8633166,8.13471074 C21.2554237,6.11719008 23.1191737,4.9538843 25.143519,3.67818182 C25.1905706,3.65008264 25.1736658,3.57140496 25.1147809,3.57421488 L25.1147809,3.57421488 Z" id="Fill-92"></path>
                        <path d="M58.2131777,8.17123967 C58.0849833,8.44661157 58.246142,8.7107438 58.4875983,8.81471074 C58.4087095,8.91867769 58.3298206,9.01983471 58.2509317,9.12661157 C58.2227571,9.1631405 58.2041618,9.20247934 58.1897928,9.24181818 C57.9993325,8.94677686 57.821269,8.6461157 57.6536301,8.33983471 C57.8404277,8.28363636 58.029761,8.23024793 58.2131777,8.17123967 Z M62.2925785,5.90363636 C62.1615666,5.83619835 61.9970269,5.82214876 61.8212174,5.89801653 C61.673019,5.96545455 61.5327095,6.03570248 61.3954991,6.10876033 C61.3698603,6.10595041 61.3445031,6.10033058 61.3185825,6.09471074 C61.2411023,6.01322314 61.1565785,5.94016529 61.0630388,5.87834711 C61.1007928,5.81371901 61.122769,5.74347107 61.1300944,5.67041322 C61.5293285,5.6985124 61.9285626,5.72099174 62.328642,5.73504132 C62.3159634,5.79123967 62.3044118,5.84743802 62.2925785,5.90363636 Z M63.1981103,6.01041322 C63.1879674,5.9261157 63.178388,5.8446281 63.1682452,5.76033058 C63.1967015,5.76033058 63.2254396,5.76033058 63.2541777,5.7631405 C63.2358642,5.8446281 63.2178325,5.92892562 63.1981103,6.01041322 Z M63.4522452,12.9621488 C63.4674595,12.9340496 63.482392,12.9059504 63.4911261,12.8722314 C63.6367888,12.3186777 63.798511,11.7707438 63.9661499,11.2228099 C63.9853087,11.2031405 64.0070031,11.1834711 64.0278523,11.1638017 C64.0264436,11.9280992 64.0258801,12.6923967 64.0244714,13.4595041 C63.8368285,13.428595 63.6559476,13.3892562 63.4781658,13.3471074 C63.4742214,13.2122314 63.463515,13.0829752 63.4522452,12.9621488 Z M61.7668404,12.2203306 C61.780646,12.3889256 61.7998047,12.5575207 61.8217809,12.7261157 C61.619769,12.6193388 61.4239555,12.5013223 61.2329317,12.374876 C61.4143761,12.3242975 61.5921579,12.273719 61.7668404,12.2203306 Z M61.8863007,7.08380165 C61.8893999,7.08661157 61.8924991,7.08661157 61.8958801,7.08661157 C61.8933444,7.08942149 61.8910904,7.08942149 61.8885547,7.0922314 C61.8877095,7.08942149 61.887146,7.08661157 61.8863007,7.08380165 Z M61.6623126,9.30082645 C61.5127055,9.36826446 61.3636618,9.43289256 61.2118007,9.50033058 C61.2633603,9.3907438 61.3183007,9.28677686 61.3769039,9.18561983 C61.4673444,9.1322314 61.5552491,9.07322314 61.6437174,9.01421488 C61.6513245,9.10975207 61.6566777,9.20528926 61.6623126,9.30082645 Z M63.6877849,7.35917355 C63.7038444,7.34793388 63.7199039,7.3338843 63.7339912,7.31983471 C63.7590666,7.29735537 63.7835785,7.27487603 63.8083722,7.25239669 C63.8478166,7.47719008 63.8810626,7.70198347 63.9100825,7.92396694 C63.8943047,7.92958678 63.8785269,7.93239669 63.8630309,7.94082645 C63.7004634,8.01107438 63.5440944,8.08975207 63.3899793,8.17123967 C63.3795547,7.99983471 63.3696936,7.82561983 63.3567333,7.65140496 C63.4677412,7.55586777 63.5779039,7.45752066 63.6877849,7.35917355 Z M63.4536539,9.47504132 C63.5362055,9.42446281 63.6190388,9.37107438 63.7004634,9.31487603 C63.6249555,9.54809917 63.5477571,9.7785124 63.4733761,10.0117355 C63.4685864,9.83190083 63.4598523,9.65206612 63.4536539,9.47504132 Z M61.7166896,11.2115702 C61.5946936,11.253719 61.4715706,11.2930579 61.3467571,11.3295868 C61.4591737,11.152562 61.5814515,10.9867769 61.7079555,10.8238017 C61.7104912,10.9530579 61.7130269,11.082314 61.7166896,11.2115702 Z M60.7683325,7.7722314 C60.9661182,7.65140496 61.1599595,7.52495868 61.3557729,7.3985124 C61.3707055,7.44628099 61.3822571,7.49404959 61.3960626,7.54181818 C61.1213603,7.82 60.8714515,8.12066116 60.6584515,8.44942149 C60.377269,8.59553719 60.0870706,8.71355372 59.7836301,8.78942149 C60.0927055,8.4185124 60.4150229,8.0785124 60.7683325,7.7722314 Z M58.6831301,6.48528926 C58.9150071,6.53586777 59.1482928,6.58644628 59.3818603,6.63140496 C59.0141817,6.81966942 58.6284714,6.97140496 58.2340269,7.10909091 C58.4343483,6.81966942 58.6073404,6.57520661 58.6831301,6.48528926 Z M59.0096737,10.3433058 C58.8761261,10.1887603 58.7513126,10.031405 58.6298801,9.87123967 C58.6484753,9.87404959 58.6673523,9.88247934 58.6859476,9.88247934 C59.1632253,9.92743802 59.6114833,9.8768595 60.038892,9.76727273 C59.9873325,9.92743802 59.9405626,10.0932231 59.9033722,10.2618182 C59.8188483,10.6495868 60.1324317,10.9249587 60.4761618,10.8687603 C60.3510666,11.0738843 60.2344237,11.2846281 60.124261,11.5009917 C59.7427769,11.152562 59.3745349,10.7647934 59.0096737,10.3433058 Z M55.8434118,4.86115702 C55.7464912,4.69818182 55.4312174,4.70099174 55.4002253,4.92016529 C55.0669198,7.25520661 56.5345349,9.90495868 57.8764912,11.7117355 C59.365519,13.7180165 61.8513642,15.4910744 64.4507531,15.3927273 C65.1258166,15.367438 65.4154515,14.8447934 65.3475507,14.3558678 C65.5134991,14.2912397 65.6619793,14.1591736 65.7479118,13.9456198 C66.2435031,12.7204959 66.0203603,11.2256198 66.0257134,9.91900826 C66.0316301,8.27520661 65.9752809,6.62859504 65.9434436,4.98198347 C65.9349912,4.54644628 65.5797095,4.1614876 65.1289158,4.17272727 C63.6252372,4.20082645 62.1224039,4.22049587 60.6187253,4.19801653 C60.2631618,4.19239669 57.1515587,4.61107438 57.0151936,4.29355372 C57.0016698,4.26264463 56.9574356,4.28512397 56.9627888,4.31603306 C57.0323801,4.68975207 57.4259793,4.94264463 57.8649396,5.1168595 C57.8088722,5.15619835 57.7522412,5.19553719 57.6956103,5.23487603 C57.5736142,5.23487603 57.4516182,5.23206612 57.3296222,5.23206612 C57.0811222,5.23206612 56.9475745,5.39785124 56.9239079,5.58330579 C56.9086936,5.5861157 56.8943245,5.59173554 56.8785468,5.59173554 C56.4669158,5.66198347 56.5074872,6.20710744 56.8137452,6.37008264 C56.8269872,6.45157025 56.8884079,6.5246281 56.9903999,6.52181818 C57.1808603,6.51338843 57.3665309,6.49090909 57.5491023,6.46280992 C57.3693483,6.69603306 57.1983285,6.94049587 57.0436499,7.15966942 C56.6621658,6.38694215 56.2899793,5.61140496 55.8434118,4.86115702 L55.8434118,4.86115702 Z" id="Fill-93"></path>
                        <path d="M63.4787293,20.6809917 C63.4488642,20.874876 63.4201261,21.0715702 63.393642,21.2682645 C63.3144714,21.1952066 63.2045904,21.1558678 63.094146,21.1558678 C63.0014515,21.1558678 62.9098841,21.1839669 62.8360666,21.2373554 C62.7084356,21.08 62.5036063,20.978843 62.2694753,21.0238017 C62.2077729,21.0378512 62.1435349,21.0519008 62.0770428,21.0687603 C62.560519,20.9029752 63.0327253,20.773719 63.4787293,20.6809917 Z M63.5119753,28.5178512 L63.5119753,28.1975207 C63.5274714,28.1919008 63.5432491,28.186281 63.5593087,28.1806612 C63.5872015,28.2902479 63.6145309,28.3970248 63.6460864,28.5038017 C63.6010071,28.5094215 63.5564912,28.5122314 63.5119753,28.5178512 Z M56.7182333,27.2365289 C56.7083722,27.3433058 56.6962571,27.4500826 56.6847055,27.5540496 C56.665265,27.5765289 56.6449793,27.5961983 56.6255388,27.6158678 C56.4683245,27.7957025 56.4519833,28.0204959 56.5348166,28.1975207 C56.4426856,28.2171901 56.3694317,28.2621488 56.3150547,28.321157 C56.2671579,28.3099174 56.2198245,28.3014876 56.1722095,28.2902479 C56.3739396,27.9502479 56.5545388,27.5990083 56.7182333,27.2365289 Z M58.5016856,23.2183471 C58.070896,23.7634711 57.839019,24.3816529 57.9714396,25.0419835 C57.9348126,25.1656198 57.8987491,25.2892562 57.8604317,25.4100826 L57.8581777,25.4100826 C57.7880229,25.4241322 57.7277293,25.4494215 57.675888,25.4831405 C57.7471698,24.8790083 57.8539515,24.2804959 58.0568087,23.6904132 C58.1083682,23.5386777 58.0734317,23.4178512 57.9956698,23.3335537 C58.1937372,23.1677686 58.3991301,23.0104132 58.6110031,22.8558678 C58.5732491,22.9766942 58.5380309,23.0975207 58.5016856,23.2183471 Z M59.1761856,22.5383471 C59.1522372,22.5299174 59.1288523,22.5214876 59.1037769,22.5186777 C59.2807134,22.4034711 59.4607491,22.2938843 59.6427571,22.1871074 C59.4810349,22.2966942 59.3243841,22.4147107 59.1761856,22.5383471 Z M62.6782888,22.4990083 C62.647015,22.6029752 62.6247571,22.7041322 62.5968642,22.8080992 C62.4464118,22.813719 62.2968047,22.8109091 62.1471976,22.8080992 C62.1539595,22.6507438 62.1587491,22.4961983 62.1615666,22.3360331 C62.3311777,22.234876 62.5024793,22.133719 62.6791341,22.0381818 C62.6788523,22.1927273 62.6782888,22.3444628 62.6782888,22.4990083 Z M61.6099079,28.1581818 C61.532146,27.8097521 61.4893206,27.4528926 61.4774872,27.0904132 C61.6239952,27.1044628 61.7707849,27.1185124 61.9184198,27.1297521 C61.8462928,27.4697521 61.7688126,27.812562 61.6879515,28.152562 C61.6617491,28.152562 61.6361103,28.1581818 61.6099079,28.1581818 Z M62.4661341,28.5347107 C62.5157214,28.5234711 62.5650269,28.5094215 62.6146142,28.492562 C62.6253206,28.5347107 62.6371539,28.5740496 62.6484237,28.6133884 C62.579396,28.6218182 62.5103682,28.6330579 62.4413404,28.6386777 C62.449511,28.6021488 62.4576817,28.5684298 62.4661341,28.5347107 Z M59.4751182,25.025124 C59.4632849,25.0279339 59.450888,25.0335537 59.4384912,25.0363636 C59.4379277,24.7047934 59.437646,24.3760331 59.437646,24.0472727 C59.5125904,23.9123967 59.592888,23.7775207 59.685019,23.6482645 C59.7354515,23.6932231 59.7934912,23.732562 59.8574476,23.7578512 C59.6976976,24.1709091 59.5655587,24.5952066 59.4751182,25.025124 Z M59.6441658,27.778843 C59.7664436,28.0401653 60.1138364,28.1947107 60.3437412,27.9446281 C60.4581301,27.8181818 60.5626579,27.6889256 60.6635229,27.5596694 C60.6807095,27.7619835 60.7069118,27.9614876 60.7429753,28.1609917 C60.7350864,28.1609917 60.7283245,28.1581818 60.7207174,28.1581818 C60.3313444,28.1328926 59.9515507,28.0682645 59.5754198,27.9839669 C59.5982412,27.9165289 59.6213444,27.846281 59.6441658,27.778843 Z M58.1666896,27.6495868 C58.3106618,27.5568595 58.4594237,27.4781818 58.6098761,27.4079339 C58.6095944,27.5231405 58.6095944,27.6383471 58.6095944,27.7535537 C58.4622412,27.7170248 58.314888,27.6804959 58.1666896,27.6495868 Z M60.6973325,25.8456198 C60.6908523,25.8596694 60.6826817,25.873719 60.6762015,25.8877686 C60.6305587,25.8821488 60.5851976,25.8765289 60.5395547,25.8680992 C60.5947769,25.8484298 60.6477452,25.8259504 60.7021222,25.8034711 C60.7012769,25.8175207 60.6987412,25.8315702 60.6973325,25.8456198 Z M60.9604833,23.8505785 C60.9771063,23.8533884 60.9937293,23.8533884 61.0100706,23.8533884 C60.9694991,24.0697521 60.9300547,24.2833058 60.8923007,24.4996694 C60.8345428,24.5249587 60.7759396,24.5502479 60.7176182,24.5755372 C60.7984793,24.3338843 60.8793404,24.0922314 60.9604833,23.8505785 Z M62.2077729,25.6489256 C62.1857968,25.772562 62.1593126,25.8961983 62.1364912,26.0198347 C61.9409595,26.0001653 61.7465547,25.9861157 61.5521499,25.974876 C61.6338563,25.7641322 61.7057015,25.5505785 61.7682491,25.331405 C61.9232095,25.2527273 62.0761976,25.1712397 62.2272134,25.0841322 C62.2176341,25.2723967 62.2069277,25.4606612 62.2077729,25.6489256 Z M56.3150547,25.1880992 C56.5094595,24.8846281 56.7303483,24.5952066 56.9760309,24.3170248 C56.5396063,25.567438 56.1372729,26.8712397 55.4686896,28.0092562 C55.4661539,27.8996694 55.4653087,27.7900826 55.4703801,27.6833058 C55.6236499,26.8122314 55.9000428,25.9692562 56.3150547,25.1880992 Z M54.1864634,27.9895868 C53.9717729,28.0598347 53.8742888,28.2902479 53.9819158,28.4897521 C54.1168722,28.7426446 54.3394515,28.9393388 54.6121817,29.0995041 C54.607392,29.1753719 54.6014753,29.2540496 54.5983761,29.3327273 C54.5854158,29.6418182 54.999019,29.8104132 55.2089198,29.5856198 C55.2621698,29.5294215 55.3120388,29.4704132 55.3627531,29.4142149 C56.3395666,29.7064463 57.5530468,29.7457851 58.2768523,29.8328926 C59.3181856,29.953719 60.3769872,29.9958678 61.4318444,29.9565289 C61.6099079,30.1447934 61.9223642,30.1195041 62.0745071,29.9228099 C62.9293245,29.8638017 63.7796341,29.751405 64.6136023,29.5856198 C64.9136618,29.5238017 65.1621618,29.1276033 65.0418563,28.832562 C64.3476341,27.1353719 64.2918483,25.3538843 64.2405706,23.5639669 C64.3989118,23.3560331 64.3608761,23.1115702 64.2216936,22.9345455 C64.1943642,22.1112397 64.1529476,21.285124 64.033769,20.467438 C63.9974237,20.2201653 63.5956539,20.2145455 63.5232452,20.4365289 C59.5821817,20.197686 54.497511,23.8028099 54.3628364,27.947438 C54.3047968,27.9586777 54.2470388,27.9699174 54.1864634,27.9895868 L54.1864634,27.9895868 Z" id="Fill-94"></path>
                        <path d="M45.2568047,6.36165289 C45.3683761,6.3953719 45.4760031,6.44033058 45.5856023,6.47966942 C45.9679317,7.12033058 46.3311023,7.76661157 46.6711698,8.41570248 C46.2107968,7.70479339 45.7013999,7.01917355 45.1872134,6.33917355 C45.2105983,6.34760331 45.2334198,6.35322314 45.2568047,6.36165289 Z M52.0226539,19.0231405 C52.0463206,18.9866116 52.0733682,18.9472727 52.0961896,18.9079339 C52.0767491,19.0147107 52.0561817,19.1214876 52.0344872,19.2310744 C52.0308245,19.1608264 52.0265983,19.0933884 52.0226539,19.0231405 Z M48.5732372,25.0532231 C48.5360468,25.2583471 48.5061817,25.466281 48.4870229,25.6770248 C48.3636182,25.7613223 48.236269,25.84 48.1066658,25.9186777 C48.2712055,25.634876 48.429265,25.3454545 48.5732372,25.0532231 Z M51.4647968,11.9814876 C51.3498444,11.5880992 51.2233404,11.1975207 51.0757055,10.812562 C51.0630269,10.7732231 51.0497849,10.7366942 51.0371063,10.6973554 C51.2092531,11.0429752 51.3743563,11.3942149 51.5197372,11.7566942 C51.9708126,12.8806612 52.1277452,13.9793388 52.0339237,15.0442975 C52.0705507,14.0552066 51.8271222,13.021157 51.4647968,11.9814876 Z M45.3664039,27.6467769 C47.8598563,28.3155372 50.2200428,26.2614876 51.4904356,24.3366942 C53.1961261,21.7543802 53.8373801,18.4330579 53.8201936,15.3814876 C53.7866658,9.50033058 50.2910428,3.0768595 43.6221142,4.21487603 C43.6184515,4.2092562 43.6150706,4.20363636 43.6111261,4.19801653 C43.4857491,4.0153719 43.2316142,4.11371901 43.2155547,4.28793388 C42.4424436,4.47619835 42.6151539,5.80809917 43.4263007,5.70975207 C43.5818245,5.69008264 43.7365031,5.67603306 43.8900547,5.66198347 C43.888646,5.7153719 43.9078047,5.77157025 43.9531658,5.81090909 C44.0221936,5.87272727 44.0940388,5.92049587 44.1664476,5.96545455 C45.1080428,7.49966942 46.0699237,9.01983471 46.7165309,10.711405 C47.5003483,12.7654545 47.5538801,15.0077686 47.4761182,17.1742149 C47.4048364,19.1608264 47.2625547,21.1530579 46.936011,23.1143802 C46.8061261,23.8927273 46.6277809,24.6654545 46.3564595,25.4072727 C46.1093682,26.0844628 45.8619952,26.0507438 45.3168166,26.382314 C45.1996103,26.4553719 45.1635468,26.5733884 45.1858047,26.7026446 C45.2049634,26.8122314 45.2382095,26.9105785 45.2776539,27.0004959 C45.0268999,27.1409917 45.0649356,27.5652893 45.3664039,27.6467769 L45.3664039,27.6467769 Z" id="Fill-95"></path>
                    </g>
                </g>
            </g>
        </g>
    </g>
</svg>