<?xml version="1.0" encoding="UTF-8"?>
<svg width="18px" height="15px" viewBox="0 0 18 15" version="1.1" xmlns="http://www.w3.org/2000/svg" xmlns:xlink="http://www.w3.org/1999/xlink">
    <!-- Generator: sketchtool 41.2 (35397) - http://www.bohemiancoding.com/sketch -->
    <title>FF4DC79A-417F-4352-8CFA-1F1D8D70E93A</title>
    <desc>Created with sketchtool.</desc>
    <defs></defs>
    <g id="Test" stroke="none" stroke-width="1" fill="none" fill-rule="evenodd">
        <g id="Quote-&amp;-Policy-Summary" transform="translate(-1295.000000, -43.000000)" fill="#D8D8D8">
            <g id="Group-2" transform="translate(1295.000000, 43.000000)">
                <path d="M5.07426439,2.46282288 C6.09336351,1.69849854 7.30354372,1.2738739 8.57741763,1.2738739 C11.7621024,1.2738739 14.3735439,3.86408418 14.3735439,7.07000017 C14.3735439,7.34600618 14.3523127,7.6220122 14.3098502,7.89801821 L13.7153757,7.28231249 L12.823664,8.17402422 L14.9043247,10.2971474 L17.2185289,8.19525545 L16.3692797,7.26108126 L15.6261866,7.94048067 C15.668649,7.64324343 15.6898803,7.36723742 15.6898803,7.07000017 C15.6898803,3.18468476 12.5264267,0 8.61988009,0 C7.04876894,0 5.58381395,0.48831833 4.35240251,1.44372376 L5.07426439,2.46282288 Z M0.84924927,6.79399416 L1.57111115,6.13582597 C1.52864869,6.43306322 1.50741745,6.7515317 1.50741745,7.07000017 C1.50741745,10.9553156 4.67087098,14.1400003 8.57741763,14.1400003 C10.16976,14.1400003 11.6771775,13.6092195 12.9298201,12.6325829 L12.1442646,11.634715 C11.1251654,12.4415018 9.87252276,12.8661264 8.57741763,12.8661264 C5.39273286,12.8661264 2.78129136,10.2759162 2.78129136,7.07000017 C2.78129136,6.77276293 2.80252259,6.45429445 2.84498505,6.15705721 L3.43945954,6.77276293 L4.33117128,5.88105119 L2.25051057,3.75792802 L0,5.85981996 L0.84924927,6.79399416 Z" id="Combined-Shape"></path>
            </g>
        </g>
    </g>
</svg>