<?xml version="1.0" encoding="UTF-8"?>
<svg width="71px" height="88px" viewBox="0 0 71 88" version="1.1" xmlns="http://www.w3.org/2000/svg" xmlns:xlink="http://www.w3.org/1999/xlink">
    <!-- Generator: sketchtool 41.2 (35397) - http://www.bohemiancoding.com/sketch -->
    <title>A628199C-C7BE-45DD-A9C6-7F79F45F8B2C</title>
    <desc>Created with sketchtool.</desc>
    <defs></defs>
    <g id="Test" stroke="none" stroke-width="1" fill="none" fill-rule="evenodd">
        <g id="Quote-&amp;-Policy-Summary" transform="translate(-422.000000, -1196.000000)" fill="#FF2E5D">
            <g id="Group-19" transform="translate(264.000000, 1196.000000)">
                <g id="Group-18">
                    <g id="Income-Icon" transform="translate(158.000000, 0.000000)">
                        <path d="M64.765953,72.782997 C62.265953,75.802997 58.950953,78.112997 55.550953,79.997997 C51.835953,82.052997 47.655953,83.147997 43.530953,84.032997 C41.250953,84.522997 38.930953,84.842997 36.605953,85.092997 C36.585953,85.077997 36.555953,85.062997 36.530953,85.052997 C37.150953,84.727997 37.770953,84.397997 38.400953,84.072997 C40.225953,83.127997 41.885953,81.607997 43.500953,80.347997 C45.505953,78.787997 47.585953,77.562997 49.785953,76.312997 C50.045953,76.157997 49.940953,75.712997 49.625953,75.727997 C45.830953,75.917997 42.405953,78.752997 39.300953,80.687997 C37.030953,82.102997 34.535953,83.377997 32.040953,84.332997 C31.070953,84.702997 30.190953,84.767997 29.385953,84.962997 C27.080953,84.882997 24.785953,84.672997 22.420953,84.127997 C20.245953,83.622997 18.165953,82.902997 15.965953,82.487997 C13.525953,82.022997 11.490953,81.372997 9.665953,79.617997 C4.855953,75.007997 2.390953,68.817997 2.425953,62.412997 C2.570953,62.497997 2.775953,62.487997 2.890953,62.302997 C5.080953,58.892997 7.290953,55.832997 10.725953,53.582997 C12.995953,52.092997 15.250953,50.842997 16.930953,48.652997 C16.950953,48.627997 16.910953,48.597997 16.895953,48.622997 C14.560953,51.277997 11.285953,52.322997 8.475953,54.312997 C5.910953,56.137997 4.095953,59.157997 2.425953,61.772997 C2.475953,60.252997 2.660953,58.727997 2.995953,57.207997 C3.220953,56.167997 3.505953,55.142997 3.830953,54.127997 C3.875953,54.127997 3.915953,54.117997 3.955953,54.082997 C4.835953,53.367997 5.340953,52.472997 5.935953,51.507997 C6.955953,49.867997 8.165953,48.787997 9.805953,47.792997 C12.120953,46.392997 14.735953,45.592997 17.030953,44.137997 C17.285953,43.977997 17.050953,43.572997 16.790953,43.732997 C14.260953,45.302997 11.400953,46.212997 8.835953,47.732997 C6.800953,48.942997 5.465953,50.952997 4.235953,52.937997 C5.285953,50.017997 6.695953,47.212997 8.290953,44.512997 C10.165953,42.812997 11.725953,40.882997 13.850953,39.367997 C16.145953,37.737997 18.760953,36.532997 21.230953,35.187997 C21.285953,35.162997 21.245953,35.072997 21.190953,35.092997 C17.985953,36.132997 13.915953,37.877997 10.900953,40.392997 C11.960953,38.807997 13.050953,37.262997 14.140953,35.752997 C16.500953,32.477997 18.995953,29.307997 21.465953,26.112997 C23.215953,23.847997 25.300953,21.302997 26.530953,18.632997 C26.575953,18.622997 26.620953,18.607997 26.665953,18.587997 C27.340953,18.872997 28.080953,18.962997 28.835953,18.977997 C27.180953,21.417997 25.585953,23.892997 24.085953,26.432997 C22.645953,28.887997 20.850953,31.832997 20.440953,34.692997 C20.415953,34.867997 20.620953,34.962997 20.725953,34.812997 C22.415953,32.432997 23.615953,29.562997 25.100953,27.027997 C26.725953,24.257997 28.525953,21.587997 30.360953,18.952997 C30.630953,18.942997 30.900953,18.932997 31.165953,18.932997 C30.460953,20.927997 30.810953,23.082997 30.925953,25.167997 C31.110953,28.532997 29.910953,31.752997 30.225953,35.142997 C30.240953,35.332997 30.545953,35.412997 30.580953,35.192997 C31.030953,32.437997 31.870953,29.737997 32.220953,26.967997 C32.545953,24.382997 31.775953,21.417997 32.795953,18.992997 C32.810953,18.967997 32.810953,18.942997 32.820953,18.917997 C33.160953,18.912997 33.500953,18.912997 33.840953,18.912997 C34.370953,21.322997 35.345953,23.662997 35.960953,26.057997 C36.640953,28.687997 36.900953,31.362997 37.390953,34.022997 C37.455953,34.392997 38.090953,34.402997 38.145953,34.022997 C38.830953,29.322997 37.600953,23.357997 35.590953,18.917997 C36.125953,18.927997 36.655953,18.942997 37.190953,18.962997 C37.265953,19.457997 37.610953,19.827997 37.980953,20.367997 C38.835953,21.617997 39.580953,22.947997 40.335953,24.262997 C41.845953,26.877997 43.290953,29.452997 45.185953,31.812997 C45.550953,32.267997 46.225953,31.687997 45.965953,31.212997 C44.430953,28.382997 42.990953,25.492997 41.485953,22.647997 C41.065953,21.847997 40.495953,20.302997 39.715953,19.182997 C41.890953,20.727997 43.790953,23.057997 45.395953,24.987997 C48.230953,28.372997 50.810953,31.972997 53.625953,35.372997 C54.715953,36.687997 55.820953,37.962997 56.905953,39.247997 C53.450953,37.497997 47.135953,37.932997 44.720953,37.982997 C44.685953,37.982997 44.685953,38.027997 44.720953,38.032997 C49.580953,38.592997 56.035953,37.812997 58.850953,42.612997 C58.955953,42.787997 59.250953,42.717997 59.240953,42.507997 C59.235953,42.342997 59.220953,42.182997 59.195953,42.032997 C60.490953,43.662997 61.730953,45.347997 62.835953,47.172997 C65.370953,51.357997 67.115953,55.962997 67.965953,60.772997 C68.780953,65.427997 67.770953,69.157997 64.765953,72.782997 Z M21.455953,10.267997 C20.580953,9.152997 19.735953,7.977997 18.655953,7.052997 C17.995953,6.482997 17.295953,6.092997 16.785953,5.462997 C19.540953,4.517997 22.540953,7.187997 25.360953,5.627997 C27.295953,4.552997 27.435953,1.912997 30.400953,2.367997 C32.150953,2.637997 33.850953,3.887997 35.645953,4.247997 C39.215953,4.967997 42.300953,0.342997002 45.455953,2.242997 C47.155953,3.267997 48.325953,4.497997 49.925953,4.727997 C46.395953,6.387997 43.465953,10.137997 41.230953,13.647997 C41.600953,12.217997 41.920953,10.772997 42.465953,9.437997 C42.555953,9.217997 42.260953,9.117997 42.115953,9.232997 C39.690953,11.172997 39.475953,14.362997 37.870953,16.817997 C37.870953,16.822997 37.865953,16.827997 37.865953,16.832997 C37.745953,16.822997 37.620953,16.812997 37.500953,16.802997 C37.720953,12.802997 40.280953,9.457997 40.985953,5.537997 C41.015953,5.372997 40.780953,5.247997 40.700953,5.417997 C38.820953,9.242997 36.055953,12.337997 35.640953,16.692997 C35.085953,16.672997 34.530953,16.667997 33.975953,16.672997 C34.770953,15.787997 34.715953,14.017997 34.810953,12.927997 C34.995953,10.742997 34.675953,8.407997 34.310953,6.252997 C34.275953,6.027997 33.895953,6.022997 33.860953,6.252997 C33.580953,8.052997 33.590953,9.862997 33.460953,11.682997 C33.380953,12.812997 33.275953,13.952997 33.050953,15.067997 C32.905953,15.767997 32.675953,16.112997 32.865953,16.697997 C32.610953,16.707997 32.355953,16.712997 32.100953,16.722997 C31.860953,16.737997 31.610953,16.742997 31.355953,16.747997 C31.430953,16.552997 31.420953,16.327997 31.270953,16.122997 C29.120953,13.197997 30.235953,9.107997 28.450953,6.057997 C28.400953,5.967997 28.250953,6.002997 28.255953,6.107997 C28.400953,9.297997 27.705953,14.017997 29.780953,16.772997 C29.475953,16.782997 29.170953,16.802997 28.870953,16.827997 C28.855953,16.752997 28.835953,16.677997 28.795953,16.597997 C27.355953,13.742997 26.220953,9.927997 23.545953,7.997997 C23.400953,7.892997 23.185953,8.102997 23.295953,8.247997 C24.395953,9.702997 25.155953,11.492997 25.835953,13.172997 C26.340953,14.417997 26.730953,15.902997 27.480953,17.047997 C27.445953,17.057997 27.410953,17.072997 27.375953,17.082997 C27.320953,16.967997 27.230953,16.862997 27.110953,16.762997 C24.815953,14.917997 23.250953,12.562997 21.455953,10.267997 Z M70.155953,63.262997 C69.525953,52.497997 63.215953,43.387997 56.250953,35.647997 C52.685953,31.682997 49.745953,27.202997 46.190953,23.237997 C44.660953,21.527997 42.650953,19.157997 40.310953,18.172997 C40.375953,18.112997 40.435953,18.047997 40.490953,17.957997 C43.165953,13.122997 46.940953,7.242997 51.960953,4.497997 C52.065953,4.462997 52.170953,4.427997 52.280953,4.387997 C53.180953,4.032997 52.790953,2.567997 51.880953,2.922997 C48.120953,4.392997 47.075953,-0.407002998 43.695953,0.0279970017 C42.230953,0.212997002 41.155953,0.832997002 39.910953,1.622997 C37.005953,3.472997 34.465953,2.487997 31.615953,1.162997 C28.645953,-0.222002998 26.690953,1.992997 24.925953,4.042997 C23.430953,5.777997 20.670953,4.192997 18.875953,4.107997 C17.825953,4.057997 17.055953,4.242997 16.340953,4.737997 C16.285953,4.617997 16.150953,4.582997 16.030953,4.607997 C15.945953,4.787997 15.855953,4.967997 15.770953,5.152997 C15.770953,5.172997 15.765953,5.192997 15.765953,5.207997 C15.755953,5.217997 15.745953,5.232997 15.735953,5.242997 C15.645953,5.447997 15.550953,5.647997 15.455953,5.852997 C15.520953,5.962997 15.645953,6.027997 15.780953,5.972997 C16.000953,8.002997 17.750953,9.527997 18.950953,11.262997 C20.645953,13.717997 22.465953,16.307997 24.950953,18.012997 C22.555953,20.467997 20.495953,23.557997 18.430953,26.227997 C15.640953,29.827997 12.865953,33.432997 10.265953,37.172997 C5.300953,44.307997 0.835952998,52.272997 0.0759529983,61.087997 C-0.604047002,68.917997 3.340953,77.737997 9.540953,82.592997 C11.210953,83.902997 13.270953,84.412997 15.305953,84.862997 C17.775953,85.407997 20.165953,86.177997 22.625953,86.747997 C24.920953,87.277997 27.520953,87.692997 30.045953,87.612997 C34.190953,88.482997 39.295953,87.267997 43.220953,86.432997 C47.820953,85.447997 52.385953,83.922997 56.545953,81.702997 C63.370953,78.062997 70.650953,71.652997 70.155953,63.262997 L70.155953,63.262997 Z" id="Fill-520"></path>
                        <path d="M37.785953,67.872997 C37.775953,65.112997 37.785953,62.362997 37.775953,59.612997 C39.105953,60.627997 40.020953,61.902997 40.075953,63.697997 C40.130953,65.367997 39.105953,66.827997 37.785953,67.872997 Z M35.465953,69.182997 C35.060953,69.327997 34.660953,69.422997 34.250953,69.477997 C34.120953,68.637997 33.975953,67.797997 33.950953,67.047997 C33.870953,64.592997 33.985953,62.107997 33.650953,59.667997 C33.540953,58.857997 33.440953,58.047997 33.340953,57.232997 C34.205953,57.617997 35.070953,58.002997 35.875953,58.427997 C35.725953,61.817997 35.405953,65.517997 36.010953,68.952997 C35.830953,69.037997 35.645953,69.112997 35.465953,69.182997 Z M29.705953,52.752997 C27.740953,50.957997 29.085953,48.132997 30.770953,46.382997 C30.815953,48.892997 31.050953,51.417997 31.330953,53.922997 C30.745953,53.577997 30.195953,53.197997 29.705953,52.752997 Z M35.345953,43.787997 C35.430953,47.857997 35.905953,51.952997 35.925953,56.017997 C34.970953,55.612997 34.000953,55.227997 33.065953,54.807997 C32.720953,51.642997 32.425953,48.467997 32.040953,45.307997 C33.065953,44.627997 34.160953,44.107997 35.345953,43.787997 Z M37.760953,56.872997 C37.725953,52.527997 37.605953,48.192997 37.270953,43.842997 C37.900953,44.247997 38.190953,45.092997 38.790953,45.897997 C38.895953,46.032997 39.100953,46.062997 39.195953,45.897997 C40.050953,44.457997 39.010953,42.757997 37.615953,42.117997 C37.450953,42.047997 37.280953,41.987997 37.110953,41.942997 C37.000953,40.767997 36.880953,39.592997 36.730953,38.417997 C36.635953,37.647997 35.610953,37.637997 35.530953,38.417997 C35.410953,39.552997 35.355953,40.697997 35.335953,41.847997 C34.100953,42.002997 32.845953,42.522997 31.840953,42.977997 C31.810953,42.992997 31.775953,43.007997 31.745953,43.022997 C31.610953,42.022997 31.465953,41.022997 31.300953,40.032997 C31.285953,39.957997 31.160953,39.957997 31.145953,40.032997 C30.970953,41.192997 30.865953,42.367997 30.810953,43.547997 C27.520953,45.702997 24.810953,50.707997 27.800953,53.992997 C28.725953,55.002997 30.115953,55.767997 31.630953,56.467997 C31.770953,57.617997 31.910953,58.757997 32.040953,59.887997 C32.335953,62.517997 32.120953,65.222997 32.145953,67.862997 C32.150953,68.317997 32.135953,68.852997 32.140953,69.412997 C31.960953,69.377997 31.785953,69.337997 31.610953,69.292997 C30.335953,68.947997 29.425953,67.897997 28.135953,67.612997 C27.600953,67.497997 27.205953,67.932997 27.295953,68.447997 C27.735953,70.912997 30.015953,71.847997 32.455953,71.937997 C32.620953,72.437997 32.860953,72.882997 33.235953,73.212997 C33.585953,73.522997 34.140953,73.407997 34.280953,72.932997 C34.385953,72.592997 34.425953,72.222997 34.440953,71.837997 C35.210953,71.737997 35.950953,71.567997 36.605953,71.352997 C36.810953,71.952997 37.050953,72.537997 37.335953,73.102997 C37.455953,73.342997 37.825953,73.222997 37.825953,72.972997 C37.810953,72.267997 37.805953,71.567997 37.800953,70.867997 C37.805953,70.862997 37.810953,70.862997 37.810953,70.862997 C41.500953,68.952997 43.460953,64.662997 41.795953,60.797997 C40.985953,58.917997 39.490953,57.767997 37.760953,56.872997 L37.760953,56.872997 Z" id="Fill-521"></path>
                        <path d="M9.645953,61.612997 C8.195953,63.357997 4.405953,67.862997 5.685953,70.417997 C5.775953,70.592997 6.015953,70.527997 6.070953,70.367997 C6.520953,68.987997 6.610953,67.702997 7.285953,66.337997 C8.135953,64.607997 9.335953,63.032997 10.550953,61.547997 C12.550953,59.097997 15.155953,56.037997 18.145953,54.797997 C18.175953,54.787997 18.165953,54.737997 18.130953,54.747997 C14.685953,55.827997 11.865953,58.937997 9.645953,61.612997" id="Fill-522"></path>
                        <path d="M16.875953,60.052997 C15.040953,62.362997 12.940953,64.437997 11.165953,66.792997 C9.190953,69.412997 8.450953,72.652997 7.760953,75.792997 C7.725953,75.957997 7.975953,76.082997 8.050953,75.912997 C9.380953,72.937997 9.790953,69.867997 11.585953,67.037997 C13.150953,64.577997 15.245953,62.477997 16.955953,60.117997 C16.990953,60.067997 16.910953,60.007997 16.875953,60.052997" id="Fill-523"></path>
                        <path d="M16.525953,67.342997 C14.935953,70.767997 12.745953,74.872997 12.610953,78.697997 C12.605953,78.897997 12.915953,78.997997 13.000953,78.802997 C13.690953,77.267997 13.945953,75.542997 14.435953,73.927997 C15.100953,71.752997 15.985953,69.647997 16.885953,67.557997 C16.990953,67.312997 16.640953,67.097997 16.525953,67.342997" id="Fill-524"></path>
                        <path d="M61.765953,50.402997 C61.910953,50.567997 62.140953,50.357997 62.055953,50.182997 C59.370953,44.812997 52.430953,44.437997 47.390953,42.862997 C47.325953,42.842997 47.300953,42.942997 47.365953,42.962997 C49.725953,43.847997 52.170953,44.462997 54.545953,45.297997 C57.625953,46.382997 59.660953,47.972997 61.765953,50.402997" id="Fill-525"></path>
                        <path d="M62.485953,56.952997 C62.645953,57.187997 63.065953,57.042997 62.965953,56.747997 C60.850953,50.602997 53.445953,49.232997 47.995953,47.792997 C47.965953,47.782997 47.950953,47.842997 47.985953,47.847997 C50.600953,48.512997 53.165953,49.417997 55.625953,50.532997 C58.770953,51.947997 60.645953,54.137997 62.485953,56.952997" id="Fill-526"></path>
                        <path d="M63.375953,63.862997 C63.485953,64.027997 63.775953,63.927997 63.705953,63.722997 C61.985953,58.627997 56.790953,54.967997 51.465953,55.077997 C51.330953,55.082997 51.330953,55.287997 51.465953,55.287997 C57.460953,55.352997 60.315953,59.372997 63.375953,63.862997" id="Fill-527"></path>
                        <path d="M60.090953,67.037997 C57.885953,65.092997 54.955953,63.877997 52.100953,63.287997 C52.005953,63.267997 51.960953,63.412997 52.060953,63.437997 C54.700953,64.142997 57.050953,65.402997 59.210953,67.072997 C61.555953,68.882997 62.370953,70.977997 63.330953,73.642997 C63.410953,73.872997 63.715953,73.817997 63.740953,73.587997 C64.025953,71.047997 61.850953,68.592997 60.090953,67.037997" id="Fill-528"></path>
                        <path d="M53.195953,71.792997 C52.985953,71.687997 52.800953,72.002997 53.010953,72.107997 C55.695953,73.457997 56.905953,75.967997 55.990953,78.852997 C55.930953,79.047997 56.240953,79.182997 56.325953,78.992997 C57.650953,76.072997 55.865953,73.112997 53.195953,71.792997" id="Fill-529"></path>
                    </g>
                </g>
            </g>
        </g>
    </g>
</svg>