<?xml version="1.0" encoding="UTF-8"?>
<svg width="71px" height="66px" viewBox="0 0 71 66" version="1.1" xmlns="http://www.w3.org/2000/svg" xmlns:xlink="http://www.w3.org/1999/xlink">
    <!-- Generator: sketchtool 41.2 (35397) - http://www.bohemiancoding.com/sketch -->
    <title>0E62D1A9-CB99-4189-99C6-F7E9C2DFDC95</title>
    <desc>Created with sketchtool.</desc>
    <defs></defs>
    <g id="Test" stroke="none" stroke-width="1" fill="none" fill-rule="evenodd">
        <g id="Quote-&amp;-Policy-Summary" transform="translate(-949.000000, -1218.000000)" fill="#FF2E5D">
            <g id="Group-19" transform="translate(264.000000, 1196.000000)">
                <g id="Group-9" transform="translate(527.000000, 22.000000)">
                    <g id="Percent-Icon" transform="translate(158.000000, 0.000000)">
                        <path d="M12.8549699,16.9254091 C13.1277888,15.72846 13.5945998,14.57346 14.1089305,13.4576125 C19.9018596,14.1142566 17.7131588,20.6661549 14.5561746,23.891765 C13.3978124,22.839121 12.5603478,21.6712566 12.4015762,20.3288837 C12.5100329,19.7153074 12.552521,19.0994939 12.6140171,18.4669006 C12.714647,18.1676633 12.8421116,17.8622735 13.0115053,17.5468159 C13.1372927,17.3135786 13.0327494,17.060765 12.8549699,16.9254091 Z M10.5343321,32.3811549 C10.8457258,32.2804769 11.1599147,32.1568667 11.4785762,32.0024939 C11.9453872,31.7770871 11.7927651,31.0729006 11.3393714,30.9442566 C9.94844231,30.5499345 8.48259979,30.3569684 7.16267065,29.833443 C6.32576514,28.7975786 5.66663916,27.5838498 5.22610372,26.3583752 C7.58196199,28.5783244 11.0486628,29.538121 13.9177336,27.6945956 C14.1195525,27.5653922 13.9456864,27.2902057 13.7360407,27.3813752 C9.99596199,29.0134769 7.64513522,26.4243752 4.83644231,24.4572396 C4.7917179,24.4253583 4.74363916,24.4085786 4.69556042,24.3962735 C4.60834782,23.9644769 4.53567065,23.5282057 4.47473365,23.0896972 C4.53119821,21.3709006 4.62288325,19.652104 4.7207179,17.9349854 C5.73819821,20.0525786 7.60767853,21.7959854 9.8165053,22.4263413 C10.0099384,22.4817142 10.1441116,22.1841549 9.95571002,22.0952227 C6.30619821,20.3769854 5.32673365,17.0339176 4.99130057,13.4190193 C5.01869428,12.904443 5.0382612,12.3893074 5.05000136,11.8736125 C5.89641081,10.0379176 6.81661554,8.2385786 8.04094624,6.7815447 C7.88441081,7.70834131 8.10467853,8.65359555 8.26177302,9.59101928 C8.53738719,11.2303922 9.00531632,12.8378837 9.4452927,14.4375447 C9.59567853,14.9800871 10.4051903,14.7513244 10.2833163,14.2065447 C10.0099384,12.9816295 9.7455053,11.7578328 9.52356042,10.5228498 C9.275899,9.14300233 9.41901711,7.59815487 8.92760766,6.28766335 C8.88511947,6.17356165 8.80685176,6.09805318 8.71796199,6.05274809 C10.0200014,4.76183284 11.6468518,3.84342606 13.8221352,3.59340911 C14.0692376,3.56544301 14.3124266,3.55090064 14.5539384,3.54251081 C13.1663636,5.39890064 13.1115762,8.38791759 13.5135368,10.445104 C13.5403714,10.5860532 13.6320565,10.6542905 13.7360407,10.6716295 C13.5789462,10.6598837 13.4229699,10.6503752 13.2658754,10.6453413 C12.8096864,10.6302396 12.2847336,10.9121379 12.0767651,11.3271549 C10.6601195,14.156765 8.18741869,19.0592227 10.6964581,21.8625447 C10.7926155,21.9693752 10.9245525,22.0364939 11.0699069,22.0722905 C11.527773,23.4588498 12.5541982,24.7715786 13.8735683,25.9523074 C14.1866392,26.2325278 14.7216549,26.385782 15.0962218,26.1111549 C18.0424423,23.94546 20.2115762,20.6801379 20.4324029,16.965121 C20.6683242,12.9872227 17.2720644,10.9630362 13.7953006,10.676104 C13.982584,10.6721888 14.1827258,10.5139006 14.1407966,10.2711549 C13.8836313,8.7537142 13.8612691,7.28884979 14.3420565,5.81223962 C14.6473006,4.87929047 15.270088,4.25173115 15.8772218,3.5956464 C18.0334974,3.84790064 19.9219856,4.89047691 21.4029226,6.4006464 C20.2574187,7.36100233 18.9648833,8.83984979 18.8938833,10.3578498 C18.881025,10.6391888 19.3103793,10.6358328 19.3282691,10.3578498 C19.4244266,8.81244301 20.7929935,7.84145996 21.7333242,6.7535786 C23.0314502,8.19886674 23.9801667,10.0121888 24.4671037,11.9468837 C24.5599069,12.3143583 24.632584,12.6935786 24.6940801,13.0783922 C24.4441825,13.2405956 24.2110565,13.4425108 23.9907888,13.6427481 C23.4445919,14.1383074 23.0549305,14.7887989 22.7295604,15.4426464 C22.5037021,15.8996125 23.1790407,16.301765 23.4177573,15.8453583 C23.709584,15.2865956 24.0366313,14.7686633 24.4894659,14.325121 C24.5940092,14.2233244 24.7063793,14.1338328 24.8215447,14.0504939 C25.1452376,17.5059854 24.3418754,21.4313074 22.6434659,24.80346 C22.2275289,25.2470023 21.7741352,25.6692905 21.254773,26.0624939 C19.1409856,27.6638328 16.4290092,28.4440871 13.8271667,28.7511549 C13.6896392,28.7668159 13.6851667,28.9575447 13.8271667,28.9681718 C16.0365525,29.1270193 18.7966077,28.5425278 21.1334581,27.3086633 C20.7801352,27.8025447 20.4066864,28.2762905 20.0108754,28.7215108 C19.4255447,29.0777989 18.9598518,29.6818667 18.4600565,30.2260871 C17.9753557,30.6304769 17.4677336,30.9985108 16.9366313,31.3217989 C16.0041273,31.6696972 15.006214,31.5527989 14.0463163,31.1271549 C13.5437258,30.9045447 13.0981588,31.63446 13.6080171,31.877765 C14.0183636,32.0735278 14.4275919,32.2195108 14.8362612,32.3190701 C14.6674266,32.3777989 14.4985919,32.4376464 14.326962,32.4885447 C12.9544817,32.8906972 11.679836,32.8045617 10.5343321,32.3811549 Z M14.6254974,35.3489176 C18.9084187,34.5977481 22.1023006,31.433104 24.4229384,27.9395786 C28.3782533,21.9878328 29.6350092,13.531443 26.2353951,7.06735826 C23.7878518,2.4126803 18.5014266,-0.601506143 13.2401588,0.101561654 C9.08749743,0.656409112 5.35915884,3.4636464 3.16542656,7.12944301 C2.67513522,7.16356165 2.19770215,7.43707013 1.9902927,8.02603623 C0.196284827,13.1130701 -0.541667929,18.9143583 0.431647031,24.2441379 C0.995174591,27.3293583 2.99323758,30.5834939 5.73428483,31.9862735 C7.926899,34.455121 11.37571,35.9183074 14.6254974,35.3489176 L14.6254974,35.3489176 Z" id="Fill-1295"></path>
                        <path d="M19.2203714,23.7608837 C20.433521,22.9493074 21.4398203,21.9263074 22.3639384,20.8009515 C23.2232061,19.7550193 24.4928203,18.347765 24.611899,16.965121 C24.6292297,16.7598498 24.3709462,16.701121 24.2412455,16.8118667 C23.3227179,17.5993922 22.8335447,19.0334939 22.1464659,20.0425108 C21.2838439,21.3099345 20.2384108,22.4766803 19.0012218,23.3855786 C18.7803951,23.547782 18.9838911,23.9191718 19.2203714,23.7608837" id="Fill-1296"></path>
                        <path d="M67.1548754,50.8035447 C66.2693321,50.6631549 65.2937809,50.7336295 64.4395447,50.7252396 C63.8883163,50.7202057 63.347151,50.6670701 62.8138124,50.5775786 C64.3769305,49.2497481 65.3485683,47.321765 65.4698833,45.2919854 C65.812584,45.013443 66.1284502,44.7365786 66.3945604,44.5229176 C67.2331431,43.8478159 67.9492927,43.1285278 68.5575447,42.3029684 C68.6313399,43.5877311 68.5681667,44.8909515 68.3853557,46.1645278 C68.155584,47.769782 67.7446785,49.3336464 67.1548754,50.8035447 Z M62.4252691,46.3692396 C61.7834738,47.8564769 60.3131588,49.1188667 58.803151,49.6026803 C57.109773,50.1452227 55.4952218,49.98246 54.2093951,49.2827481 C54.3994738,49.0618159 54.4872455,48.76146 54.3966785,48.4225108 C54.0372061,47.0667142 52.3779305,46.3155447 52.2672376,44.8999006 C52.1811431,43.790765 53.1997415,42.9143074 54.0332927,42.3656125 C55.9033321,41.136782 58.9054581,40.4728667 60.9247651,41.7145617 C60.8996077,41.8202735 60.8800407,41.9354939 60.8744502,42.074765 C60.8643872,42.2867481 61.0343399,42.5216633 61.2456628,42.5636125 C61.4692848,42.6083583 61.6850801,42.5977311 61.8924896,42.5513074 C62.6119935,43.4031549 62.8423242,44.3299515 62.7366628,45.228782 C62.5348439,45.4323752 62.3749541,45.6600193 62.282151,45.9240193 C62.2245683,46.0895786 62.2983636,46.2612905 62.4252691,46.3692396 Z M57.0767888,60.0021549 C53.6771746,60.837782 49.9874108,60.1867311 47.1664187,58.1759684 C47.1753636,58.1614261 47.1865447,58.1513583 47.1932533,58.1345786 C47.676277,57.0366295 47.6555919,55.8385617 47.7925604,54.6606295 C48.0240092,52.6565786 48.1212848,50.6816125 48.2800565,48.6831549 C48.2901195,48.5556295 48.102277,48.5422057 48.0659384,48.6535108 C47.4962612,50.425443 46.9064581,52.0670532 46.6000959,53.9223244 C46.4133714,55.0499176 46.0751431,56.3447481 46.3093872,57.4986295 C46.0483084,57.2693074 45.7917021,57.0310362 45.5507494,56.7754261 C43.447584,54.5414939 42.8840565,51.9076464 42.9053006,49.1680871 C43.3721116,48.5036125 43.8361273,47.8419345 44.4488518,47.2580023 C45.4942848,46.2596125 46.8919226,45.4508328 48.2185604,44.8926295 C48.4360329,44.80146 48.3555289,44.5122905 48.123521,44.5436125 C46.459773,44.7690193 44.5008439,45.6270193 43.0338833,46.8983583 C43.1725289,45.4810362 43.3939147,44.0592396 43.5733714,42.6682057 C45.1135683,42.0904261 46.6560014,41.3935108 48.2772612,41.1373413 C48.7574896,41.0618328 48.5785919,40.4012735 48.1710407,40.3548498 C46.1623557,40.1288837 44.5561903,40.6943583 42.676088,41.3068159 C42.5771352,41.3392566 42.4955132,41.3867989 42.4245132,41.4416125 C42.9746234,39.354782 43.9121588,37.4027481 45.2879935,35.7309345 C45.7430644,36.2617311 46.4569777,36.464765 47.1015683,36.7237311 C47.8669147,37.0324769 48.6663636,37.2092227 49.492088,37.2232057 C50.0544974,37.2321549 50.0472297,36.3836633 49.492088,36.3545786 C48.6747494,36.3115108 47.930647,36.0592566 47.1882218,35.7292566 C46.7147021,35.5189515 46.3037966,35.2213922 45.8118281,35.1330193 C46.5095289,34.3801718 47.30171,33.6910871 48.2006707,33.0836633 C51.7501116,30.6880871 56.4713321,29.916782 60.5753557,31.1914769 C59.7183242,32.9790701 58.6236943,34.7342227 58.1451431,36.6247311 C57.9802218,37.2785786 58.9786943,37.7562396 59.269962,37.0995956 C60.0649384,35.3041718 60.7441903,33.3633244 61.3328754,31.4554769 C61.6548911,31.5774091 61.9729935,31.7105278 62.2849462,31.8593074 C63.8184344,32.5936972 65.0343793,33.6055108 65.9730329,34.8046972 C65.3793163,36.1571379 64.564214,37.3546464 63.6909699,38.5616633 C63.4628754,38.877121 63.2124187,39.174121 62.9507809,39.4632905 C59.9984108,37.1868498 55.2134581,37.9285108 52.2269856,39.8201379 C50.5134817,40.9052227 49.1896392,42.5926972 49.1063399,44.6728159 C49.0621746,45.7925786 49.6117258,47.1573244 50.4777021,48.179765 C51.6763163,51.3583922 55.3716707,52.883104 59.2011982,52.2510701 C59.2884108,52.2359684 59.37171,52.2169515 59.4572455,52.2001718 C59.2241195,52.9714769 59.2151746,53.7830532 59.6674502,54.5129684 C60.2197966,55.4045278 62.0568518,56.4605278 62.9569305,55.5460362 C63.1011667,55.4000532 63.0894266,55.1819176 62.9569305,55.0342566 C62.3693636,54.3798498 61.3362297,54.6690193 60.781088,53.8630362 C60.4070801,53.3204939 60.2606077,52.65546 60.2483084,51.9988159 C60.8934581,51.7946633 61.491647,51.5077311 62.0372848,51.1547989 C63.4980959,51.7303413 65.173025,52.0961379 66.6511667,51.9445617 C64.7744187,55.8346464 61.5592927,58.8991718 57.0767888,60.0021549 Z M68.4725683,41.3185617 C67.5881431,42.1279006 66.5902297,42.8343244 65.6152376,43.512782 C65.5420014,43.5636803 65.4631746,43.61346 65.3815525,43.662121 C65.2233399,42.7375617 64.879521,41.8191549 64.321584,40.9550023 C64.2533793,40.8487311 64.1801431,40.7469345 64.1074659,40.6473752 C64.3456234,40.3201718 64.5619777,40.0007989 64.7554108,39.7418328 C65.619151,38.5806803 66.2469699,37.2164939 66.6673793,35.8114769 C67.6692061,37.4480532 68.246151,39.3441549 68.4725683,41.3185617 Z M66.9463478,32.7419176 C62.4576943,28.0385786 55.0189069,27.7975108 49.4166155,30.4235278 C43.4492612,33.2229345 40.6897651,39.0107989 40.7937494,45.1499176 C39.5655053,49.8230532 40.7115683,55.2193922 44.0424187,58.7129176 C47.6583872,62.5067989 53.4194502,63.4514939 58.3212455,62.0996125 C69.7405053,58.9495108 75.336647,41.5333413 66.9463478,32.7419176 L66.9463478,32.7419176 Z" id="Fill-1297"></path>
                        <path d="M54.5252612,36.9351549 C54.6974502,37.2461379 55.0977336,37.0151379 55.0546864,36.7119854 C54.7874581,34.8248328 53.600025,32.7150701 52.2359305,31.4006633 C52.1000801,31.2692227 51.9111195,31.4649854 52.0313163,31.6048159 C53.3926155,33.1910532 53.5541825,35.179443 54.5252612,36.9351549" id="Fill-1298"></path>
                        <path d="M56.0973242,58.8203074 C55.1659384,58.8376464 54.3771116,58.5445617 54.036088,57.6295108 C53.6313321,56.5438667 53.6788518,55.111443 53.7084817,53.9693074 C53.7163084,53.6689515 53.3037258,53.6432227 53.2109226,53.9016295 C52.6356549,55.4984939 52.362836,57.1076633 53.1108518,58.6983752 C53.7414659,60.0413074 55.0977336,60.1526125 56.3159147,59.6302057 C56.7257021,59.4545786 56.5020801,58.8130362 56.0973242,58.8203074" id="Fill-1299"></path>
                        <path d="M40.3124029,15.4001379 C40.0440565,15.3553922 39.8506234,15.7133583 40.1178518,15.8626972 C41.6474266,16.7190193 42.899151,17.8907989 43.53871,19.554782 C43.8210329,20.2874939 45.0112612,19.9697989 44.725584,19.2275786 C43.9512927,17.2140193 42.4876864,15.7603413 40.3124029,15.4001379" id="Fill-1300"></path>
                        <path d="M48.4265289,12.5632566 C47.0395132,11.8691379 45.6066549,11.1459345 44.3873557,10.1788667 C44.1324266,9.97751081 43.8165604,10.28346 44.0295604,10.5373922 C45.1398439,11.8618667 46.3870959,12.6728837 47.9149935,13.4385956 C48.4975289,13.7305617 49.0118596,12.855782 48.4265289,12.5632566" id="Fill-1301"></path>
                        <path d="M53.7990486,8.16642606 C54.0293793,7.47062945 54.2284029,6.76476504 54.401151,6.05162945 C54.5660722,6.0225447 54.7309935,5.98395148 54.8953557,5.94703623 C54.5498596,6.69820572 54.1797651,7.44545996 53.7990486,8.16642606 Z M26.0497888,56.1003244 C25.9597809,56.2468667 25.8647415,56.3906125 25.7713793,56.5349176 C25.9698439,56.1635278 26.133088,55.7736803 26.2946549,55.3855108 C26.3829856,55.1724091 26.3796313,55.0236295 26.3522376,54.9050532 C26.3634187,54.8871549 26.3729226,54.8692566 26.3846628,54.8507989 C27.2808281,53.5112227 28.1540722,52.1565447 29.0066313,50.788443 C28.0853084,52.5939345 27.1108754,54.3720193 26.0497888,56.1003244 Z M23.790647,59.4411549 C23.7621352,59.4825447 23.7353006,59.5261718 23.7079069,59.568121 C23.6900171,59.4803074 23.668214,59.3924939 23.6341116,59.3080362 C23.9460644,59.02446 24.2339777,58.725782 24.4984108,58.411443 C24.2608124,58.7526295 24.023214,59.0949345 23.790647,59.4411549 Z M58.4056628,4.28920572 C58.8680014,3.44239216 57.9248754,2.21915487 56.8514896,2.78127352 C53.6866785,4.43798538 50.4894423,4.71708708 47.2513951,3.0626125 C46.3412533,2.59669725 45.5664029,3.90159555 46.449151,4.43798538 C47.6695683,5.18076504 48.9805525,5.69534131 50.3228439,5.97220572 C50.3015998,5.97276504 50.2797966,5.97444301 50.2585525,5.97556165 C49.3428203,6.01862945 48.4265289,6.06113793 47.5107966,6.1036464 C47.1379069,6.12098538 47.1379069,6.66520572 47.5107966,6.68310403 C48.3298124,6.72113793 49.1482691,6.75973115 49.9678439,6.79720572 C50.7354266,6.83356165 51.5622691,6.98178199 52.2795368,6.64339216 C52.4416628,6.56732437 52.4561982,6.32905318 52.3415919,6.20376504 C52.8262927,6.21383284 53.3115525,6.19201928 53.7940171,6.1366464 C52.7592061,8.50984979 51.3844896,10.7935617 49.9370959,12.972121 C49.6413557,13.2758328 49.3512061,13.5851379 49.0828596,13.9129006 C48.9671352,14.0532905 48.9263242,14.2507311 48.9486864,14.4336295 C48.5819462,14.9672227 48.2152061,15.494104 47.8518203,16.0137142 C45.8386628,18.8891888 43.700277,21.66846 41.6446313,24.5081379 C41.5389699,24.3336295 41.4338675,24.1837311 41.2901903,24.0366295 C40.9223321,23.6613244 40.5718045,23.2927311 40.1838203,22.938121 C39.4374817,22.2563074 38.6257336,21.5124091 38.1035762,20.6376295 C37.7139147,19.9849006 36.7965053,20.5548498 37.1034266,21.222121 C37.3851903,21.83346 37.8044817,22.3799176 38.2142691,22.9079176 C38.700088,23.5332396 39.2105053,24.2670701 39.8489462,24.7424939 C40.2346943,25.0294261 40.5779541,25.2760871 41.0184896,25.3750871 C40.2715919,26.4210193 39.5381116,27.4775786 38.8309069,28.5531549 C38.5362848,29.0000532 38.2556392,29.4553413 37.9738754,29.9106295 C37.6334108,28.9709684 36.3386392,28.4882735 35.5526077,27.9496464 C34.5334502,27.2521718 33.45671,26.7023583 32.411277,26.0602566 C32.2603321,25.9674091 32.0635447,26.154782 32.1641746,26.3080362 C32.8311273,27.3276803 33.5293872,28.1812057 34.5278596,28.9105617 C35.3865683,29.5375617 36.4331195,30.6657142 37.544521,30.6153752 C36.1714817,32.9119515 34.9331746,35.2935447 33.6948675,37.6745786 C33.3286864,37.5733413 32.9960486,37.6108159 32.6505525,37.3910023 C32.2284659,37.1225278 31.9226628,36.7858159 31.6459305,36.3707989 C30.9264266,35.2924261 30.5513006,33.9148159 30.0979069,32.7089176 C29.9341037,32.2765617 29.2179541,32.3028498 29.2436707,32.8235786 C29.3314423,34.5569176 29.7602376,36.3075956 30.8207651,37.7193244 C31.2864581,38.3390532 32.2351746,38.9632566 33.0687258,38.875443 C32.3481037,40.2524939 31.6196549,41.6239515 30.8520722,42.9696803 C30.5798124,43.4490193 30.3008439,43.9250023 30.0241116,44.4015447 C29.9928045,44.369104 29.9592612,44.3366633 29.9156549,44.3120532 C29.0161352,43.7946803 27.9170329,43.181104 27.2819462,42.3370871 C26.6463006,41.4953074 26.3231667,40.3341549 26.1694266,39.3066803 C26.0844502,38.7389684 25.2984187,38.9509515 25.2458675,39.4319684 C25.0859777,40.8565617 25.2978596,42.1116803 26.1291746,43.299121 C26.9901195,44.5273922 28.1154974,45.1348159 29.5679226,45.1817989 C28.760088,46.5526972 27.9315683,47.9118498 27.0818045,49.2586972 C26.6340014,48.7139176 25.9838203,48.1227142 25.4734029,47.6478498 C24.3239856,46.5795447 23.0789699,45.6096803 21.9575053,44.5128498 C21.7053714,44.2667481 21.3805604,44.5766125 21.5029935,44.8635447 C22.2051667,46.515782 23.1158675,47.8430532 24.3703872,49.1194261 C24.7270644,49.4835447 25.5315447,50.2548498 26.2829147,50.5115786 C24.5023242,53.2757481 22.6322848,55.9839854 20.6593793,58.6155956 C20.5319147,58.7856295 20.4603557,58.9556633 20.4312848,59.1195447 C18.9978675,59.0803922 17.5303478,59.271121 16.1064344,59.3566972 C15.2885368,59.4064769 14.4930014,59.5082735 13.6851667,59.6419515 C13.4425368,59.682782 13.2144423,59.7375956 12.9947336,59.7996803 C14.0289856,58.2156803 14.823962,56.367121 15.6983242,54.7680193 C16.2517888,53.7573244 16.8013399,52.7432735 17.349214,51.7303413 C17.9764738,53.8529684 19.3791431,55.4369684 21.5225604,56.1277311 C22.603214,56.4767481 23.0118833,54.8418498 21.9832218,54.4525617 C20.2836943,53.8093413 19.0023399,52.72146 18.2587966,51.0518837 C18.1754974,50.8633922 18.0251116,50.7822905 17.8652218,50.7766972 C18.4410486,49.7106295 19.0157573,48.6428837 19.5899069,47.5751379 C22.3371037,42.4679684 25.0546707,37.3429006 27.8303793,32.2513922 C33.1967494,22.4073244 39.1400644,12.9553413 45.5608124,3.76847691 C45.5842927,3.73491759 45.5323006,3.69576504 45.5037888,3.72484979 C37.8206943,11.5984261 32.0993242,21.2657481 26.5685919,30.7054261 C23.6341116,35.7113583 20.8377179,40.7888837 18.059214,45.8831888 C16.7527021,48.280443 15.4433951,50.6760193 14.1234659,53.065443 C12.8443478,55.3799176 11.0218281,57.7889176 10.2441825,60.3164939 C10.0373321,60.9876803 10.6489384,61.5676972 11.2504817,61.5548328 C11.2320329,61.6616633 11.1906628,61.76346 11.1230171,61.8613413 C11.0754974,61.9306972 11.1794817,62.0050871 11.2370644,61.9497142 C11.3701195,61.8193922 11.4439147,61.6745278 11.4852848,61.5179176 C11.6267258,61.4748498 11.7614581,61.3948667 11.8766234,61.2679006 C11.9291746,61.2102905 11.9761352,61.1454091 12.0270092,61.086121 C12.0381903,61.0911549 12.0499305,61.0961888 12.0616707,61.1012227 C12.1024817,61.1890362 12.1477651,61.2762905 12.1919305,61.3629854 C11.8553793,61.5542735 11.6775998,62.0056464 12.0460171,62.3591379 C12.1913714,62.4978498 12.3367258,62.6298498 12.4843163,62.7601718 C12.2528675,63.1214939 12.2830565,63.6522905 12.7414817,63.9476125 C13.1624502,64.2188837 13.6029856,64.4319854 14.0552612,64.5992227 C14.1173163,64.6490023 14.1726628,64.7038159 14.2330407,64.7558328 C14.2772061,64.8363752 14.3241667,64.9163583 14.367214,64.9980193 C14.7294817,65.6865447 15.5417888,65.5075617 15.8839305,65.0069684 C17.7008596,65.1825956 19.591025,64.7284261 21.2503006,63.9006295 C21.4862218,63.9313922 21.731088,63.9157311 21.9597415,63.8726633 C22.9783399,63.6785786 23.8761825,62.6449515 24.5185368,61.7354939 C25.3381116,60.9513244 26.0553793,60.1089854 26.7340722,59.1944939 C28.3944659,56.9566464 29.784277,54.5213583 31.1097966,52.075443 C33.6971037,47.2971549 35.9182297,42.3298159 38.5955447,37.5996295 C44.7731037,26.6839006 53.1935919,17.1340362 58.5733793,5.74791759 C58.8344581,5.19530742 58.7069935,4.67010403 58.4056628,4.28920572 L58.4056628,4.28920572 Z" id="Fill-1302"></path>
                    </g>
                </g>
            </g>
        </g>
    </g>
</svg>