<?xml version="1.0" encoding="UTF-8"?>
<svg width="71px" height="82px" viewBox="0 0 71 82" version="1.1" xmlns="http://www.w3.org/2000/svg" xmlns:xlink="http://www.w3.org/1999/xlink">
    <!-- Generator: sketchtool 41.2 (35397) - http://www.bohemiancoding.com/sketch -->
    <title>DE05BFBC-FDC2-4C1E-A806-0968442DF171</title>
    <desc>Created with sketchtool.</desc>
    <defs></defs>
    <g id="Test" stroke="none" stroke-width="1" fill="none" fill-rule="evenodd">
        <g id="Quote-&amp;-Policy-Summary" transform="translate(-949.000000, -1877.000000)" fill="#FF2E5D">
            <g id="Group-19" transform="translate(264.000000, 1196.000000)">
                <g id="Group-17" transform="translate(527.000000, 681.000000)">
                    <g id="Policy-Icon" transform="translate(158.000000, 0.000000)">
                        <path d="M68.2669686,13.1987102 C67.7463019,14.0830123 67.2552186,14.9844224 66.7878019,15.8988109 C66.5925519,15.6185951 66.3795519,15.3454584 66.2020519,15.0670123 C65.7464686,14.3620483 65.3263853,13.6340771 64.9063019,12.9096454 C64.8826353,12.8654008 64.8234686,12.9037462 64.8412186,12.9474008 C65.1311353,13.6370267 65.4328853,14.3248828 65.7464686,15.0056598 C65.9653853,15.4817318 66.1843019,16.0309548 66.4801353,16.4999476 C65.9653853,17.5305519 65.4624686,18.5753145 64.9595519,19.6277462 C64.5690519,18.3358037 63.7703019,17.1665663 63.1372186,15.9996886 C63.1135519,15.9524944 63.0366353,15.9996886 63.0662186,16.0415735 C64.0069686,17.2892713 64.0247186,18.9044944 64.6518853,20.2760771 C64.5631353,20.4560052 64.4803019,20.6347534 64.3915519,20.8146814 C64.1075519,21.3975303 63.7998853,21.9685807 63.5099686,22.5455303 C63.1017186,21.3951706 62.6520519,20.2560195 62.2497186,19.1027102 C62.2378853,19.0566958 62.1609686,19.0761634 62.1787186,19.1233577 C62.5751353,20.3315303 63.0188853,21.523185 63.4153019,22.7295879 C62.8473019,23.8362929 62.2733853,24.9394584 61.6758019,26.0320052 C60.9598853,25.3411994 60.3741353,24.4627965 60.0783019,23.5100627 C60.0428019,23.4156742 59.9008019,23.4546095 59.9244686,23.5507677 C60.1670519,24.5742929 60.7113853,25.5370555 61.4154686,26.3163505 C61.4391353,26.345257 61.4687186,26.3458469 61.4983019,26.3541059 C60.7883019,27.6560771 60.0723853,28.9550987 59.3505519,30.2517605 C58.7529686,29.2305951 58.2500519,28.1545663 57.8240519,27.0543505 C57.8063019,27.0083361 57.7353019,27.025444 57.7471353,27.0738181 C58.1080519,28.3061778 58.5518019,29.5155303 59.1198019,30.6694296 C58.5399686,31.7071131 57.9719686,32.748926 57.4039686,33.7919188 C57.1022186,33.0975735 56.8241353,32.396149 56.6821353,31.6404512 C56.6229686,31.3490267 56.1792186,31.4723217 56.2324686,31.7625663 C56.4040519,32.6604368 56.7649686,33.479257 57.1258853,34.3004368 C56.9720519,34.5930411 56.8063853,34.8821059 56.6525519,35.1753001 C56.0963853,36.2200627 55.5698019,37.2890123 55.0668853,38.3715303 C54.7828853,37.6718757 54.3805519,36.9857893 54.1261353,36.3191706 C53.8243853,35.5445951 53.5226353,34.7794584 53.1380519,34.0432282 C54.0669686,32.256926 55.0077186,30.485962 55.9484686,28.722667 C56.1733019,28.7633721 56.4277186,28.5840339 56.3567186,28.2949692 C56.3330519,28.2188685 56.3153019,28.1451275 56.2916353,28.0690267 C57.2560519,26.2679764 58.2086353,24.4686958 59.1493853,22.6641059 C59.4156353,22.6340195 59.6700519,22.3956886 59.5694686,22.0800771 C59.5576353,22.0352426 59.5339686,21.9927677 59.5221353,21.9485231 C60.0783019,20.8813433 60.6167186,19.8088541 61.1551353,18.7340052 C61.2379686,18.5941922 61.3267186,18.4537893 61.4095519,18.3151562 C62.0308019,17.3299764 62.4804686,16.2563073 62.8768853,15.1596311 C63.8294686,13.1190699 64.7228853,11.0448828 65.5571353,8.93176055 C65.7642186,8.64210587 65.9772186,8.35953033 66.2198019,8.09052314 C66.3026353,8.001444 66.3499686,7.90587566 66.3736353,7.80912745 C67.5510519,8.49521378 68.7166353,9.21374616 69.8585519,9.95941522 C70.0538019,10.0862498 70.2431353,10.0856598 70.4028853,10.018408 C70.0597186,10.4673433 69.7283853,10.9239476 69.4148019,11.3858613 C69.4148019,11.3663936 69.4148019,11.346926 69.4029686,11.3250987 C68.9769686,10.7133433 68.5568853,10.0886095 68.0303019,9.56121378 C67.9593019,9.49160227 67.8528019,9.59778932 67.9178853,9.67035048 C68.4208019,10.2036454 68.8113019,10.8283793 69.2018019,11.4407246 C69.2432186,11.4991275 69.3023853,11.5014872 69.3556353,11.47848 C69.0361353,11.9486526 68.7343853,12.4259044 68.4385519,12.9078757 C67.9829686,12.0418613 67.5333019,11.1734872 67.2019686,10.24789 C67.1487186,10.109257 66.9298019,10.1670699 66.9771353,10.3086526 C67.3143853,11.3133001 67.7877186,12.2565951 68.2669686,13.1987102 Z M51.9488019,62.1143649 C51.5287186,68.1139332 51.7535519,74.1488972 51.7358019,80.1602641 C48.4343019,79.6057318 45.1387186,79.9360915 41.7958019,80.1838613 C37.1157186,80.5378181 32.3468853,80.1602641 27.6727186,79.9124944 C19.1941353,79.464149 9.70971861,78.7385375 1.23705194,80.136667 C1.24296861,80.1130699 1.24888528,80.0953721 1.24888528,80.0717749 C1.29621861,57.2710555 3.13038528,33.9500195 0.355468608,11.2672857 C7.52055194,10.7139332 14.5791353,11.412408 21.7383019,11.3357174 C29.8914686,11.2472282 38.0446353,12.6276598 46.1800519,12.2306382 C43.0974686,18.0597174 40.2693019,24.0516167 37.3523853,29.9042929 C37.2991353,29.8913145 37.2458853,29.8683073 37.1867186,29.8677174 C27.3413853,29.6695016 17.3244686,28.8489116 7.50280194,29.5993001 C7.34896861,29.6105087 7.35488528,29.8163936 7.50280194,29.8293721 C17.1351353,30.6523217 26.9627186,31.40448 36.6423853,31.3277893 C35.6838853,33.2438757 34.7253853,35.1635016 33.7728019,37.0825375 C33.6426353,36.9415447 33.4533019,36.8501059 33.1988853,36.8577749 C28.4418853,37.0111562 23.7322186,36.2536886 18.9870519,36.3345087 C15.3956353,36.3958613 11.0883019,37.5680483 7.57380194,36.5221059 C7.26021861,36.4300771 7.13005194,36.8442066 7.36671861,37.0135159 C9.94046861,38.874739 14.1117186,38.1803936 17.0759686,38.1385087 C22.4187186,38.062408 27.7378019,38.6889116 33.0805519,38.4753577 C31.9090519,40.8327102 30.7493853,43.1947821 29.5956353,45.5592138 C27.5603019,44.8855159 25.0516353,45.2512713 22.9867186,45.2683793 C18.5610519,45.3025951 14.1353853,45.0919908 9.71563528,44.9828541 C9.47896861,44.9769548 9.47896861,45.2831275 9.66238528,45.3598181 C13.1473019,46.7785951 17.3067186,46.7260915 21.0164686,46.910149 C23.2707186,47.0216454 26.5781353,46.3733145 28.7968853,47.1266526 C28.3058019,47.9867677 27.4301353,49.3259044 26.6905519,50.7051562 C26.6846353,50.7110555 26.6668853,50.7110555 26.6550519,50.7169548 C26.5426353,50.7700483 26.5248853,50.8762354 26.5544686,50.9706239 C25.7853019,52.4572426 25.2291353,53.937962 25.5249686,54.864149 C20.5194686,52.9527821 13.1177186,53.3480339 8.32521861,55.3301922 C8.04713528,55.4481778 8.15363528,55.8198325 8.44946861,55.7785375 C11.0113853,55.389185 13.7330519,55.4186814 16.3186353,55.4363793 C19.1586353,55.4481778 22.5015519,55.3183936 25.1640519,56.439257 C24.7498853,58.5865951 24.8504686,60.8401203 24.9333019,63.0169548 L24.9333019,63.0287534 C21.5312186,61.9314872 17.8214686,62.3562354 14.1945519,62.7927821 C12.8041353,62.6570987 11.4373853,62.6688972 10.4907186,63.1762354 C10.0824686,63.2057318 9.67421861,63.2352282 9.27188528,63.2470267 C9.23046861,63.2470267 9.21863528,63.3119188 9.26596861,63.3237174 C9.54996861,63.3945087 9.83988528,63.4476023 10.1238853,63.5006958 C10.0173853,63.736667 10.0824686,64.0316311 10.3309686,64.1909116 C11.1593019,64.7395447 12.2183853,64.6510555 13.1768853,64.6923505 C14.9755519,64.7749404 16.7683019,64.8870267 18.5551353,64.9814152 C19.4012186,65.0286095 20.9454686,65.1406958 22.2767186,64.9755159 C23.1878853,65.0640052 24.0931353,64.9873145 24.9924686,64.7631418 C25.0693853,66.680408 25.1344686,68.6035735 25.1995519,70.526739 C19.3893853,70.3497605 13.6028853,70.4146526 7.93471861,71.199257 C7.89921861,71.2051562 7.89921861,71.2700483 7.93471861,71.2700483 C13.6147186,72.0900483 19.4308019,72.4911994 25.2705519,72.6917749 C25.2942186,73.5176742 25.3238019,74.3494728 25.3474686,75.1753721 C25.3297186,75.2107677 25.3415519,75.2520627 25.3652186,75.2815591 C25.4480519,75.8419908 26.2645519,75.8714872 26.4006353,75.3700483 C26.4657186,75.364149 26.5308019,75.3464512 26.5958853,75.3169548 C26.6846353,75.2815591 26.7615519,75.2225663 26.8207186,75.1340771 C27.1106353,74.8391131 27.3946353,74.5382498 27.6786353,74.2314872 C28.5779686,73.7772426 29.4773019,73.2994008 30.3707186,72.8156598 C35.9264686,72.9100483 41.4763019,72.8746526 46.9314686,72.8864512 C47.9254686,72.8923505 47.9254686,71.3526382 46.9314686,71.3526382 C42.5886353,71.3408397 38.1866353,71.116667 33.7668853,70.8983936 C36.5891353,69.2406958 39.3581353,67.4768109 42.0324686,65.6480339 C42.1034686,65.7070267 42.1922186,65.7601203 42.2928019,65.7955159 C42.9318019,65.9842929 43.6832186,65.754221 44.3163019,65.6126382 C44.3458853,65.6126382 44.3695519,65.6008397 44.3932186,65.5949404 C44.4997186,65.606739 44.6062186,65.6185375 44.7127186,65.6303361 C44.9612186,65.6539332 45.1209686,65.524149 45.2038019,65.3471706 C45.5469686,65.2055879 45.8664686,65.0168109 46.1800519,64.745444 C46.3102186,64.6333577 46.2037186,64.4209836 46.0439686,64.4209836 C45.4168019,64.409185 44.7778019,64.409185 44.1506353,64.3796886 C44.0086353,64.36789 43.8607186,64.3501922 43.7128019,64.3324944 C47.5113019,59.2591131 50.2093019,53.1474584 52.7298019,47.0641203 C52.8540519,52.0855879 52.2978853,57.1117749 51.9488019,62.1143649 Z M51.3808019,4.74858069 C52.9723853,4.65773177 54.4515519,4.41940084 56.0253853,4.13387566 C56.0727186,4.12443681 56.0490519,4.03712745 56.0017186,4.0548253 C54.6468019,4.53561666 53.0256353,4.40996199 51.5760519,4.32914184 C52.1677186,3.01478213 52.7416353,1.69452314 53.2918853,0.363055511 C53.6883019,2.06617781 55.3982186,2.92511307 56.9957186,3.51563105 C56.9247186,3.60530012 56.8596353,3.69437925 56.7945519,3.78404832 C56.4277186,4.20702673 56.1200519,4.66599076 55.8597186,5.15622098 C55.6644686,5.46947278 55.4514686,5.77918501 55.2621353,6.09951594 C54.9426353,5.99037925 54.6053853,6.32899796 54.7178019,6.68000515 C53.2859686,6.7230699 51.8304686,6.69062386 50.4045519,6.87114184 C50.7358853,6.16617781 51.0613019,5.45826414 51.3808019,4.74858069 Z M65.0897186,9.65737206 C64.6992186,10.5298757 64.3028019,11.3982498 63.8945519,12.2613145 C64.2258853,11.3593145 64.6045519,10.4797318 65.0897186,9.65737206 Z M54.0965519,30.5089692 C54.0669686,30.4222498 54.0314686,30.3390699 54.0018853,30.2523505 C54.4042186,29.5987102 54.8065519,28.9427102 55.1970519,28.280221 C55.2503019,28.2023505 55.3035519,28.12448 55.3568019,28.0471994 C55.3745519,28.0755159 55.3923019,28.1044224 55.4100519,28.132739 C54.9722186,28.9238325 54.5343853,29.7166958 54.0965519,30.5089692 Z M32.4948019,70.1550843 C31.7788853,69.1168109 30.7079686,68.2614152 29.5068853,67.8661634 C28.4241353,67.5122066 27.1816353,66.9871706 26.0101353,66.8042929 C25.9864686,65.8958037 25.9864686,64.9873145 26.0219686,64.072926 C26.1166353,61.5480339 25.5723019,59.0290411 25.7320519,56.5218469 C26.2468019,56.439257 26.6018019,55.9024224 26.4538853,55.4776742 C28.1342186,54.4511994 30.6073853,57.2415591 30.7198019,58.8697605 C30.7257186,58.9110555 30.7908019,58.9228541 30.7967186,58.8756598 C30.8085519,58.8107677 30.8026353,58.7458757 30.8085519,58.6809836 C31.0038019,58.964149 31.4534686,59.0703361 31.6368853,58.6809836 C31.6842186,58.5806958 31.7315519,58.480408 31.7788853,58.3801203 C32.8616353,58.3034296 34.0272186,58.3152282 34.9620519,58.7222785 C35.2283019,58.8402641 35.4472186,59.005444 35.6424686,59.1883217 C35.6838853,59.2886095 35.7193853,59.3947965 35.7608019,59.489185 C35.8199686,59.6189692 35.9264686,59.6720627 36.0388853,59.6720627 C36.6246353,60.5746526 36.7548019,61.8253001 36.7903019,62.8458757 C36.8021353,63.1821346 37.0388019,63.3650123 37.3050519,63.4122066 C37.4056353,63.736667 37.7606353,63.9962354 38.1393019,63.7838613 C38.9558019,63.3296167 39.9498019,63.1703361 40.8668853,63.1821346 C41.2573853,63.1880339 41.8194686,63.1998325 42.1448853,63.4535016 C42.3105519,63.589185 42.3756353,63.7720627 42.3815519,63.9726382 C39.0978019,66.00789 35.7548853,68.0313433 32.4948019,70.1550843 Z M26.0456353,67.6832857 C26.0397186,67.6537893 26.0397186,67.6183936 26.0397186,67.5888972 C26.0633853,67.6065951 26.0929686,67.6301922 26.1166353,67.64789 C26.0929686,67.6596886 26.0693019,67.6655879 26.0456353,67.6832857 Z M29.7908853,69.6005519 L29.7908853,69.5415591 C29.8323019,69.5651562 29.8737186,69.5887534 29.9151353,69.6182498 C29.8737186,69.6064512 29.8323019,69.6064512 29.7908853,69.6005519 Z M59.1375519,4.75565983 C58.9363853,4.52322817 58.7352186,4.2966958 58.5340519,4.06721378 C58.8180519,4.17163105 59.1079686,4.27250875 59.3919686,4.38341522 C59.2499686,4.45125695 59.1375519,4.58812026 59.1375519,4.75565983 Z M60.6818019,5.28128573 C60.5457186,5.2093145 60.4096353,5.1503217 60.2617186,5.09958789 C60.1552186,4.91965983 60.0605519,4.75801954 59.9777186,4.62351594 C60.2025519,4.71495479 60.4273853,4.80698357 60.6522186,4.90314184 C60.6581353,5.02938645 60.6699686,5.15504112 60.6818019,5.28128573 Z M61.5042186,5.33024976 C61.4923853,5.30724256 61.4746353,5.28423537 61.4628019,5.26063825 C61.4923853,5.27302673 61.5160519,5.28541522 61.5456353,5.29780371 C61.5278853,5.30783249 61.5160519,5.31845119 61.5042186,5.33024976 Z M63.1549686,6.35554472 C62.9656353,6.15496918 62.7644686,5.95793321 62.5514686,5.76207709 C62.8177186,5.89186127 63.0839686,6.03108429 63.3561353,6.16617781 C63.2673853,6.20983249 63.1904686,6.2688253 63.1549686,6.35554472 Z M65.1548019,7.33423537 C65.1311353,7.31063825 65.1193019,7.28409148 65.0897186,7.26285407 L64.4625519,6.74135767 C64.7347186,6.8870699 65.0068853,7.03455191 65.2790519,7.18498357 C65.2376353,7.23217781 65.1962186,7.28586127 65.1548019,7.33423537 Z M53.8835519,29.9414584 C53.7829686,29.6736311 53.6883019,29.3993145 53.5818019,29.1379764 C53.8362186,29.3190843 54.2622186,29.0878325 54.1616353,28.7297462 C53.9782186,28.0542785 53.7533853,27.4065375 53.5167186,26.7676454 C53.8007186,27.2207102 54.0965519,27.6672857 54.3687186,28.132739 C54.5166353,28.3928972 54.7947186,28.3504224 54.9426353,28.1793433 C54.9367186,28.189962 54.9308019,28.1999908 54.9248853,28.2100195 C54.5698853,28.7981778 54.2267186,29.3757174 53.8835519,29.9414584 Z M53.2386353,31.2552282 C52.9546353,30.838149 52.6588019,30.4257893 52.3570519,30.0193289 C52.1026353,29.6040195 51.8541353,29.1834008 51.6233853,28.7568828 L51.6233853,28.7362354 C52.2032186,29.4813145 52.8067186,30.2157749 53.4102186,30.9561346 C53.3510519,31.0552426 53.2978019,31.1561203 53.2386353,31.2552282 Z M52.6114686,33.2450555 C52.2387186,32.4504224 51.8245519,31.6864656 51.3630519,30.9502354 C51.4222186,30.9543649 51.4873019,30.9272282 51.4932186,30.8558469 C51.5287186,30.6617605 51.5346353,30.4735735 51.5583019,30.2830267 C51.6352186,30.3903936 51.7121353,30.4965807 51.7949686,30.6051275 C52.1558853,31.1797174 52.5463853,31.7448685 52.9723853,32.2958613 C52.9842186,32.3129692 52.9960519,32.3294872 53.0078853,32.347185 L53.0078853,32.3454152 C53.0256353,32.3666526 53.0374686,32.3890699 53.0552186,32.4108972 C52.9013853,32.6875735 52.7593853,32.9671994 52.6114686,33.2450555 Z M51.7653853,34.8284224 C51.3393853,33.7022498 50.6175519,32.7890411 49.8365519,31.9100483 C49.3809686,30.8888828 48.9845519,29.8453001 48.6236353,28.7899188 C48.6236353,28.6565951 48.6354686,28.53389 48.6473019,28.4288828 C48.7064686,28.5215016 48.7715519,28.6141203 48.8366353,28.706149 C49.5111353,30.6729692 50.4696353,32.4639908 52.1263019,34.1523649 C52.0020519,34.3788972 51.8837186,34.60248 51.7653853,34.8284224 Z M50.9725519,36.3527965 C50.4814686,35.4325087 49.9548853,34.5411275 49.4105519,33.6609548 C49.3336353,33.3866382 49.2626353,33.1087821 49.1679686,32.8385951 C49.1383853,32.7394872 49.1088019,32.6403793 49.0792186,32.5400915 C49.1324686,32.5595591 49.1798019,32.5589692 49.2271353,32.5341922 C49.4519686,33.0261922 49.7004686,33.5093433 49.9489686,33.9924944 C50.1619686,34.5664944 50.1560519,34.5411275 50.5761353,35.2142354 C50.6885519,35.3929836 50.8660519,35.4277893 51.0198853,35.381185 C51.0968019,35.4785231 51.1914686,35.58648 51.2979686,35.7156742 C51.1855519,35.9280483 51.0790519,36.1410123 50.9725519,36.3527965 Z M50.3513019,37.5698181 C49.8306353,36.3704944 49.2685519,35.1829692 48.6473019,34.0302498 C48.6473019,33.9128541 48.6473019,33.7954584 48.6532186,33.6786526 C48.7952186,33.9222929 48.9431353,34.1659332 49.0910519,34.4095735 C49.4046353,35.2413721 49.8247186,36.0448541 50.4518853,36.8017318 C50.5228853,36.8849116 50.6057186,36.914408 50.6885519,36.9114584 C50.5761353,37.1315016 50.4637186,37.3503649 50.3513019,37.5698181 Z M49.8779686,38.5001346 C49.8661353,38.4157749 49.8543019,38.3266958 49.8424686,38.2423361 C49.8838853,38.2393864 49.9253019,38.2299476 49.9667186,38.2146095 C49.9726353,38.2311275 49.9785519,38.2464656 49.9844686,38.2623936 C49.9903853,38.2665231 49.9903853,38.2682929 49.9963019,38.2724224 C49.9548853,38.3485231 49.9134686,38.4240339 49.8779686,38.5001346 Z M48.5703853,41.1500915 C48.4283853,40.4994008 48.2390519,39.874667 47.9964686,39.2788397 C48.1562186,39.3962354 48.3869686,39.4044944 48.5348853,39.2983073 C48.5763019,39.5602354 48.6532186,39.8445807 48.7952186,40.0776023 C48.8484686,40.1655016 48.9253853,40.2174152 49.0141353,40.2427821 C48.8662186,40.5448253 48.7183019,40.8474584 48.5703853,41.1500915 Z M46.0380519,46.426408 C45.8428019,45.450667 45.5765519,44.5020627 45.2629686,43.5693864 C45.3043853,43.5451994 45.3398853,43.5115735 45.3517186,43.4608397 C45.3694686,43.3664512 45.3872186,43.277962 45.3990519,43.1865231 C45.6357186,43.5546382 45.8664686,43.925703 46.1090519,44.2896886 C46.3279686,44.6100195 46.9788019,44.5374584 46.9255519,44.0696454 C46.8368019,43.3340052 46.6356353,42.6520483 46.3812186,41.9978181 C46.7717186,42.3936598 47.1977186,42.7334584 47.6651353,43.0083649 C47.1208019,44.1451562 46.5764686,45.2837174 46.0380519,46.426408 Z M44.4109686,49.9170123 C44.2748853,48.9288828 44.0973853,47.9525519 43.8666353,46.992739 C43.9435519,47.1248828 44.0145519,47.2605663 44.1033019,47.3915303 C44.2157186,47.5673289 44.3991353,47.6204224 44.5648019,47.5921059 C44.7008853,47.894739 44.8547186,48.189703 44.9848853,48.4964656 C45.0026353,48.5283217 45.0203853,48.5483793 45.0381353,48.5731562 C44.8251353,49.0215016 44.6180519,49.4680771 44.4109686,49.9170123 Z M42.7247186,53.117962 C42.6418853,52.7227102 42.5531353,52.3274584 42.4466353,51.9440052 C42.7424686,52.1386814 43.2572186,52.0088972 43.1980519,51.5782498 C43.0856353,50.7228541 42.8785519,49.9028541 42.6241353,49.0940627 C42.6655519,49.1524656 42.7069686,49.2043793 42.7483853,49.2645519 C42.8253019,49.3831275 42.9909686,49.3902066 43.0856353,49.3152857 C43.2690519,49.8108253 43.4465519,50.3110843 43.6003853,50.8172426 C43.6418019,50.9470267 43.7246353,51.0296167 43.8252186,51.0827102 C43.4761353,51.772926 43.1093019,52.4513433 42.7247186,53.117962 Z M41.2278019,52.1563793 C41.4289686,52.5870267 41.6301353,53.0235735 41.8076353,53.4719188 C41.9141353,53.7255879 42.1212186,53.8199764 42.3223853,53.8022785 C42.1034686,54.1739332 41.8845519,54.5455879 41.6597186,54.9172426 C41.6597186,54.905444 41.6656353,54.8995447 41.6656353,54.8936454 C41.6419686,53.9497605 41.4822186,53.0412713 41.2278019,52.1563793 Z M40.5414686,55.34789 C40.6775519,55.4009836 40.8313853,55.3832857 40.9615519,55.3183936 C41.1094686,55.3832857 41.2869686,55.3832857 41.4230519,55.3124944 C41.1390519,55.7903361 40.8550519,56.2681778 40.5769686,56.7460195 C40.5828853,56.2622785 40.5710519,55.7962354 40.5414686,55.34789 Z M35.1040519,57.7901922 C35.0744686,57.7783936 35.0508019,57.7783936 35.0271353,57.7665951 C35.0448853,57.7488972 35.0626353,57.7370987 35.0744686,57.7135016 C35.0863019,57.742998 35.0922186,57.7665951 35.1040519,57.7901922 Z M33.9029686,56.8758037 C34.0627186,57.1176742 34.2106353,57.365444 34.3526353,57.6191131 C34.1928853,57.6014152 34.0390519,57.5837174 33.8733853,57.5837174 C33.8911353,57.365444 33.9029686,57.1176742 33.9029686,56.8758037 Z M32.8083853,56.2386814 C32.9681353,56.692926 33.1278853,57.1530699 33.2817186,57.6132138 C32.8557186,57.6663073 32.4297186,57.7665951 32.0096353,57.8963793 C32.2758853,57.3477462 32.5421353,56.7932138 32.8083853,56.2386814 Z M33.0036353,55.8257318 C34.1100519,58.1146526 33.4355519,56.9937893 32.9148853,56.0086095 C32.9444686,55.9496167 32.9740519,55.8847246 33.0036353,55.8257318 Z M33.5065519,54.7815591 C33.7668853,55.2888972 33.9680519,55.6723505 34.1041353,55.9260195 C33.9443853,55.6546526 33.7136353,55.2888972 33.4473853,54.8995447 C33.4651353,54.8582498 33.4828853,54.8169548 33.5065519,54.7815591 Z M33.9503019,53.8553721 C33.9562186,53.8730699 33.9562186,53.896667 33.9621353,53.9202641 C33.9325519,53.9556598 33.8970519,53.9851562 33.8674686,54.0205519 C33.8970519,53.9615591 33.9207186,53.9084656 33.9503019,53.8553721 Z M36.2696353,49.0274008 C36.2518853,49.1371275 36.2459686,49.247444 36.2163853,49.3565807 C36.3288019,49.8326526 36.4648853,50.3028253 36.5950519,50.7759476 C36.4175519,50.3417605 36.2400519,49.9105231 36.0448019,49.4857749 C36.1217186,49.3329836 36.1927186,49.1801922 36.2696353,49.0274008 Z M37.2577186,46.9856598 C37.5772186,49.1088109 38.3878019,51.0532138 39.1155519,53.1002641 C39.1510519,53.2005519 39.2398019,53.4483217 39.3463019,53.749185 C39.3877186,53.9025663 39.4232186,54.0618469 39.4587186,54.2152282 C39.3581353,54.2447246 39.2753019,54.2978181 39.2102186,54.3863073 C39.1983853,54.3509116 39.1865519,54.3332138 39.1688019,54.3037174 C38.2221353,52.3805519 37.3997186,50.3865951 36.5773019,48.410926 C36.5713853,48.4079764 36.5713853,48.4079764 36.5713853,48.4044368 C36.7962186,47.9313145 37.0269686,47.4581922 37.2577186,46.9856598 Z M39.4823853,47.1024656 C39.0563853,46.4199188 38.6244686,45.7367821 38.1866353,45.0518757 C38.2517186,44.917962 38.3168019,44.7834584 38.3818853,44.6489548 C38.7368853,45.4730843 39.1096353,46.2901346 39.4823853,47.1024656 Z M39.0031353,49.1601346 C39.1333019,49.4291418 39.2575519,49.6993289 39.3818019,49.9706958 C39.2338853,49.8255735 39.1096353,49.5559764 39.0031353,49.1601346 Z M40.3048019,52.4808397 C40.2101353,52.5280339 40.1273019,52.5988253 40.0799686,52.7050123 C40.0681353,52.6873145 40.0622186,52.6696167 40.0503853,52.6519188 C39.9083853,52.3923505 39.6303019,52.3628541 39.4173019,52.4690411 C38.9617186,51.0945087 38.4292186,49.7329548 37.9913853,48.3194872 C37.0802186,45.3556886 38.2458019,48.7513145 38.5416353,49.3323936 C38.9143853,50.0609548 39.3877186,50.6815591 39.9083853,51.2714872 C40.0563019,51.6726382 40.1923853,52.0737893 40.3048019,52.4808397 Z M37.0506353,54.4865951 C37.5772186,56.0027102 38.1511353,57.4539332 38.8788853,58.8815591 C38.5653019,58.6809836 37.6423019,56.881703 37.4293019,56.4451562 C37.1157186,55.8139332 36.8376353,55.1768109 36.5358853,54.5514872 C36.7015519,54.6399764 36.9204686,54.61048 37.0506353,54.4865951 Z M36.8435519,49.6698325 C37.2103853,51.0178181 38.1570519,53.3539332 39.1037186,55.34789 C39.0978019,55.8316311 39.0859686,56.3212713 39.0682186,56.7991131 C38.3582186,54.4158037 37.5003019,52.0796886 36.8435519,49.6698325 Z M35.7844686,53.0825663 C35.8554686,53.1533577 35.9383019,53.2064512 36.0388853,53.224149 C36.0980519,53.4483217 36.1572186,53.6842929 36.2282186,53.9143649 C36.0862186,53.6311994 35.9383019,53.3598325 35.7844686,53.0825663 Z M41.3224686,48.0510699 C41.0088853,47.419257 40.7071353,46.7827246 40.3994686,46.1491418 C40.4231353,46.1786382 40.4408853,46.1986958 40.4645519,46.229962 C40.5828853,46.3845231 40.6893853,46.5225663 40.8018019,46.6659188 C40.9793019,47.1266526 41.1568019,47.5873864 41.3224686,48.0510699 Z M40.2042186,45.0742929 C39.9202186,44.7067677 39.6421353,44.3351131 39.3818019,43.9510699 C39.3403853,43.8885375 39.2812186,43.8608109 39.2220519,43.8501922 C39.1392186,43.7056598 39.0623019,43.5623073 38.9794686,43.4189548 C39.1273853,43.1104224 39.2753019,42.80248 39.4232186,42.4945375 C39.6184686,43.3747102 39.8965519,44.2295159 40.2042186,45.0742929 Z M40.3403019,40.5831706 C40.4941353,41.1394728 40.6775519,41.6922354 40.8787186,42.2479476 C40.6538853,41.7913433 40.4290519,41.3335591 40.2042186,40.8740052 C40.2515519,40.777257 40.2988853,40.6805087 40.3403019,40.5831706 Z M41.9969686,37.1409404 C42.2513853,37.9739188 42.5413019,38.792149 42.8489686,39.5991706 C42.4880519,39.0021634 42.0857186,38.4240339 41.6538019,37.8582929 C41.7721353,37.6193721 41.8845519,37.3798613 41.9969686,37.1409404 Z M43.2335519,34.5735735 C43.2749686,34.7387534 43.3223019,34.8992138 43.3755519,35.0596742 C43.1211353,35.0726526 42.8726353,35.282667 42.9850519,35.5670123 C43.0619686,35.7557893 43.1448019,35.9410267 43.2276353,36.1280339 C43.0797186,35.9215591 42.9377186,35.7357318 42.8075519,35.594149 C42.7898019,35.5788109 42.7779686,35.5729116 42.7602186,35.5605231 C42.9199686,35.2313433 43.0738019,34.9021634 43.2335519,34.5735735 Z M43.7483019,33.4857462 C43.9080519,33.7641922 44.0678019,34.0420483 44.2275519,34.3163649 C44.2216353,34.3712282 44.2098019,34.4290411 44.1979686,34.4839044 C44.1210519,34.3682785 44.0500519,34.2567821 43.9731353,34.1393864 C43.8607186,33.9606382 43.6832186,33.9158037 43.5234686,33.9529692 C43.6003853,33.7978181 43.6713853,33.6414872 43.7483019,33.4857462 Z M44.8192186,33.0952138 C44.7600519,33.1194008 44.7008853,33.1624656 44.6594686,33.2131994 C44.4938019,33.0055447 44.3399686,32.7955303 44.1743019,32.5884656 C44.2571353,32.4156167 44.3399686,32.2421778 44.4228019,32.068739 C44.5352186,32.4250555 44.6653853,32.7642641 44.8192186,33.0952138 Z M45.6653019,29.4488685 C46.1445519,30.075962 46.6178853,30.7042354 47.0734686,31.3425375 C47.1208019,31.4392857 47.1740519,31.5513721 47.2273019,31.658739 C46.7362186,30.9177893 46.2037186,30.2039764 45.6298019,29.5208397 C45.6416353,29.4966526 45.6534686,29.4730555 45.6653019,29.4488685 Z M46.5528019,27.5805663 C46.5705519,28.0731562 46.6593019,28.5138325 46.8072186,28.9450699 C46.7184686,28.8235447 46.6356353,28.7008397 46.5528019,28.5710555 C46.4995519,28.4872857 46.3753019,28.5616167 46.4226353,28.648926 C46.5173019,28.8194152 46.6356353,29.0146814 46.7658019,29.2205663 C46.6593019,29.198739 46.5409686,29.2335447 46.4699686,29.3114152 C46.3043019,29.1208685 46.1386353,28.9415303 45.9848019,28.7757605 C46.1563853,28.4123649 46.3338853,28.050739 46.5054686,27.6867534 C46.5173019,27.6513577 46.5350519,27.615962 46.5528019,27.5805663 Z M47.1208019,26.7499476 C47.0734686,26.7216311 47.0202186,26.7127821 46.9669686,26.7110123 C46.9965519,26.64789 47.0261353,26.5847677 47.0557186,26.5222354 C47.0793853,26.5977462 47.0971353,26.6738469 47.1208019,26.7499476 Z M47.8248853,24.9087821 C47.9136353,25.286926 47.9964686,25.6715591 48.0793019,26.0373145 C47.9313853,25.7936742 47.7834686,25.5459044 47.6414686,25.2975447 C47.7065519,25.1683505 47.7657186,25.0391562 47.8248853,24.9087821 Z M49.1324686,22.1650267 C49.7182186,23.540739 50.4341353,24.8391706 51.1737186,26.131703 C51.1973853,26.4042498 51.2269686,26.6826958 51.2565519,26.9611418 C50.3868019,25.7317318 49.6353853,24.4557174 49.0851353,22.983257 C49.0378019,22.8640915 48.9549686,22.7885807 48.8543853,22.7496454 C48.9490519,22.5549692 49.0437186,22.3602929 49.1324686,22.1650267 Z M50.1560519,19.9250699 C50.1560519,19.9362785 50.1560519,19.9463073 50.1619686,19.9575159 C50.3690519,20.4099908 50.5998019,20.8518469 50.8246353,21.2942929 C50.7418019,21.1662785 50.6589686,21.0412138 50.5761353,20.9126095 C50.3217186,20.5073289 49.6827186,20.8736742 49.9312186,21.2883936 C50.3513019,21.9974872 50.7477186,22.7177893 51.1500519,23.4375016 C51.1382186,23.5879332 51.1145519,23.7413145 51.1086353,23.8911562 C50.6175519,23.1354584 50.1323853,22.3703217 49.7004686,21.5691994 C49.6472186,21.4771706 49.5703019,21.425257 49.4874686,21.4022498 C49.7123019,20.9114296 49.9371353,20.4188397 50.1560519,19.9250699 Z M50.3927186,19.4371994 C50.3808853,19.440149 50.3690519,19.4436886 50.3631353,19.4478181 C50.3690519,19.4259908 50.3808853,19.4035735 50.3927186,19.3817462 L50.3927186,19.4371994 Z M57.5755519,4.58045119 C57.5578019,4.57101235 57.5400519,4.56865263 57.5223019,4.5615735 C57.5578019,4.52853753 57.5933019,4.49786127 57.6347186,4.46659508 C57.6820519,4.5426958 57.7234686,4.61879652 57.7708019,4.69548717 C57.6998019,4.65891163 57.6465519,4.61584688 57.5755519,4.58045119 Z M60.5043019,5.49424976 C60.5634686,5.52728573 60.6403853,5.55088285 60.7054686,5.58627853 C60.7113853,5.68243681 60.7232186,5.77564544 60.7291353,5.87121378 C60.6522186,5.74378932 60.5753019,5.61695479 60.5043019,5.49424976 Z M55.4692186,25.3122929 C55.5106353,25.3901634 55.5520519,25.4639044 55.5934686,25.5423649 C55.7058853,25.7818757 56.0017186,25.8290699 56.2265519,25.7281922 C56.1023019,25.9753721 55.9721353,26.2201922 55.8419686,26.467962 C55.7236353,26.0803793 55.6053019,25.6939764 55.4692186,25.3122929 Z M52.8895519,22.974998 C52.8718019,22.9053864 52.8540519,22.8345951 52.8422186,22.7638037 C53.0907186,23.146667 53.3628853,23.5212713 53.6646353,23.8817174 C53.8184686,24.0575159 54.0433019,24.0598757 54.2208019,23.9696167 C54.5048019,24.6627821 54.7710519,25.3659764 55.0136353,26.0833289 C56.0313019,29.0459476 54.3273019,25.2291131 53.8658019,24.5176598 C53.5344686,24.0067821 53.2090519,23.4905951 52.8895519,22.974998 Z M51.6707186,24.3548397 C51.8541353,24.7259044 52.0375519,25.0969692 52.2150519,25.4680339 L52.2150519,25.5441346 C51.9665519,25.17248 51.7180519,24.8008253 51.4695519,24.4291706 C51.4991353,24.35248 51.5464686,24.2775591 51.5819686,24.2014584 C51.6115519,24.2533721 51.6411353,24.302926 51.6707186,24.3548397 Z M51.2210519,19.7893864 C51.5938019,20.5775303 51.9783853,21.3497462 52.4162186,22.0912857 C52.4280519,22.1508685 52.4339686,22.2098613 52.4458019,22.2718037 C51.9843019,21.5373433 51.5287186,20.8011131 51.0790519,20.0654728 C51.1263853,19.9746239 51.1737186,19.8825951 51.2210519,19.7893864 Z M54.3095519,11.1599188 C54.2563019,11.1540195 54.2030519,11.1575591 54.1498019,11.1687677 C54.1734686,11.1003361 54.2030519,11.0330843 54.2267186,10.9652426 C54.2563019,11.0289548 54.2799686,11.0956167 54.3095519,11.1599188 Z M55.1556353,8.73059508 C56.0017186,10.0567534 56.8892186,11.3540052 57.7234686,12.6783936 C58.1731353,13.6293577 58.5281353,14.6174872 58.7707186,15.6262641 C57.4690519,13.6205087 56.3034686,11.5351131 54.7296353,9.71223537 C54.8657186,9.38305551 55.0136353,9.05800515 55.1556353,8.73059508 Z M58.6523853,19.7333433 C58.7233853,19.7404224 58.7884686,19.7038469 58.8239686,19.6348253 C58.8594686,19.686149 58.9008853,19.7374728 58.9304686,19.7887965 C58.9837186,19.8613577 59.0428853,19.9091418 59.1020519,19.9457174 C59.0428853,20.0690123 58.9837186,20.1928972 58.9186353,20.3167821 C58.8358019,20.1185663 58.7411353,19.9286095 58.6523853,19.7333433 Z M58.4453019,19.0891418 L58.4571353,19.3139044 C58.3683853,19.1215879 58.2914686,18.9221922 58.1908853,18.7328253 C58.2737186,18.8514008 58.3565519,18.9699764 58.4453019,19.0891418 Z M58.4157186,16.7394584 C58.5222186,16.9005087 58.6405519,17.0568397 58.7529686,17.2167102 C58.7233853,17.21789 58.7056353,17.2202498 58.6760519,17.2214296 C58.5873019,17.0609692 58.5044686,16.898739 58.4157186,16.7394584 Z M58.7293019,12.2153001 C58.7293019,12.232998 58.7233853,12.2465663 58.7233853,12.2660339 C58.7233853,12.323257 58.7352186,12.3751706 58.7352186,12.4318037 C58.5458853,12.0630987 58.3506353,11.6926239 58.1553853,11.3250987 C58.3447186,11.6224224 58.5399686,11.9179764 58.7293019,12.2153001 Z M56.5342186,6.34020659 C57.0844686,7.55073896 57.6998019,8.72587566 58.2914686,9.90868141 C57.6465519,8.91760227 56.9779686,7.94658069 56.2088019,7.04517062 C56.3330519,6.81745839 56.4336353,6.57853753 56.5342186,6.34020659 Z M56.4691353,5.88183249 C56.3626353,6.22753033 56.2147186,6.55730012 56.0549686,6.88176055 C56.0431353,6.86524256 56.0253853,6.84872458 56.0135519,6.83279652 C56.1673853,6.50361666 56.3212186,6.17443681 56.4809686,5.84761666 C56.4750519,5.8588253 56.4750519,5.87062386 56.4691353,5.88183249 Z M56.9247186,5.24647997 C56.9543019,5.38275335 56.9779686,5.51666702 57.0075519,5.65058069 C56.9365519,5.63170299 56.8655519,5.63052314 56.7945519,5.6529404 C56.8418853,5.51784688 56.8892186,5.38393321 56.9247186,5.24647997 Z M59.9244686,13.9732857 C59.9481353,14.2452426 59.9658853,14.5195591 59.9777186,14.7921059 C59.9244686,14.6906382 59.8712186,14.5868109 59.8179686,14.4847534 C59.7410519,14.18389 59.6878019,13.8777174 59.6404686,13.5668253 C59.7351353,13.7025087 59.8298019,13.8387821 59.9244686,13.9732857 Z M61.4628019,12.1333001 C61.6107186,12.3049692 61.8059686,12.2967102 61.9598019,12.2035016 C61.9657186,12.2076311 61.9716353,12.2111706 61.9775519,12.2153001 C61.8059686,12.4848972 61.6284686,12.6730843 61.4568853,12.7220483 C61.3740519,12.5757462 61.2143019,12.511444 61.0545519,12.5291418 C61.0486353,12.5155735 61.0368019,12.5120339 61.0249686,12.4966958 C60.9184686,12.3362354 60.7350519,12.290221 60.5693853,12.3220771 C60.5161353,11.9722498 60.4628853,11.6224224 60.3918853,11.2755447 C60.3268019,10.9723217 60.0309686,10.9298469 59.8238853,11.0478325 C59.6641353,10.7145231 59.5043853,10.3812138 59.3446353,10.0502641 C59.3860519,10.08448 59.4156353,10.1228253 59.4570519,10.1570411 C59.6049686,10.2797462 59.7647186,10.3021634 59.9008019,10.2608685 C60.4155519,10.887962 60.9362186,11.5138757 61.4628019,12.1333001 Z M54.0373853,18.8213145 C53.5048853,18.0408397 52.9723853,17.2585951 52.4635519,16.4515735 C52.5404686,16.1943649 52.6114686,15.9347965 52.6824686,15.676408 C53.0197186,16.7412282 53.5285519,17.7806814 54.0373853,18.8213145 Z M57.7708019,22.6593864 C57.7648853,22.6487677 57.7589686,22.6375591 57.7530519,22.6263505 L57.7589686,22.6263505 C57.7530519,22.6228109 57.7530519,22.6198613 57.7530519,22.6169116 C56.8773853,20.5621922 55.5698019,18.6638037 54.7000519,16.6138037 C55.8656353,18.3145663 57.1613853,19.9274296 58.2441353,21.6919044 C58.0843853,22.0145951 57.9305519,22.3372857 57.7708019,22.6593864 Z M56.5874686,25.0108397 C56.5697186,25.0527246 56.5460519,25.0957893 56.5223853,25.1376742 C56.5342186,25.0845807 56.5401353,25.0303073 56.5460519,24.9772138 C56.5460519,24.9783936 56.5460519,24.9801634 56.5519686,24.9819332 C56.5638019,24.9949116 56.5756353,24.9996311 56.5874686,25.0108397 Z M56.4632186,22.6528972 C56.4218019,22.433444 56.3685519,22.2163505 56.3093853,22.0004368 C56.5223853,22.3673721 56.7235519,22.7360771 56.9306353,23.1089116 C57.0371353,23.3094872 57.2501353,23.3578613 57.4394686,23.3159764 C57.3329686,23.5283505 57.2264686,23.7401346 57.1199686,23.9530987 C56.9128853,23.5106526 56.6998853,23.0758757 56.4632186,22.6528972 Z M59.5753853,18.9841346 C59.4333853,18.6809116 59.2854686,18.3782785 59.1375519,18.0809548 C59.1967186,18.0697462 59.2736353,18.0797749 59.3623853,18.11989 C59.6049686,18.2284368 59.8593853,18.1175303 59.9185519,17.8709404 C59.9836353,17.7995591 60.0250519,17.7004512 60.0132186,17.5671275 C60.0013853,17.4060771 59.9718019,17.2485663 59.9540519,17.0886958 L59.9540519,17.0521203 C60.0013853,17.1435591 60.0428019,17.234408 60.1019686,17.3258469 C60.1493019,17.4125663 60.2203019,17.4680195 60.3031353,17.4951562 C60.0605519,17.9912857 59.8179686,18.4874152 59.5753853,18.9841346 Z M61.7527186,14.1219476 C61.7349686,13.8965951 61.7053853,13.6700627 61.6580519,13.4305519 C61.8414686,13.2600627 62.0012186,13.0836742 62.1609686,12.9090555 C62.0248853,13.3119764 61.8828853,13.7154872 61.7527186,14.1219476 Z M60.3208853,7.54247997 C60.5220519,7.7890699 60.7232186,8.03683968 60.9243853,8.28224976 C61.1492186,8.93765983 61.4213853,9.51755911 61.8000519,10.0785807 C61.9006353,10.3936023 61.9953019,10.7121634 62.0603853,11.0448828 C61.8947186,10.8814728 61.7408853,10.7151131 61.5811353,10.5505231 C61.0545519,9.51224976 60.5871353,8.44742961 60.1138019,7.3896886 C60.1788853,7.44042242 60.2498853,7.49115623 60.3208853,7.54247997 Z M58.6760519,6.36793321 C58.8121353,6.63812026 58.9363853,6.91125695 59.0606353,7.18380371 L59.0606353,7.18026414 C58.9068019,6.88412026 58.5873019,6.91420659 58.3920519,7.08528573 C58.2382186,6.70478213 58.1139686,6.31012026 58.0074686,5.90424976 C58.2382186,6.04996199 58.4571353,6.21278213 58.6760519,6.36793321 Z M50.8187186,30.1148972 C50.4045519,29.493703 49.9844686,28.8778181 49.5584686,28.2631131 C49.5348019,28.1876023 49.5111353,28.1085519 49.4874686,28.0324512 C49.9312186,28.5026239 50.4518853,29.4311706 50.8187186,30.1148972 Z M49.7478019,27.7870411 C50.1501353,28.3598613 50.5524686,28.9326814 50.9725519,29.4954728 C50.9193019,29.5686239 50.8838019,29.6447246 50.8246353,29.7155159 C50.4223019,29.0931418 50.0791353,28.4454008 49.7478019,27.7870411 Z M48.3396353,27.9787677 C48.3751353,28.0383505 48.4165519,28.0973433 48.4579686,28.1575159 C48.4520519,28.2005807 48.4520519,28.2448253 48.4461353,28.28789 C48.4106353,28.1840627 48.3692186,28.083185 48.3396353,27.9787677 Z M48.3455519,31.7997318 L48.3455519,31.994998 C48.3041353,31.9295159 48.2627186,31.8646239 48.2153853,31.7997318 C47.9846353,31.4499044 47.7657186,31.1431418 47.5645519,30.8782641 C47.2687186,30.1502929 47.7775519,30.8582066 48.2863853,31.5702498 C48.3100519,31.6463505 48.3278019,31.7236311 48.3455519,31.7997318 Z M48.4343019,23.8628397 C48.4165519,23.8239044 48.3988019,23.7973577 48.3751353,23.7660915 C48.4047186,23.7000195 48.4402186,23.6345375 48.4698019,23.5678757 C48.7419686,24.2610411 49.0141353,24.951257 49.2981353,25.6284944 C48.9727186,25.0621634 48.6768853,24.4804944 48.4343019,23.8628397 Z M47.4403019,31.9790699 C47.4698853,31.9961778 47.5053853,32.0097462 47.5349686,32.0132857 C47.7598019,32.3300771 47.9787186,32.6468685 48.1976353,32.9660195 C48.1680519,33.0120339 48.1384686,33.0379908 48.1029686,33.0627677 C47.8899686,32.6964224 47.6710519,32.3347965 47.4403019,31.9790699 Z M47.8781353,35.9823217 C48.2331353,36.463703 48.5881353,36.9338757 48.9490519,37.3975591 C49.1324686,38.0576886 48.9727186,37.9845375 48.4520519,37.169257 C48.2686353,36.7686958 48.0674686,36.3769836 47.8781353,35.9823217 Z M47.7953019,38.0187534 C47.8130519,37.9326239 47.8367186,37.8464944 47.8544686,37.7603649 C47.5941353,37.3934296 47.3515519,37.0217749 47.1030519,36.6513001 C47.0912186,36.6041059 47.0853019,36.5569116 47.0734686,36.5103073 C47.2805519,36.775185 47.4876353,37.0388828 47.6888019,37.3090699 C47.6947186,37.316149 47.6947186,37.3232282 47.7006353,37.3303073 C47.7243019,37.3816311 47.8485519,37.5373721 48.0023853,37.7290987 C48.0497186,37.7963505 48.1029686,37.8630123 48.1503019,37.9302641 C48.0260519,37.8954584 47.8958853,37.9332138 47.7953019,38.0187534 Z M47.1799686,41.4226382 C47.4580519,41.8379476 47.6769686,42.1087246 47.7893853,42.1399908 C47.2154686,41.98189 46.5468853,41.2138037 45.8664686,40.2433721 C46.2747186,40.66989 46.7007186,41.0704512 47.1799686,41.4226382 Z M45.6357186,30.4305087 C45.5765519,30.2694584 45.5055519,30.1143073 45.4523019,29.9503073 C45.5114686,30.1255159 45.6002186,30.3166526 45.7008019,30.5125087 C45.6771353,30.4836023 45.6593853,30.4582354 45.6357186,30.4305087 Z M47.3101353,33.0757462 C47.5645519,33.4680483 47.8012186,33.8691994 48.0260519,34.27448 C47.9432186,34.3358325 47.8722186,34.4225519 47.8663019,34.528149 C47.4403019,33.889257 47.0261353,33.2462354 46.6356353,32.5872857 C46.4463019,32.2663649 46.2865519,31.9336454 46.1268019,31.6003361 C46.2806353,31.7295303 46.4877186,31.961962 46.7894686,32.3631131 C46.9847186,32.6226814 47.1208019,32.8037893 47.2332186,32.954221 C47.2568853,32.9943361 47.2864686,33.036221 47.3101353,33.0757462 Z M44.8547186,35.4867821 C44.8665519,35.4543361 44.8724686,35.4207102 44.8902186,35.3870843 C44.9553019,35.496221 45.0203853,35.6053577 45.0913853,35.7144944 C45.1683019,35.8779044 45.2393019,36.0419044 45.3221353,36.2041346 C45.1623853,35.9669836 45.0144686,35.7262929 44.8547186,35.4867821 Z M42.4939686,41.0822498 C42.4288853,40.8580771 42.3638019,40.6333145 42.2987186,40.4091418 C42.6596353,41.0321059 42.9791353,41.6739476 43.2808853,42.326408 C43.0205519,41.9122785 42.7543019,41.498149 42.4939686,41.0822498 Z M40.9970519,41.3901922 C40.8491353,40.9973001 40.6953019,40.5495447 40.5710519,40.1112282 C40.5888019,40.0770123 40.6065519,40.0422066 40.6183853,40.0074008 C41.2455519,41.6662785 41.8490519,43.3275159 42.3638019,45.0135303 C41.9614686,43.8041778 41.4644686,42.6160627 40.9970519,41.3901922 Z M42.0857186,47.5236742 C41.7129686,46.5255159 41.3165519,45.5379764 40.9674686,44.5339188 C41.4940519,45.6005087 42.0028853,46.672998 42.4703019,47.7667246 C42.4584686,47.8440052 42.4525519,47.9201059 42.4288853,47.9979764 C42.3223853,47.8363361 42.1981353,47.6817749 42.0857186,47.5236742 Z M51.5583019,27.3935591 C51.5346353,27.1587677 51.5109686,26.9180771 51.4813853,26.6797462 C51.7121353,27.0785375 51.9428853,27.4779188 52.1677186,27.8814296 C52.4221353,28.3468828 52.6351353,28.7073289 52.8008019,28.9899044 C52.7534686,28.9297318 52.7061353,28.8689692 52.6588019,28.8058469 C52.2683019,28.3356742 51.9073853,27.8666814 51.5583019,27.3935591 Z M55.0018019,27.7628541 C54.8834686,27.4920771 54.7533019,27.2319188 54.6290519,26.9670411 C54.8065519,27.2313289 54.9840519,27.4956167 55.1615519,27.7593145 C55.1142186,27.8513433 55.0668853,27.9427821 55.0136353,28.034221 C55.0432186,27.952221 55.0432186,27.8596023 55.0018019,27.7628541 Z M64.3974686,7.9571994 C64.3678853,7.86045119 64.3383019,7.7849404 64.3087186,7.71178932 C64.3915519,7.78789004 64.4921353,7.87342961 64.6223019,7.96604832 C64.4033853,8.2515735 64.2022186,8.54771738 64.0069686,8.84976055 C64.0188019,8.72646558 64.0247186,8.60081091 64.0247186,8.47397637 C64.2673019,8.45627853 64.4803019,8.25629292 64.3974686,7.9571994 Z M62.8058853,7.17023537 C62.9123853,7.29530012 63.0129686,7.42626414 63.1135519,7.5578181 L63.1135519,7.98374616 C63.0898853,7.97135767 63.0603019,7.9636886 63.0307186,7.95247997 C62.9597186,7.69291163 62.8887186,7.42449436 62.8058853,7.17023537 Z M61.1728853,5.90365983 C61.3267186,6.02636486 61.4687186,6.16322817 61.5988853,6.30835048 C62.5514686,8.57249436 62.1195519,8.08521378 61.4332186,7.01508429 C61.2793853,6.49771738 61.1788019,6.10777494 61.1728853,5.90365983 Z M57.4098853,4.09199076 C57.4572186,4.16809148 57.4986353,4.24773177 57.5518853,4.32442242 C57.4631353,4.38754472 57.3862186,4.45892601 57.3093019,4.5238181 C57.2264686,4.53089724 57.1495519,4.56098357 57.0844686,4.60640803 C57.0903853,4.59755911 57.0903853,4.58930012 57.0963019,4.58045119 C57.1850519,4.39049436 57.2856353,4.20112745 57.3803019,4.01117062 C57.3862186,4.03889724 57.3921353,4.06485407 57.4098853,4.09199076 Z M36.1749686,58.4037174 C35.8436353,57.3418469 35.4945519,56.2917749 35.1218019,55.241703 C35.1277186,55.2535016 34.8555519,54.6458757 34.5952186,54.0146526 C34.6248019,53.979257 34.6425519,53.937962 34.6543853,53.8848685 C34.6839686,53.7845807 34.7076353,53.7019908 34.7313019,53.6135016 C35.8791353,55.7490411 36.3524686,58.1087534 37.7843019,60.1381059 C37.9913853,60.4330699 38.5179686,60.2619908 38.3937186,59.8844368 C38.2458019,59.4301922 38.1038019,59.0113433 37.9558853,58.5983936 C38.2280519,59.0290411 38.5416353,59.4419908 38.8848019,59.8372426 C38.5357186,60.5451562 38.2103019,61.2648685 37.9203853,62.0022785 C37.7133019,60.6277462 37.2695519,59.2945087 36.1749686,58.4037174 Z M53.5226353,31.0941778 C53.5758853,31.1602498 53.6409686,31.1926958 53.7119686,31.2056742 C53.6350519,31.3431275 53.5581353,31.4794008 53.4871353,31.6162641 C53.4279686,31.5289548 53.3688019,31.4428253 53.3096353,31.3572857 C53.3747186,31.2593577 53.4338853,31.1602498 53.4930519,31.0623217 C53.5048853,31.0735303 53.5108019,31.0835591 53.5226353,31.0941778 Z M27.1343019,53.3244368 C28.9152186,52.8996886 30.7020519,52.8288972 32.5303019,52.7227102 C32.5835519,52.7168109 32.5835519,52.6460195 32.5303019,52.6460195 C31.3824686,52.5634296 30.2346353,52.4395447 29.0808853,52.404149 C28.5720519,52.3864512 28.0395519,52.3746526 27.5484686,52.4808397 C27.7851353,51.9794008 27.9626353,51.584149 27.9863019,51.5487534 C28.0750519,51.3599764 28.1638019,51.1770987 28.2584686,50.9883217 C28.7732186,50.8939332 29.2820519,50.7818469 29.7908853,50.7287534 C30.8499686,50.6107677 31.9149686,50.5694728 32.9740519,50.5163793 C33.0273019,50.51048 33.0273019,50.4396886 32.9740519,50.4337893 C31.6783019,50.3747965 30.0748853,50.1588828 28.6134686,50.2739188 C28.8974686,49.6999188 29.1814686,49.1270987 29.4654686,48.5530987 C31.2168019,48.5761059 33.0687186,47.7260195 34.7549686,47.4204368 C34.8023019,47.4121778 34.7904686,47.3419764 34.7490519,47.344926 C33.8970519,47.4068685 33.0628019,47.5272138 32.2226353,47.6575879 C31.4179686,47.7832426 30.5955519,47.8198181 29.7849686,47.8994584 C29.9092186,47.6510987 30.0334686,47.402149 30.1577186,47.1537893 C30.4180519,46.9549836 30.5778019,46.6370123 30.5541353,46.3396886 C30.6665519,46.1155159 30.7789686,45.8913433 30.8913853,45.6671706 C31.7966353,45.4642354 32.6782186,45.2689692 33.6426353,45.1916886 C34.6898853,45.1085087 35.7371353,45.0471562 36.7607186,44.8064656 C36.8613019,44.7840483 36.8198853,44.6436454 36.7193019,44.6583936 C35.4294686,44.8554296 34.1159686,44.7828685 32.8083853,44.7970267 C32.3409686,44.8023361 31.8084686,44.8035159 31.2878019,44.8660483 C31.3647186,44.7055879 31.4416353,44.5445375 31.5244686,44.384667 C31.8498853,43.7316167 32.1693853,43.0773864 32.4948019,42.4237462 C34.1041353,42.5039764 35.8199686,42.2632857 37.4056353,42.1978037 C37.5535519,42.1919044 37.5535519,41.9730411 37.4056353,41.9671418 C35.9323853,41.9063793 34.3467186,41.6934152 32.8320519,41.7288109 C33.1042186,41.1825375 33.3704686,40.6368541 33.6426353,40.0911706 C35.2223853,39.8121346 36.8613019,39.8510699 38.3641353,39.2499332 C38.6777186,39.1230987 38.5475519,38.6092713 38.2221353,38.7307965 C36.8672186,39.2275159 35.4176353,39.2168972 33.9976353,39.3726382 C34.3112186,38.7343361 34.6248019,38.0972138 34.9383853,37.4600915 C35.0744686,37.3993289 35.2164686,37.3421059 35.3584686,37.2978613 C36.0093019,37.0966958 36.7133853,37.0559908 37.3878853,36.9975879 C38.4588019,36.906149 39.5238019,36.8542354 40.5592186,36.5256454 C40.7958853,36.4507246 40.6953019,36.0902785 40.4527186,36.1545807 C39.1037186,36.5167965 37.6837186,36.4212282 36.2992186,36.5250555 C36.0152186,36.545703 35.6838853,36.5763793 35.3466353,36.6341922 C35.7193853,35.8767246 36.0980519,35.1216167 36.4708019,34.364739 C37.0447186,34.3417318 37.6068019,34.1653433 38.1807186,34.0396886 C39.2279686,33.8096167 40.3225519,33.5913433 41.3934686,33.7305663 C41.4467186,33.7376454 41.4467186,33.6521059 41.3934686,33.6491562 C39.9912186,33.5594872 38.2694686,33.3713001 36.8080519,33.6821922 C37.2695519,32.7518757 37.7310519,31.822149 38.1925519,30.8924224 C38.8315519,30.887703 39.4883019,30.8210411 40.0918019,30.7874152 C41.1390519,30.7278325 42.2158853,30.6033577 43.1862186,30.1892282 C43.2217186,30.1721203 43.1921353,30.1048685 43.1566353,30.1190267 C42.0620519,30.485962 40.8905519,30.4818325 39.7545519,30.4564656 C39.3344686,30.4470267 38.8907186,30.3933433 38.4528853,30.3567677 C38.7487186,29.7691994 39.0386353,29.1798613 39.3285519,28.5922929 C39.4942186,28.2607534 39.6658019,27.9315735 39.8314686,27.6006239 C40.3284686,27.6006239 40.8787186,27.4360339 41.2869686,27.3664224 C42.6359686,27.1363505 44.0086353,26.8154296 45.3813019,26.8909404 C45.7363019,26.910408 45.7126353,26.3977605 45.3813019,26.352926 C44.1920519,26.1948253 42.9791353,26.3411275 41.7898853,26.4549836 C41.3698019,26.4956886 40.8728019,26.4821203 40.3876353,26.5057174 C40.6893853,25.9057605 40.9970519,25.3052138 41.3047186,24.7064368 C43.3104686,24.4132426 45.3103019,24.0038325 47.2036353,23.2735016 C47.4343853,23.1856023 47.3397186,22.8233864 47.1030519,22.9030267 C45.3458019,23.4835159 43.5116353,23.7914584 41.6774686,23.9884944 C42.0975519,23.1702641 42.5235519,22.351444 42.9495519,21.5338037 C43.1803019,21.4700915 43.4051353,21.3886814 43.6477186,21.3314584 C44.2748853,21.1839764 44.9434686,21.1698181 45.5824686,21.1108253 C46.4936353,21.0276454 47.3456353,20.8518469 48.0970519,20.3167821 C48.2153853,20.2312426 48.1148019,20.0448253 47.9787186,20.1173864 C46.9137186,20.6972857 45.7244686,20.5739908 44.5588853,20.5409548 C44.2275519,20.530926 43.8429686,20.514998 43.4702186,20.5421346 C43.8193019,19.8772857 44.1683853,19.2124368 44.5115519,18.5475879 C44.5884686,18.5245807 44.6653853,18.4968541 44.7541353,18.4667677 C45.3043853,18.2720915 45.9256353,18.2307965 46.5054686,18.1653145 C47.5823019,18.0437893 48.6828019,17.9588397 49.6886353,17.5116742 C49.8838853,17.4220052 49.7418853,17.0957749 49.5407186,17.160667 C48.2863853,17.5559188 46.9255519,17.4054872 45.6357186,17.4338037 C45.4818853,17.4373433 45.2866353,17.4373433 45.0854686,17.447962 C45.2629686,17.1111131 45.4345519,16.7736742 45.6120519,16.4368253 C47.3397186,16.3542354 49.0969686,15.7389404 50.7181353,15.2115447 C50.8128019,15.1802785 50.7713853,15.0469548 50.6767186,15.0628828 C49.1443019,15.3200915 47.6237186,15.4209692 46.0853853,15.521257 C46.4877186,14.7525807 46.8841353,13.9815447 47.2746353,13.2105087 C47.9373019,13.1114008 48.5940519,12.9344224 49.2567186,12.8524224 C50.1028019,12.7485951 50.9548019,12.7185087 51.8068019,12.6789836 C52.0493853,12.6677749 52.0493853,12.306739 51.8068019,12.2949404 C50.5347186,12.2365375 49.0614686,12.0784368 47.7420519,12.2955303 C48.1029686,11.576998 48.4638853,10.8566958 48.8188853,10.1352138 C49.2744686,10.0526239 49.7241353,9.9316886 50.1797186,9.85263825 C51.2269686,9.67153033 52.2978853,9.61784688 53.3569686,9.5488253 C53.5522186,9.53525695 53.5522186,9.25386127 53.3569686,9.24088285 C52.1381353,9.16242242 50.6471353,8.95063825 49.3218019,9.11109868 C49.5407186,8.65567422 49.7714686,8.20083968 49.9903853,7.74305551 C51.5464686,7.26875335 53.1972186,7.11891163 54.8065519,6.87114184 C54.8124686,6.88353033 54.8183853,6.89532889 54.8243019,6.90771738 C54.2858853,7.89407709 53.7829686,8.90580371 53.3333019,9.97593321 C53.1853853,10.3287102 53.0315519,10.6921059 52.8658853,11.0643505 C51.0198853,15.0086095 49.7004686,19.18648 47.8130519,23.1354584 C47.5231353,23.7448541 47.2273019,24.3507102 46.9314686,24.9595159 C46.8072186,25.0421059 46.7243853,25.1825087 46.7421353,25.352998 C46.1741353,26.5387534 45.6061353,27.722739 45.0322186,28.9067246 C44.7896353,28.8412426 44.5293019,29.0996311 44.5766353,29.3715879 C44.6003019,29.4777749 44.6298853,29.5810123 44.6594686,29.6860195 C44.5707186,29.8653577 44.4819686,30.0446958 44.3991353,30.2246239 C44.2216353,30.2883361 44.0737186,30.4765231 44.1092186,30.7042354 C44.1151353,30.7337318 44.1210519,30.7608685 44.1210519,30.7909548 C43.0856353,32.9341634 42.0383853,35.0744224 40.9970519,37.2140915 C40.7130519,37.2022929 40.3994686,37.4795591 40.5178019,37.7845519 C40.5237186,37.8093289 40.5355519,37.8341059 40.5414686,37.8588828 C40.5178019,37.9343936 40.4882186,38.0104944 40.4645519,38.0854152 C40.4882186,38.0854152 40.5237186,38.0919044 40.5592186,38.1048828 C40.4645519,38.3042785 40.3639686,38.5036742 40.2693019,38.70248 C40.2693019,38.6735735 40.2633853,38.6405375 40.2574686,38.612221 C40.1805519,38.8033577 40.0977186,38.9821059 40.0148853,39.1626239 C40.0208019,39.1761922 40.0208019,39.1885807 40.0267186,39.2015591 C39.8433019,39.5738037 39.6598853,39.9466382 39.4823853,40.3182929 C39.2871353,40.3778757 39.1333019,40.5359764 39.1510519,40.7577893 C39.1569686,40.8220915 39.1688019,40.8846239 39.1747186,40.948926 C38.8788853,41.5423936 38.5948853,42.1352713 38.2990519,42.728739 C38.0032186,42.7293289 37.6955519,42.9706095 37.8257186,43.3145375 C37.8553019,43.384739 37.8848853,43.4508109 37.9144686,43.5204224 C37.7902186,43.7740915 37.6659686,44.0283505 37.5417186,44.2820195 C37.1985519,44.1988397 36.7666353,44.4643073 36.9323019,44.8630987 C36.9500519,44.901444 36.9678019,44.9397893 36.9855519,44.9787246 L36.9796353,44.9799044 C36.9855519,44.983444 36.9855519,44.9869836 36.9855519,44.9905231 C37.0210519,45.0630843 37.0565519,45.1362354 37.0861353,45.2099764 C34.9916353,49.4958037 32.8912186,53.7845807 30.8144686,58.079257 C30.6902186,56.6575303 29.6784686,55.3065951 28.4418853,54.7107677 C29.2465519,54.6930699 30.0393853,54.6458757 30.8203853,54.4511994 C31.1103019,54.380408 30.9919686,53.9438613 30.6961353,54.0087534 C29.8382186,54.1916311 28.9743853,54.1916311 28.1046353,54.1798325 C27.9093853,54.1798325 27.8265519,54.3509116 27.8502186,54.4983936 C27.3946353,54.380408 26.9331353,54.3627102 26.4834686,54.4865951 C26.6609686,54.2211275 26.9035519,53.7845807 27.1343019,53.3244368 Z M53.5048853,41.867444 C52.9546353,40.7872857 52.6114686,39.6103793 52.0908019,38.5101634 C52.0553019,38.4311131 51.9192186,38.4871562 51.9488019,38.5691562 C52.4162186,39.8758469 52.6588019,41.2539188 53.2268019,42.5169548 C52.6943019,43.78648 52.1677186,45.0660339 51.6470519,46.3485375 C50.8838019,45.2253145 50.2093019,44.0371994 49.3987186,42.9464224 C49.3691353,42.9068972 49.3158853,42.9399332 49.3336353,42.9853577 C49.9726353,44.4247821 50.2803019,45.9574152 51.2979686,47.1968541 C50.7950519,48.4262641 50.2862186,49.6527246 49.7714686,50.8703361 C49.1916353,49.124739 48.3810519,47.4050987 48.0793019,45.6052282 C48.0674686,45.5539044 47.9846353,45.5757318 47.9964686,45.6270555 C48.5822186,47.5360627 49.1028853,49.52589 49.5052186,51.4897605 C49.1975519,52.2094728 48.8780519,52.929185 48.5526353,53.6488972 C48.1976353,52.1209836 47.4994686,50.6874584 47.2273019,49.1294584 C47.2154686,49.0439188 47.0675519,49.0639764 47.0734686,49.1501059 C47.2687186,50.952926 48.0615519,52.6283217 48.1858019,54.4335016 C47.8308019,55.1945087 47.4698853,55.9496167 47.0912186,56.692926 C46.5823853,55.2358037 46.0439686,53.8022785 45.9374686,52.2389692 C45.9315519,52.0973864 45.7067186,52.0914872 45.7067186,52.2389692 C45.6889686,54.0559476 46.2510519,55.7549404 46.6770519,57.4893289 C46.5409686,57.7547965 46.3989686,58.0202641 46.2569686,58.2798325 C46.2155519,58.2916311 46.1859686,58.2975303 46.1623019,58.3034296 C46.0794686,58.2916311 46.0439686,58.3565231 46.0498853,58.4273145 C46.0439686,58.4745087 46.0735519,58.5158037 46.1208853,58.5335016 C45.9670519,58.8107677 45.8073019,59.0880339 45.6534686,59.3594008 C44.9908019,57.9258757 44.6713019,56.3507677 44.0914686,54.8818469 C44.0678019,54.8346526 43.9968019,54.8523505 44.0145519,54.8995447 C44.5293019,56.5218469 44.7423019,58.226739 45.3990519,59.7959476 C44.8902186,60.6631418 44.3636353,61.5185375 43.8015519,62.3444368 C43.1211353,61.9019908 42.7602186,60.8224224 42.4880519,60.1558037 C42.1330519,59.2768109 41.8372186,58.374221 41.4585519,57.5011275 C41.4230519,57.4244368 41.2928853,57.4834296 41.3165519,57.5660195 C41.7070519,58.8756598 41.9318853,60.2383936 42.3993019,61.5303361 C42.5886353,62.0494728 42.8726353,62.6865951 43.3400519,62.999257 C43.1980519,63.1939332 43.0619686,63.3945087 42.9199686,63.589185 C42.8608019,63.0228541 42.4880519,62.5332138 41.7248019,62.2264512 C40.9260519,61.9137893 39.8433019,62.0081778 38.8848019,62.2736454 C39.1155519,61.6719188 39.3699686,61.0701922 39.6421353,60.4861634 C39.8078019,60.4684656 39.9557186,60.309185 39.9202186,60.1145087 C39.9083853,60.0673145 39.8965519,60.0260195 39.8847186,59.9788253 C41.6715519,56.2858757 44.0678019,52.9055879 45.7836353,49.1648541 C48.0438019,44.2448541 50.3631353,39.4174728 52.8481353,34.60248 C52.9132186,34.4726958 52.9842186,34.3446814 53.0493019,34.2148972 C53.3688019,35.1806095 53.5758853,36.1758181 53.8066353,37.1668972 C53.9841353,37.9102066 54.1616353,38.6965807 54.6468019,39.2776598 C54.2563019,40.1336454 53.8776353,40.9973001 53.5048853,41.867444 Z M70.5212186,8.83088285 C67.5628853,6.92659508 64.3915519,4.94089724 61.1137186,3.63951594 C58.5044686,2.60360227 55.3745519,2.20717062 53.4338853,0.0374152236 C53.3510519,-0.0575631936 53.2268019,0.0462641445 53.2445519,0.148911627 C53.2445519,0.167789324 53.2504686,0.184897238 53.2563853,0.203185008 C51.7476353,2.45553033 50.3276353,4.77866702 48.9727186,7.1436886 C48.9135519,7.15843681 48.8603019,7.16787566 48.8011353,7.18321378 C48.4579686,7.2781922 48.4224686,7.63686846 48.5526353,7.87932889 C47.9609686,8.92586127 47.3752186,9.98065263 46.8072186,11.0431131 C38.4292186,11.5056167 30.1340519,9.77417781 21.7383019,10.2207534 C14.6028019,10.601257 7.18921861,8.92291163 0.231218608,11.0319044 C0.142468608,11.002408 0.0359686085,11.0366239 0.0359686085,11.1616886 C0.0300519418,34.126998 -0.0291147248,57.0999764 0.0182186085,80.0717749 C0.0182186085,80.1838613 0.0478019418,80.2782498 0.0892186085,80.3608397 C-0.0350313915,80.4375303 -0.0231980582,80.6676023 0.136551942,80.6970987 C8.55005194,82.2486095 17.7800519,80.8150843 26.3296353,81.186739 C30.6133019,81.3755159 34.8851353,81.5996886 39.1806353,81.6173864 C43.5944686,81.6409836 47.9018019,80.6263073 52.2919686,81.5819908 C52.8067186,81.6940771 53.1321353,81.2575303 53.1143853,80.8622785 C53.1676353,80.7619908 53.2031353,80.6499044 53.2031353,80.514221 C53.1321353,74.3789692 52.8718019,68.2437174 53.1262186,62.1143649 C53.3392186,56.8345087 53.9723019,51.6962354 53.0966353,46.4488253 C53.0907186,46.3980915 53.0611353,46.3650555 53.0256353,46.3432282 C54.3273019,43.1823936 55.5934686,40.0404368 56.9424686,37.0654296 C57.1909686,36.5185663 57.4513019,35.9758325 57.7175519,35.4348685 C57.8832186,35.4867821 58.0903019,35.372926 58.0074686,35.1747102 C57.9838019,35.1168972 57.9601353,35.0602641 57.9364686,35.0024512 C59.8298019,31.2098037 62.0722186,27.5628685 63.9833019,23.7849692 C65.0956353,21.5839476 66.1310519,19.342221 67.1723853,17.1040339 C67.2788853,17.0662785 67.3558019,16.97189 67.3143853,16.8426958 C67.3084686,16.8367965 67.3025519,16.8303073 67.3025519,16.8238181 C67.7463019,15.8687246 68.2018853,14.9165807 68.6515519,13.9662066 C68.6752186,14.0151706 68.7048019,14.0623649 68.7284686,14.110739 C68.8172186,14.2877174 69.0834686,14.1319764 68.9947186,13.9555879 C68.9355519,13.8435016 68.8763853,13.733185 68.8172186,13.6216886 C69.4266353,12.3621922 70.0478853,11.1103649 70.6987186,9.87564544 C70.7164686,9.84378932 70.7046353,9.81016343 70.6809686,9.78715623 C70.8821353,9.50281091 70.8998853,9.07334328 70.5212186,8.83088285 L70.5212186,8.83088285 Z" id="Fill-478"></path>
                        <path d="M32.6427186,56.6870267 C32.6900519,56.9111994 32.8793853,57.0114872 32.9740519,57.2002641 L32.9740519,57.1943649 C32.9740519,57.2002641 32.9799686,57.2061634 32.9799686,57.2120627 C33.0332186,57.2651562 33.1338019,57.2120627 33.1101353,57.1412713 C33.0509686,56.9701922 32.8853019,56.8581059 32.8675519,56.6575303 C32.8616353,56.5631418 32.7847186,56.5395447 32.7196353,56.5631418 C32.7137186,56.5513433 32.7078019,56.5395447 32.7018853,56.5336454 C32.7078019,56.5395447 32.7137186,56.5513433 32.7137186,56.5631418 C32.6663853,56.5808397 32.6249686,56.6221346 32.6427186,56.6870267" id="Fill-479"></path>
                        <path d="M22.6849686,22.1131131 C26.0160519,22.0836167 29.3471353,21.8848109 32.6723019,21.7302498 C35.4353853,21.6016454 38.4706353,21.8865807 41.0917186,20.9568541 C41.6005519,20.7775159 41.6123853,20.0943793 41.0917186,19.9191706 C36.1513019,18.2502641 29.2702186,19.9533864 24.1049686,20.1840483 C18.2948019,20.4436167 12.6148019,19.9103217 6.83421861,19.4779044 C6.75730194,19.4720052 6.73363528,19.5858613 6.79871861,19.621257 C11.6089686,22.2092713 17.3481353,22.1614872 22.6849686,22.1131131" id="Fill-480"></path>
                    </g>
                </g>
            </g>
        </g>
    </g>
</svg>