<?xml version="1.0" encoding="UTF-8"?>
<svg width="71px" height="69px" viewBox="0 0 71 69" version="1.1" xmlns="http://www.w3.org/2000/svg" xmlns:xlink="http://www.w3.org/1999/xlink">
    <!-- Generator: sketchtool 41.2 (35397) - http://www.bohemiancoding.com/sketch -->
    <title>9D98A13B-CD50-4539-9481-5B83DA6723B2</title>
    <desc>Created with sketchtool.</desc>
    <defs></defs>
    <g id="Test" stroke="none" stroke-width="1" fill="none" fill-rule="evenodd">
        <g id="Quote-&amp;-Policy-Summary" transform="translate(-949.000000, -1515.000000)" fill="#FF2E5D">
            <g id="Group-19" transform="translate(264.000000, 1196.000000)">
                <g id="Group-14" transform="translate(527.000000, 319.000000)">
                    <g id="Wait-Icon" transform="translate(158.000000, 0.000000)">
                        <path d="M65.2249237,48.4017781 C65.6354679,44.9850718 66.0653318,41.5722256 66.5869645,38.1743375 C66.2536992,41.6031068 65.7803658,45.0034075 65.2249237,48.4017781 Z M14.4140393,65.7574494 C14.2498216,65.7202956 14.080774,65.6797641 13.9165563,65.6406802 C13.935876,65.6392326 13.9551958,65.6315124 13.9745155,65.6107641 C14.1483931,65.4081068 14.3126107,65.2006242 14.4816584,64.9916942 C17.1526107,65.3154634 19.8090733,65.6546732 22.4848556,66.1174075 C24.9529509,66.5444354 27.4113863,67.0119949 29.8746516,67.4235823 C24.6776448,67.3574774 19.4951277,66.8971557 14.4140393,65.7574494 Z M9.47784884,64.4121907 C10.0043114,64.4633375 10.5017944,64.5086942 10.9364883,64.5622536 C12.0039033,64.6939809 13.0664883,64.820883 14.1290733,64.9492326 C14.0228148,65.1296942 13.9165563,65.3111207 13.8199577,65.4939949 C13.7861482,65.5581697 13.8392774,65.6262047 13.8972366,65.6363375 C12.4192774,65.2932676 10.9364883,64.8922956 9.47784884,64.4121907 Z M1.4360121,43.5312466 C1.48431142,43.5669529 1.55193047,43.5746732 1.60022979,43.5230438 C1.74029782,43.3826312 1.87070598,43.2359459 2.00111414,43.0916732 C1.83689646,47.376911 1.97213455,51.6114844 2.22812094,55.9290508 C2.22812094,55.9840578 2.23295088,56.0395473 2.23778081,56.0945543 C1.78859714,53.5758131 1.64369918,50.9885543 1.54710054,48.4452047 C1.48431142,46.8224984 1.44567197,45.1795263 1.4360121,43.5312466 Z M2.18465156,31.41282 C2.31988965,30.4936242 2.47444748,29.5763585 2.63383523,28.6595753 C2.56138625,31.5180089 2.49859714,34.37789 2.34886924,37.2334284 C1.96247469,37.884827 1.6630189,38.5560089 1.49880122,39.2445613 C1.59539986,36.6090508 1.798257,33.9817431 2.18465156,31.41282 Z M3.73988965,13.5997221 C3.71573999,14.2593235 3.68193047,14.9179599 3.61431142,15.5737012 C3.54186244,16.3090578 3.44043387,17.0405543 3.31968557,17.7691557 C3.42111414,16.3713026 3.55635224,14.9806872 3.73988965,13.5997221 Z M6.13070598,2.86274312 C6.13553591,2.85598788 6.13553591,2.84971515 6.14036584,2.8429599 C6.22730462,2.83137948 6.31424339,2.81931655 6.40118217,2.80773613 C5.69118217,4.49992494 5.11642026,6.23891795 4.66240666,8.01313473 C4.79764475,6.22202983 5.17920938,4.48303683 6.13070598,2.86274312 Z M31.7003658,66.4903935 C31.7148556,66.4730228 31.7245155,66.4542047 31.7245155,66.4267012 C31.6762162,64.0860089 33.9945835,62.53182 36.0569645,62.0821138 C36.1052638,62.0719809 36.1197536,62.0343445 36.1100937,61.9981557 C36.2984611,62.0155263 36.4916584,62.032897 36.6800257,62.0502676 C37.7909101,62.1535263 38.9211141,62.2370019 40.0561482,62.3021417 C39.4668965,62.9057711 38.9452638,63.5586172 38.4429509,64.2399319 C37.8440393,65.0597291 37.1485291,66.1145124 36.8345835,67.1080158 C35.1296175,66.9671207 33.4198216,66.7572256 31.7003658,66.4903935 Z M3.1119985,59.4552886 C2.74009373,57.7023026 2.61934543,55.8397851 2.53723659,53.9989809 C3.08784884,53.1000508 3.46941346,52.1060648 4.05383523,51.2134075 C4.48852911,50.5484984 4.9860121,49.929911 5.51247469,49.3340019 C5.54628421,50.7043515 5.68635224,52.0554005 5.97614816,53.3697781 C6.02927741,53.5941487 6.09206652,53.8069389 6.1645155,54.0153865 C4.8652638,55.2453235 3.87512775,56.7160368 3.15546788,58.3947151 C3.07335904,58.5867571 3.34383523,58.6991837 3.42111414,58.5056942 C4.07798489,56.8670648 5.00533183,55.4113096 6.22247469,54.1823375 C6.70063795,55.4373655 7.57002571,56.3970928 8.66159033,57.1425823 C7.63281482,57.8296872 6.68614816,58.6335613 5.86988965,59.563855 C5.32893727,60.1795473 4.72519577,61.038911 4.92322299,61.8982746 C4.09247469,61.3940438 3.57567197,60.6890858 3.2037672,59.8075263 C3.16995768,59.6912396 3.13614816,59.5783305 3.1119985,59.4552886 Z M2.40682843,51.1704634 C2.36335904,50.3757571 2.33920938,49.5824984 2.32471958,48.7897221 C2.36818897,48.8476242 2.46961754,48.8543795 2.48893727,48.7646312 C2.84152231,47.0135753 4.32431142,45.4000368 5.8022706,44.2395823 C5.60424339,45.8622886 5.48349509,47.4840298 5.50764475,49.0816452 C4.31465156,50.3115823 3.07818897,51.7784354 2.508257,53.3451697 C2.47927741,52.6117431 2.45029782,51.8836242 2.40682843,51.1704634 Z M1.46982163,40.0127291 C1.53261074,40.0276872 1.60988965,40.0016312 1.63403931,39.9292536 C1.8127468,39.3806312 2.03492367,38.8556522 2.28608013,38.3470788 C2.25710054,38.8633725 2.21846108,39.3791837 2.17982163,39.8945124 C2.11703251,40.754841 2.06873319,41.6103445 2.03009373,42.4644005 C1.82240666,42.7466732 1.62437945,43.030876 1.4360121,43.3184564 C1.43118217,42.217834 1.4360121,41.1152816 1.46982163,40.0127291 Z M6.78757673,37.2073725 C5.32410734,38.6404494 3.78818897,40.1984984 2.48893727,41.8573935 C2.53723659,41.0453165 2.59036584,40.2327571 2.64832503,39.4197151 C2.69179441,38.7726592 2.73043387,38.1212606 2.76424339,37.4674494 C4.07315496,35.2555893 5.99063795,33.3829389 7.77771278,31.5609529 C7.86465156,31.4721697 7.72941346,31.3375473 7.63764475,31.424883 C6.20315496,32.8309389 4.1697536,34.571862 2.80771278,36.5212326 C2.94295088,33.2652047 2.95261074,29.9474144 2.99608013,26.6199739 C3.30519577,24.9046242 3.62880122,23.1907221 3.92342707,21.4729599 C5.76363115,18.6444424 7.42029782,15.7145963 9.76281482,13.208883 C9.46335904,16.6058061 9.08662435,19.997904 8.7630189,23.3885543 C8.69056992,24.138869 8.62295088,24.8867711 8.55533183,25.6332256 C8.54084203,25.6390158 8.52635224,25.6481837 8.51669237,25.6645893 C6.7827468,27.7606452 4.87492367,29.7027781 3.14580802,31.798834 C2.98642026,31.989911 3.26655632,32.2649459 3.41628421,32.0709739 C5.06329101,29.9995263 6.86968557,28.0680089 8.52635224,26.0042816 C8.27519577,28.8009529 8.02886924,31.575911 7.54104611,34.3610019 C7.00492367,37.4274005 6.26111414,40.7181697 5.8312502,44.0147291 C5.00533183,44.6198061 4.25186244,45.3199389 3.57567197,46.0996872 C3.02988965,46.7279249 2.42131822,47.4840298 2.31505972,48.3313305 C2.29091006,46.4176662 2.34886924,44.5083445 2.45029782,42.5975753 C3.95723659,40.8682326 5.26614816,38.9405753 6.85519577,37.27589 C6.89866516,37.2305333 6.83104611,37.1639459 6.78757673,37.2073725 Z M28.9038352,62.80589 C28.2179849,63.2261627 27.4886652,63.7024075 26.9283931,64.2934914 C26.6337672,64.6085753 26.1797536,65.0505613 26.1894135,65.523911 C24.3202298,65.179876 22.4510461,64.8377711 20.5818624,64.5323375 C21.5092094,63.938841 22.3254679,62.9771837 22.7843114,62.020834 C22.8036311,61.9841627 22.7505019,61.9523165 22.7311822,61.9885054 C22.1612502,62.9757361 21.1711141,63.8857641 20.1713182,64.4657501 C18.9010461,64.2626103 17.630774,64.0778061 16.355672,63.9277431 C16.0272366,63.8891417 15.6988012,63.8529529 15.3655359,63.8167641 C16.0368965,62.9067361 16.6985971,61.9914005 17.490706,61.1658131 C17.5486652,61.1059809 17.4617264,61.0162326 17.3989373,61.0750998 C16.5875087,61.8847641 15.6988012,62.7976872 14.9453318,63.7709249 C13.225876,63.5875683 11.5015903,63.4186872 9.79179441,63.1615054 C10.3762162,61.5561697 11.52574,60.2167012 13.0423386,59.3930438 C13.1002978,59.3631277 13.0519985,59.2820648 12.9940393,59.3100508 C11.4146516,60.1221277 10.2119985,61.4862047 9.57927741,63.1282117 C8.49737265,62.9593305 7.41546788,62.7561907 6.35288285,62.4811557 C5.88437945,62.3610089 5.48832503,62.2070858 5.13573999,62.0217991 C5.14056992,62.0078061 5.14539986,61.9962256 5.14539986,61.978855 C4.99084203,60.9607431 6.0727468,59.8051138 6.68131822,59.1252466 C7.31403931,58.4217361 8.03852911,57.7949459 8.80648829,57.2390858 C11.5643794,59.0427361 15.6505019,59.5493795 18.485672,60.0010158 C24.1946516,60.9095963 30.0292094,61.439883 35.7961482,61.9692047 C33.9173046,62.3634214 30.5894815,64.1183375 31.5023386,66.4570998 C31.5023386,66.4585473 31.5071686,66.4590298 31.5071686,66.4599949 C31.1642434,66.4064354 30.8164883,66.3504634 30.4735631,66.2920788 C29.1211822,66.0619179 27.7639713,65.8143865 26.4115903,65.5649249 C26.5178488,65.1586452 27.0394815,64.7465753 27.3341073,64.4729879 C27.8798897,63.9547641 28.3966924,63.4293026 29.0052638,62.9723585 C29.1018624,62.8999809 29.0149237,62.7402676 28.9038352,62.80589 Z M9.60342707,2.38119067 C7.46859714,4.13948438 4.19390326,7.13012774 4.92805292,9.8587641 C4.96669237,10.0001417 5.17920938,9.96974312 5.17920938,9.82498788 C5.20335904,6.90672214 7.84533183,4.2504634 9.96084203,2.334869 C12.9650597,1.95078508 15.9644475,1.62701585 19.0266243,1.51072914 C21.9439033,1.40023263 24.8611822,1.42628858 27.7784611,1.53630256 C26.8559441,2.44150536 25.9624067,3.39737249 25.3296856,4.47000886 C25.2765563,4.56168718 25.4117944,4.67363123 25.4842434,4.58677809 C26.3246516,3.52668718 27.2085291,2.52594592 28.1310461,1.5483655 C29.9229509,1.6202606 31.7196856,1.72303683 33.5115903,1.84704382 C33.888325,1.87309976 34.2602298,1.90687599 34.6369645,1.93437948 C34.0283931,2.15247739 33.4584611,2.43812774 32.9368284,2.82655431 C32.395876,3.22800886 31.6713863,3.81233753 31.4878488,4.48448438 C31.4588692,4.58533053 31.5796175,4.69775711 31.6762162,4.62923962 C32.1785291,4.26493893 32.5214543,3.69315571 32.9947876,3.27867319 C33.6226788,2.73053333 34.3713182,2.29288997 35.1392774,1.97442844 C36.1342434,2.05114872 37.1243794,2.13269417 38.1096856,2.22292494 C36.8249237,3.14791095 35.3614543,4.53321865 35.0619985,6.04687599 C34.7190733,6.00151935 34.3713182,5.9532676 34.0235631,5.90984102 C28.9762842,5.2772606 23.8372366,4.73491095 18.7609781,5.28787599 C16.1334951,5.57449137 12.3516584,6.12649137 11.0717264,8.83534452 C10.955808,9.07515571 11.2987332,9.28553333 11.4291414,9.04572214 C12.9650597,6.18439347 17.4568965,6.14434452 20.2389373,6.13083403 C25.300706,6.10574312 30.3769645,6.73880606 35.3759441,7.48284802 C40.5488012,8.25391095 45.7023386,9.15428858 50.855876,10.0440508 C53.8745835,10.5651697 56.9802298,11.2189809 60.0665563,11.3835193 C60.0037672,11.4361138 59.9409781,11.4834005 59.8830189,11.5369599 C59.8153999,11.5977571 59.9023386,11.7140438 59.9796175,11.662897 C60.1100257,11.5755613 60.2404339,11.4877431 60.370842,11.4004075 C60.4626107,11.4042676 60.5543794,11.4124704 60.6461482,11.4153655 C60.873155,12.8180438 60.9939033,14.2255473 61.0373726,15.6340158 C60.9456039,15.7372746 60.8490053,15.8410158 60.7572366,15.9476522 C60.6751277,16.0427082 60.795876,16.1623725 60.8924747,16.0837221 C60.9456039,16.0412606 60.9987332,15.9992816 61.0470325,15.9563375 C61.0905019,17.6765124 61.0277128,19.3986172 60.8924747,21.1197571 C60.5447196,21.4599319 60.2066243,21.8010718 59.873359,22.1383515 C59.7960801,22.2145893 59.8975087,22.3545193 59.9892774,22.289862 C60.2839033,22.0809319 60.5688692,21.8613865 60.8538352,21.6365333 C60.6992774,23.4546592 60.4819305,25.26989 60.2549237,27.077883 C59.6511822,31.8987151 59.3565563,36.6486172 59.1102298,41.4930928 C58.9218624,45.156848 58.5499577,48.8109529 58.3036311,52.470848 C58.2022026,53.9922256 57.6853999,56.4680228 58.1780529,58.2354844 C58.1442434,58.2943515 58.1056039,58.3508061 58.0717944,58.4101557 C58.0090053,58.5269249 58.1539033,58.6272886 58.2505019,58.5467082 C58.2553318,58.5404354 58.2649917,58.5331977 58.2698216,58.5269249 C58.4098897,58.9100438 58.6030869,59.2531138 58.8735631,59.5334564 C59.0426107,59.7071627 59.2937672,59.56289 59.3130869,59.3515473 C59.3710461,58.6890508 59.4193454,58.0226942 59.4579849,57.3539249 C60.0424067,56.7160368 60.5978488,56.0434075 61.2015903,55.4489459 C61.9695495,54.6899459 62.7568284,53.9516942 63.5296175,53.1994494 C63.070774,56.8815403 62.6071005,60.5626662 62.0613182,64.2331767 C61.8391414,64.5767291 61.583155,64.8971207 61.2788692,65.1784284 C61.2643794,65.1953165 61.2402298,65.2107571 61.2209101,65.2276452 C60.3805019,65.1523725 59.5352638,65.206897 58.6851958,65.318841 C59.6077128,64.3899949 60.5447196,63.4852746 61.7183931,62.903841 C61.7377128,62.8941907 61.723223,62.8633096 61.7039033,62.8744075 C60.4481209,63.5721277 59.1730189,64.4232886 58.0524747,65.4124494 C57.4487332,65.5094354 56.8449917,65.6252396 56.2460801,65.7347711 C56.7918624,64.8889179 57.0478488,63.8606732 57.2990053,62.8937082 C57.3038352,62.8729599 57.2748556,62.8666872 57.2700257,62.8850228 C56.8498216,63.8987921 56.4344475,64.9043585 55.825876,65.8090788 C55.6519985,65.8394774 55.473291,65.868911 55.2994135,65.896897 C54.5556039,66.0136662 53.8117944,66.1289879 53.063155,66.2404494 C53.41574,65.5543096 53.628257,64.8199179 54.0774407,64.1627291 C54.6570325,63.3149459 55.4974407,62.4908061 56.4054679,62.0193865 C56.4247876,62.0097361 56.4102978,61.9793375 56.3909781,61.9899529 C55.3863522,62.5294075 54.5797536,63.1021557 53.8794135,64.0073585 C53.4060801,64.6124354 52.845808,65.4809669 52.773359,66.2833935 C50.8365563,66.5724214 48.8949237,66.836841 46.9436311,67.0380508 C46.7021346,67.0361207 46.460638,67.0337082 46.2191414,67.0327431 C44.7363522,67.028883 43.2535631,67.0631417 41.770774,67.111876 C42.8526788,66.0377921 43.9056039,64.9429599 44.9488692,63.8307571 C45.0164883,63.7545193 44.9102298,63.6464354 44.8329509,63.716883 C43.6351277,64.8353585 42.4566243,65.9630019 41.3071005,67.1277991 C40.4087332,67.1596452 39.5103658,67.1934214 38.6119985,67.2300928 C38.148325,67.2050019 37.6798216,67.1731557 37.2161482,67.1374494 C37.6701618,66.4826732 38.008257,65.7236732 38.4236311,65.0462186 C38.9983931,64.1000019 39.5973046,63.1663305 40.3121346,62.3170998 C46.3350597,62.6456942 52.560842,62.377897 58.3471005,60.8859529 C59.1923386,60.6693026 58.8349237,59.3684354 57.9896856,59.5855683 C49.9864883,61.6488131 41.2636311,61.3269739 33.1300257,60.2847361 C26.8076448,59.4741068 20.4079849,59.260834 14.1918624,57.7109879 C11.9894135,57.1614005 9.02866516,56.4130158 7.8405019,54.263883 C6.52193047,51.875904 7.07254271,48.2893515 7.31403931,45.7146382 C7.95642026,38.8672326 9.62757673,32.2181417 10.0284611,25.3384075 C10.3617264,19.6533865 10.7336311,14.0151697 10.5742434,8.32387599 C10.9413182,8.01699487 11.3180529,7.72121165 11.7141073,7.4437641 C11.3180529,7.69708578 10.9413182,7.99093893 10.5742434,8.31133053 C10.5645835,7.93158928 10.5549237,7.55233053 10.5404339,7.17162424 C10.530774,6.94387599 10.1975087,6.94435851 10.1878488,7.17162424 C10.1636992,7.69419067 10.1298897,8.21627459 10.1009101,8.73884102 C8.90308693,9.80520466 7.83567197,11.0076382 6.86002571,12.2969249 C6.16934543,13.2050228 4.14077401,15.6600718 4.96669237,16.948876 C5.02465156,17.0371767 5.18403931,16.9812047 5.14539986,16.8745683 C4.62859714,15.4825054 6.61369918,13.1336103 7.33818897,12.1024704 C8.11580802,10.9936452 9.04315496,9.77335851 10.1009101,8.74993893 C10.0139713,10.1497221 9.90771278,11.5490228 9.78213455,12.9463935 C8.18342707,14.5763375 6.82621618,16.4369249 5.51247469,18.2994424 C5.08261074,18.909827 4.59961754,19.5457851 4.13111414,20.204904 C4.28084203,19.293911 4.41608013,18.3809879 4.53682843,17.4661347 C4.90873319,14.5994984 4.48852911,11.5697711 4.6237672,8.65584802 C5.08261074,6.66594592 5.68152231,4.70982004 6.44948149,2.80098088 C7.50240666,2.65767319 8.55533183,2.51677809 9.60342707,2.38119067 Z M62.4090733,5.17207179 C63.4861482,5.31200186 64.563223,5.44807179 65.6451277,5.58172914 C65.8962842,5.61309277 66.8815903,5.6275683 67.61574,5.72021165 C67.61574,7.48381305 67.61574,9.24837948 67.6109101,11.0119809 C65.8286652,11.9282816 63.9884611,13.0009179 62.4283931,14.313848 C62.3414543,13.0462746 62.1965563,11.7806312 61.9695495,10.5159529 C61.9598897,10.4604634 61.93574,10.4093165 61.9115903,10.3605823 C63.7179849,9.13112774 65.5243794,7.83942844 67.0554679,6.32142844 C67.0989373,6.27751935 67.0313182,6.21093193 66.9878488,6.25291095 C65.3794815,7.75595291 63.4619985,8.84451235 61.6797536,10.1140158 C61.5541754,10.0324704 61.4092774,9.98373613 61.2692094,9.98277109 C59.5980529,9.97263823 57.9220665,9.79169417 56.2509101,9.53982004 C57.0285291,9.07467319 57.7578488,8.489862 58.5209781,8.02278508 C59.5594135,7.39165221 60.6461482,6.84930256 61.7570325,6.37064522 C61.8584611,6.32721865 61.7860121,6.15447739 61.6845835,6.19404382 C59.7381209,6.96028158 57.2748556,7.94558228 55.7292774,9.46020466 C53.8842434,9.16635151 52.0440393,8.79770816 50.2328148,8.4869669 C45.2917944,7.63821865 40.3556039,6.75569417 35.3856039,6.08933753 C35.7623386,5.28401585 36.0956039,4.54190396 36.6655359,3.81957529 C37.1292094,3.23235151 37.6749917,2.70592494 38.2642434,2.23691795 C46.3350597,2.97902983 54.3672366,4.13272914 62.4090733,5.17207179 Z M68.465808,5.9836662 C69.2627468,7.56439347 69.4897536,9.42884102 69.5911822,11.1697641 C69.8230189,15.1191697 69.1275087,19.1177921 68.393359,22.9822746 C68.2581209,23.6964005 68.113223,24.4076312 67.968325,25.1193445 C68.1325427,20.371855 68.1760121,15.6209879 68.1905019,10.8706033 C68.253291,10.835862 68.3160801,10.7987082 68.3836992,10.7649319 C68.4561482,10.7263305 68.393359,10.6172816 68.3160801,10.6539529 C68.2774407,10.6751837 68.2339713,10.6964144 68.1905019,10.7176452 C68.1953318,9.08818368 68.1953318,7.45872214 68.1953318,5.82974312 C68.3353999,5.87220466 68.4368284,5.92238648 68.465808,5.9836662 Z M67.5771005,16.0846872 C65.7320665,16.9614214 64.0222706,18.2536033 62.4477128,19.6606242 C62.5298216,18.0432256 62.5394815,16.4263096 62.4525427,14.8103585 C64.0995495,13.4853655 65.7465563,12.2457781 67.6109101,11.1909949 C67.6012502,12.821904 67.5915903,14.4537781 67.5771005,16.0846872 Z M66.8622706,30.3522466 C64.7853999,31.2622746 62.790638,32.5481837 61.6411141,34.5477361 C61.5879849,34.6389319 61.723223,34.7132396 61.7811822,34.6287991 C63.0852638,32.7305753 64.7853999,31.4620368 66.8236311,30.5196802 C66.5628148,31.7573375 66.3116584,32.9954774 66.0798216,34.2394075 C65.2780529,38.5492536 64.8047196,42.9401627 64.2589373,47.2886103 C64.0222706,49.1704284 63.7952638,51.0532117 63.5585971,52.9359949 C62.718189,53.7171907 61.863291,54.4853585 61.0180529,55.2641417 C60.5398897,55.7056452 60.0037672,56.1635543 59.4966243,56.6513795 C59.5690733,55.3370019 59.6318624,54.016834 59.7188012,52.6990788 C61.1049917,51.3885613 62.2400257,49.7407641 63.5585971,48.3762047 C63.6600257,48.2719809 63.5054679,48.1151627 63.3992094,48.2169739 C62.4235631,49.1747711 61.5010461,50.1861277 60.5736992,51.1926592 C60.303223,51.4889249 60.0279169,51.7779529 59.7622706,52.0761487 C59.7719305,51.9212606 59.7815903,51.7654075 59.7960801,51.6105193 C59.9119985,50.1885403 60.0424067,48.7675263 60.1679849,47.3465124 C61.2692094,45.9057151 62.4960121,44.6164284 63.9691414,43.4781697 C64.0271005,43.4332956 63.9498216,43.3334144 63.8918624,43.3773235 C62.5539713,44.3804774 61.2692094,45.5457571 60.2114543,46.8707501 C60.3949917,44.8268061 60.5592094,42.7814144 60.6509781,40.7302326 C60.6751277,40.1632746 60.7041073,39.5977641 60.7330869,39.0337012 C60.7524067,39.0959459 60.8393454,39.139855 60.8924747,39.0785753 C62.1724067,37.5605753 63.5054679,36.4329319 65.2780529,35.5142186 C65.3311822,35.4857501 65.2828828,35.4037221 65.2249237,35.4312256 C63.495808,36.282869 61.863291,37.3555054 60.7427468,38.9618061 C60.7330869,38.9767641 60.7330869,38.9917221 60.7330869,39.0066802 C60.9504339,34.7967151 61.293359,30.6509249 61.8149917,26.4443375 C61.8826107,25.9019879 61.9453999,25.3591557 62.008189,24.8163235 C63.8242434,23.9173935 65.4519305,22.5977082 67.0554679,21.377904 C67.118257,21.3286872 67.0554679,21.2172256 66.9878488,21.2664424 C65.3843114,22.4510228 63.7614543,23.5559879 62.0419985,24.552869 C62.1965563,23.1333026 62.3317944,21.7113235 62.4139033,20.289827 C64.0319305,18.8215263 65.5678488,17.2933935 67.5722706,16.2714214 C67.5336311,19.7749809 67.4563522,23.2770928 67.3162842,26.7767921 C65.3843114,27.6424284 63.35574,29.0393165 62.4960121,30.9939949 C62.4525427,31.1011138 62.5877808,31.2357361 62.6747196,31.1300648 C63.4185291,30.2412676 64.0126107,29.3056662 64.8964883,28.5292956 C65.6161482,27.8976802 66.4468965,27.409855 67.3066243,27.0026103 C67.2873046,27.5126312 67.2728148,28.0236172 67.2486652,28.5336382 C67.118257,29.1396802 66.9878488,29.7462047 66.8622706,30.3522466 Z M70.740706,12.436855 C70.7455359,10.9145124 70.600638,9.39168718 70.2818624,7.90360326 C70.1273046,7.19092494 69.7167604,4.95397389 68.7942434,4.84878508 C64.2396175,4.33104382 59.6946516,3.71921165 55.1496856,3.13247039 C46.4799577,2.01254732 37.7860801,0.960176688 29.0487332,0.592980883 C29.1888012,0.450155709 29.3240393,0.306365499 29.4641073,0.164505359 C29.5510461,0.0762046597 29.415808,-0.0593827529 29.3288692,0.0284354289 C29.1453318,0.211792072 28.9569645,0.396596268 28.7637672,0.581882981 C27.8074407,0.543281583 26.8559441,0.510470394 25.9044475,0.489239625 C19.6979849,0.35220466 12.8974407,0.386463401 6.7827468,1.99710676 C6.80206652,1.95561025 6.81655632,1.91411375 6.83587605,1.87309976 C6.84553591,1.85428158 6.81655632,1.83787599 6.80689646,1.85717669 C6.78757673,1.90639347 6.768257,1.95754032 6.74410734,2.00723962 C6.15485564,2.16405781 5.56560394,2.33004382 4.9860121,2.51774312 C4.68172639,2.61617669 4.81696448,3.02197389 5.11642026,2.98144242 C5.26614816,2.96165921 5.41587605,2.94091095 5.56560394,2.92064522 C3.78818897,5.82491795 3.82682843,9.06888298 3.76886924,12.3364914 C3.38730462,14.7061347 3.15063795,17.1090718 2.99608013,19.5105613 C2.73043387,20.8249389 2.41648829,22.1306312 2.11220258,23.4353585 C1.51812094,25.9579599 1.20417537,28.4795963 0.783971285,31.0272886 C-0.10956613,36.4575403 -0.0757566061,42.1531767 0.0981209449,47.6345753 C0.194719584,50.7091767 0.421726387,53.7992186 0.986828428,56.8270158 C1.34424339,58.7580508 1.85621618,61.0012746 3.25689646,62.4700578 C3.99587605,63.2416033 5.12608013,63.6855193 6.35288285,63.9644144 C8.15444748,64.765876 10.2796175,65.2204075 11.8348556,65.6662536 C18.8962162,67.6880019 26.2377128,68.0677431 33.5598897,67.981855 C36.5351277,68.3794494 39.5248556,68.6245683 42.553223,68.5439879 C45.6975087,68.4609949 48.8273046,68.0691907 51.9377808,67.6276872 C51.9764203,67.6223795 52.0150597,67.6161068 52.0585291,67.6103165 C53.4543794,67.5886033 54.8985291,67.5471068 56.3136992,67.3791907 C56.3523386,67.4216522 56.4151277,67.4385403 56.4779169,67.3907711 C56.4924067,67.3791907 56.5068965,67.3671277 56.5213863,67.3545823 C57.743359,67.1996942 58.9411822,66.94589 60.0762162,66.5241697 C60.375672,66.4131907 60.655808,66.2766382 60.9117944,66.1207851 C61.22574,66.0199389 61.5348556,65.9065473 61.8391414,65.7642047 C61.9936992,65.6927921 61.9985291,65.4660089 61.8874407,65.3550298 C61.9936992,65.2508061 62.0951277,65.1417571 62.1917264,65.028848 C62.4911822,65.3439319 63.0900937,65.3511697 63.1673726,64.8160578 C63.2639713,64.173827 63.35574,63.5315963 63.4475087,62.888883 C64.5825427,60.0777361 64.6743114,56.3961277 64.9641073,53.9545893 C65.3505019,50.6623725 66.050842,47.4227501 66.4855359,44.1372886 C67.0071686,40.1965683 67.3597536,36.2394424 67.61574,32.2731487 C68.9246516,25.7027082 70.7165563,19.1727991 70.740706,12.436855 L70.740706,12.436855 Z" id="Fill-1446"></path>
                        <path d="M28.3822026,30.1973585 C29.27574,31.55082 30.2320665,33.1161068 31.4153999,34.3942956 C31.3477808,34.8951487 31.4395495,35.3979319 31.7921346,35.8707991 C31.8404339,36.5665893 31.9370325,37.2503165 32.1205699,37.9369389 C32.1109101,38.0001487 32.1060801,38.062876 32.1060801,38.1260858 C32.0964203,38.2481627 32.1785291,38.3919529 32.2896175,38.4619179 C32.5166243,38.8817082 33.0962162,39.0061977 33.463291,38.6476872 C33.4922706,38.6182536 33.5260801,38.5902676 33.5550597,38.560834 C33.7530869,38.5507012 33.9462842,38.5294704 34.1394815,38.4966592 C34.173291,38.5265753 34.2119305,38.5584214 34.24574,38.5873725 C34.5693454,38.8455193 35.0426788,38.8493795 35.2745155,38.4551627 C35.3566243,38.3133026 35.453223,38.1487641 35.5594815,37.9707151 C36.1970325,37.5793935 36.7090053,36.9902396 37.0229509,36.1714075 C37.0712502,36.0493305 37.1098897,35.9171207 37.1436992,35.7810508 C37.3079169,35.646911 37.3224067,35.4302606 37.2354679,35.2729599 C37.8536992,34.6804284 38.4139713,34.0835543 38.8728148,33.6434984 C40.8047876,31.7911138 42.5918624,29.7930089 44.4272366,27.8431557 C46.1853318,25.9676103 47.948257,24.0993026 49.933359,22.4515054 C51.5030869,21.1472606 52.8651277,19.7108061 54.7246516,18.8350368 C54.908189,18.7496312 54.8067604,18.4803865 54.6280529,18.4765263 C49.9526788,18.3679599 46.668325,21.7962466 43.5964883,24.8795333 C41.698325,26.7859599 39.8919305,28.7869599 37.9937672,30.6943515 C37.370706,31.3211417 36.7234951,31.9262186 36.0714543,32.5197151 C35.945876,32.4637431 35.8202978,32.4193515 35.6753999,32.391848 C35.5546516,32.3677221 35.4339033,32.3561417 35.308325,32.3503515 C34.9750597,31.9556522 34.5838352,31.6087221 34.173291,31.3356172 C33.9124747,31.1590158 33.5502298,31.2400788 33.3328828,31.4441837 C33.1396856,31.6222326 32.9416584,31.8229599 32.7436311,32.0381627 C29.6186652,28.6204914 27.7205019,23.6225753 22.8422706,22.7815473 C22.4993454,22.7217151 22.2626788,23.172869 22.5959441,23.3682886 C25.1075087,24.8457571 26.8269645,27.8344704 28.3822026,30.1973585 Z" id="Fill-1447"></path>
                        <path d="M37.5783931,10.9507012 C37.438325,12.4880019 37.8536992,14.1946662 38.2304339,15.7039809 C37.5928828,15.817855 37.0084611,16.0427082 36.4240393,16.3162956 C36.5351277,14.4721138 37.0036311,12.6993445 37.5783931,10.9507012 Z M36.2163522,17.2084704 C37.0277808,16.8132886 37.7812502,16.4571907 38.6941073,16.3915683 C38.9404339,16.3732326 39.1143114,16.1662326 39.0563522,15.9158061 C38.6554679,14.1961138 38.6699577,12.2896872 38.008257,10.6539529 C37.9502978,10.5140228 37.8198897,10.4783165 37.7184611,10.5280158 C37.79574,10.3065403 37.868189,10.0845823 37.9454679,9.86358928 C37.9985971,9.70918368 37.7522706,9.60302983 37.6846516,9.75212774 C36.6268965,12.0759319 35.7526788,14.3177082 35.6802298,16.9001417 C35.6705699,17.1886872 35.9845155,17.3223445 36.2163522,17.2084704 L36.2163522,17.2084704 Z" id="Fill-1448"></path>
                        <path d="M33.9414543,54.5133445 C33.960774,53.9753375 33.8400257,53.5130858 33.5743794,53.0474564 C33.4294815,52.7960648 33.038257,53.0233305 33.1879849,53.2737571 C33.5888692,53.9589319 33.4391414,54.6035753 33.5309101,55.3456872 C33.5888692,55.809869 33.8496856,56.1751347 34.1684611,56.4887711 C33.8303658,56.4839459 33.4971005,56.4733305 33.1590053,56.4477571 C32.7339713,56.4154284 32.3379169,56.3256802 31.9370325,56.2060158 C31.5651277,56.0955193 31.8645835,55.2120298 31.9128828,54.9601557 C32.1930189,53.5372117 33.1396856,52.277841 34.2892094,51.4334354 C34.3375087,51.3977291 34.2940393,51.3157012 34.2409101,51.3509249 C32.5649237,52.4751907 31.545808,54.2402396 31.4395495,56.2566802 C31.4395495,56.3107221 31.473359,56.3802047 31.5264883,56.4033655 C32.5359441,56.8641697 33.6130189,56.8945683 34.7094135,56.9018061 C34.8736311,56.9032536 34.9943794,56.6711627 34.8543114,56.5543935 C34.1298216,55.9531767 33.9076448,55.4166172 33.9414543,54.5133445" id="Fill-1449"></path>
                        <path d="M14.0904339,28.4487151 C14.0952638,28.4284494 14.1000937,28.4096312 14.1000937,28.3917781 C15.6263522,29.3891417 17.0946516,30.5201627 17.8867604,32.1862956 C16.4039713,32.7243026 14.9066924,33.576911 13.3369645,33.7520648 C13.0809781,31.8562536 13.4722026,30.2470578 14.0904339,28.4487151 Z M12.6656039,34.2437501 C12.6897536,34.3967082 12.8684611,34.5226452 13.018189,34.5139599 C14.9163522,34.405876 16.6744475,33.3472326 18.4180529,32.6919739 C18.62574,32.6133235 18.7078488,32.4150089 18.6112502,32.2123515 C17.5148556,29.878897 15.2544475,28.6026382 13.1002978,27.3746312 C12.9215903,27.2713725 12.7622026,27.5415823 12.9409101,27.6511138 C13.2355359,27.8388131 13.5349917,28.0279599 13.8392774,28.2209669 C13.8296175,28.2243445 13.8151277,28.2262746 13.8102978,28.2310998 C12.0425427,29.1459529 12.3902978,32.6857012 12.6656039,34.2437501 L12.6656039,34.2437501 Z" id="Fill-1450"></path>
                        <path d="M50.2811141,32.5317781 C50.0396175,32.4902816 49.8802298,32.6639879 49.9140393,32.8984914 C50.223155,35.0056452 50.2328148,36.8194284 49.8802298,38.9222396 C49.8464203,39.1244144 49.9671686,39.3507151 50.1990053,39.3415473 C53.3915903,39.2194704 55.2559441,36.7214774 57.5453318,34.8493096 C57.9124067,34.5482186 57.3859441,34.0237221 57.0236992,34.3272256 C55.0144475,36.0001138 53.3191414,38.3176452 50.5853999,38.641897 C50.8413863,36.7731068 50.8413863,35.0206033 50.5515903,33.1527781 C53.063155,33.3882466 55.4877808,32.9433655 57.2941754,31.0625124 C57.3134951,31.0465893 57.2893454,31.024876 57.2700257,31.0383865 C55.2752638,32.6794284 52.7540393,32.9607361 50.2811141,32.5317781" id="Fill-1451"></path>
                        <path d="M12.2260801,6.37788298 C12.7863522,5.77521865 13.1534271,5.02297389 13.5494815,4.31077809 C14.0034951,3.50931655 14.4526788,2.72715571 14.8342434,1.88902284 C14.8535631,1.84270116 14.7956039,1.78721165 14.7569645,1.83112074 C14.1918624,2.45212074 13.795808,3.12185501 13.3756039,3.84321865 C12.9167604,4.625862 12.3854679,5.39161725 12.023223,6.22251235 C11.9700937,6.34700186 12.1198216,6.49320466 12.2260801,6.37788298" id="Fill-1452"></path>
                        <path d="M19.1425427,4.64275011 C19.2729509,4.73780606 19.3985291,4.56168718 19.3405699,4.44540046 C19.2101618,4.16409277 19.9394815,3.52523962 20.1085291,3.36118368 C20.6494815,2.82462424 21.3063522,2.40049137 21.9680529,2.03184802 C22.1902298,1.90928858 21.9970325,1.59516969 21.7748556,1.69891095 C21.2725427,1.93389697 17.8819305,3.71969417 19.1425427,4.64275011" id="Fill-1453"></path>
                        <path d="M40.5536311,6.37788298 C40.7419985,6.1824634 40.7951277,5.93251935 40.915876,5.68981305 C41.0559441,5.40705781 41.2394815,5.14698088 41.4423386,4.90716969 C41.8963522,4.37495291 42.5097536,4.02223263 43.1617944,3.78869417 C43.3549917,3.71969417 43.2728828,3.41184802 43.0748556,3.47891795 C42.3986652,3.7095613 41.7949237,4.05070116 41.2829509,4.55300186 C40.8820665,4.94673613 40.283155,5.69898088 40.3362842,6.28716969 C40.3459441,6.39284102 40.4715223,6.46521865 40.5536311,6.37788298" id="Fill-1454"></path>
                        <path d="M44.0746516,7.24014172 C44.6542434,6.72674312 45.040638,5.91321865 45.533291,5.31200186 C46.0839033,4.63840746 46.7359441,3.99569417 47.5570325,3.66516969 C47.590842,3.64972914 47.5763522,3.58941445 47.5377128,3.60292494 C46.7456039,3.8750648 46.1225427,4.41741445 45.5381209,5.00270816 C44.968189,5.5807641 44.18574,6.36533753 43.9104339,7.14605081 C43.8766243,7.24351935 44.0070325,7.29900886 44.0746516,7.24014172" id="Fill-1455"></path>
                        <path d="M49.3634271,8.13907179 C50.8172366,7.21070816 51.7494135,5.80754732 52.9037672,4.56409976 C52.9617264,4.50282004 52.8699577,4.41548438 52.8119985,4.47290396 C51.6190053,5.61791795 50.5950597,6.97716969 49.2668284,7.97308578 C49.1702298,8.0454634 49.2571686,8.20758928 49.3634271,8.13907179" id="Fill-1456"></path>
                        <path d="M52.9134271,8.55500186 C54.338257,7.43797389 55.7196175,6.33252634 57.3328148,5.48570816 C57.4439033,5.42780606 57.3473046,5.26423263 57.2362162,5.31972214 C55.6761482,6.09850536 53.9277128,7.07994592 52.8023386,8.44112774 C52.7347196,8.52219067 52.8313182,8.61821165 52.9134271,8.55500186" id="Fill-1457"></path>
                        <path d="M60.7572366,42.921827 C60.6702978,43.031841 60.8248556,43.1505403 60.9069645,43.0385963 C62.1579169,41.3459249 63.6020665,39.8723165 65.2635631,38.5791697 C65.2780529,38.5680718 65.2587332,38.5434634 65.2442434,38.5540788 C63.5441073,39.8095893 62.0564883,41.2547291 60.7572366,42.921827" id="Fill-1458"></path>
                        <path d="M55.4298216,64.6100228 C55.3815223,64.7041138 55.5022706,64.8097851 55.5795495,64.7263096 C56.5551958,63.6942047 57.4100937,62.5964774 58.4726788,61.6425403 C59.7574407,60.4859459 61.2112502,59.5151207 62.6360801,58.5365753 C62.718189,58.4786732 62.6409101,58.3411557 62.5539713,58.3976103 C60.0568965,60.0121138 56.7966924,61.8394075 55.4298216,64.6100228" id="Fill-1459"></path>
                        <path id="Fill-1460"></path>
                        <path d="M3.36315496,27.5613655 C4.00553591,26.2841417 4.61410734,25.1835193 5.53179441,24.0664914 C6.53642026,22.8442746 7.64730462,21.7132536 8.62778081,20.4722186 C8.66642026,20.4244494 8.59880122,20.3559319 8.56016176,20.4037012 C7.44444748,21.7185613 6.19832503,22.9166522 5.05846108,24.2102816 C4.26635224,25.1111417 3.22308693,26.2551907 3.18444748,27.5126312 C3.18444748,27.6062396 3.31968557,27.6477361 3.36315496,27.5613655" id="Fill-1461"></path>
                        <path d="M50.1700257,63.6652536 C48.9045835,64.1173725 48.0351958,65.2011068 47.4362842,66.3620438 C47.3590053,66.5092117 47.5811822,66.6394914 47.6584611,66.491841 C48.2139033,65.3839809 49.0301618,64.3229249 50.2328148,63.881904 C50.3680529,63.8326872 50.3100937,63.6160368 50.1700257,63.6652536" id="Fill-1462"></path>
                    </g>
                </g>
            </g>
        </g>
    </g>
</svg>